G75*
%MOIN*%
%OFA0B0*%
%FSLAX24Y24*%
%IPPOS*%
%LPD*%
%AMOC8*
5,1,8,0,0,1.08239X$1,22.5*
%
%ADD10C,0.0050*%
%ADD11C,0.0433*%
%ADD12R,0.0394X0.0433*%
%ADD13R,0.0740X0.0740*%
%ADD14C,0.0740*%
%ADD15C,0.0320*%
%ADD16C,0.0100*%
%ADD17C,0.0120*%
D10*
X000150Y000250D02*
X000150Y004000D01*
X005650Y004000D01*
X005650Y000250D01*
X000150Y000250D01*
D11*
X002381Y001178D02*
X002381Y001532D01*
X002381Y001532D01*
X002381Y001178D01*
X002381Y001178D01*
X003050Y001178D02*
X003050Y001532D01*
X003050Y001532D01*
X003050Y001178D01*
X003050Y001178D01*
X003719Y001178D02*
X003719Y001532D01*
X003719Y001532D01*
X003719Y001178D01*
X003719Y001178D01*
X003719Y003068D02*
X003719Y003422D01*
X003719Y003422D01*
X003719Y003068D01*
X003719Y003068D01*
X003050Y003068D02*
X003050Y003422D01*
X003050Y003422D01*
X003050Y003068D01*
X003050Y003068D01*
X002381Y003068D02*
X002381Y003422D01*
X002381Y003422D01*
X002381Y003068D01*
X002381Y003068D01*
D12*
X001750Y002485D03*
X001750Y001815D03*
D13*
X000900Y001125D03*
X004900Y001125D03*
D14*
X004900Y002125D03*
X004900Y003125D03*
X000900Y003125D03*
X000900Y002125D03*
D15*
X001750Y002485D02*
X001750Y003125D01*
X002276Y003125D01*
X002381Y003245D01*
X002381Y002619D01*
X003050Y001950D01*
X003050Y001355D01*
X001750Y003125D02*
X000900Y003125D01*
D16*
X001317Y002835D02*
X001460Y002835D01*
X001460Y002792D01*
X001423Y002755D01*
X001423Y002214D01*
X001477Y002161D01*
X001461Y002152D01*
X001433Y002124D01*
X001413Y002090D01*
X001403Y002052D01*
X001403Y001864D01*
X001702Y001864D01*
X001702Y001767D01*
X001798Y001767D01*
X001798Y001449D01*
X001967Y001449D01*
X002005Y001459D01*
X002034Y001476D01*
X002034Y001109D01*
X002087Y000982D01*
X002184Y000884D01*
X002312Y000831D01*
X002450Y000831D01*
X002577Y000884D01*
X002674Y000982D01*
X002715Y001080D01*
X002756Y000982D01*
X002854Y000884D01*
X002981Y000831D01*
X003119Y000831D01*
X003246Y000884D01*
X003344Y000982D01*
X003374Y001054D01*
X003394Y001004D01*
X003435Y000944D01*
X003486Y000893D01*
X003546Y000853D01*
X003612Y000826D01*
X003669Y000814D01*
X003669Y001305D01*
X003769Y001305D01*
X003769Y000814D01*
X003826Y000826D01*
X003893Y000853D01*
X003953Y000893D01*
X004004Y000944D01*
X004044Y001004D01*
X004072Y001071D01*
X004086Y001142D01*
X004086Y001305D01*
X003769Y001305D01*
X003769Y001405D01*
X003669Y001405D01*
X003669Y001896D01*
X003612Y001885D01*
X003546Y001857D01*
X003486Y001817D01*
X003435Y001766D01*
X003394Y001706D01*
X003374Y001656D01*
X003344Y001729D01*
X003340Y001732D01*
X003340Y002008D01*
X003296Y002114D01*
X003214Y002196D01*
X002671Y002739D01*
X002671Y002868D01*
X002674Y002871D01*
X002715Y002970D01*
X002756Y002871D01*
X002854Y002774D01*
X002981Y002721D01*
X003119Y002721D01*
X003246Y002774D01*
X003344Y002871D01*
X003385Y002970D01*
X003426Y002871D01*
X003523Y002774D01*
X003650Y002721D01*
X003788Y002721D01*
X003916Y002774D01*
X004013Y002871D01*
X004058Y002980D01*
X004539Y002471D01*
X004476Y002408D01*
X004400Y002224D01*
X004400Y002026D01*
X004476Y001842D01*
X004617Y001701D01*
X004752Y001645D01*
X004510Y001645D01*
X004472Y001635D01*
X004438Y001615D01*
X004410Y001587D01*
X004390Y001553D01*
X004380Y001515D01*
X004380Y001175D01*
X004850Y001175D01*
X004850Y001075D01*
X004950Y001075D01*
X004950Y001175D01*
X005420Y001175D01*
X005420Y001515D01*
X005410Y001553D01*
X005390Y001587D01*
X005362Y001615D01*
X005328Y001635D01*
X005290Y001645D01*
X005048Y001645D01*
X005183Y001701D01*
X005324Y001842D01*
X005400Y002026D01*
X005400Y002224D01*
X005324Y002408D01*
X005183Y002549D01*
X004999Y002625D01*
X005183Y002701D01*
X005324Y002842D01*
X005400Y003026D01*
X005400Y003224D01*
X005324Y003408D01*
X005183Y003549D01*
X004999Y003625D01*
X004801Y003625D01*
X004617Y003549D01*
X004476Y003408D01*
X004400Y003224D01*
X004400Y003142D01*
X004235Y003316D01*
X004235Y003319D01*
X004184Y003370D01*
X004135Y003423D01*
X004132Y003423D01*
X004130Y003425D01*
X004066Y003425D01*
X004066Y003491D01*
X004013Y003618D01*
X003916Y003716D01*
X003788Y003769D01*
X003650Y003769D01*
X003523Y003716D01*
X003426Y003618D01*
X003385Y003520D01*
X003344Y003618D01*
X003246Y003716D01*
X003240Y003718D01*
X003240Y003729D01*
X003129Y003840D01*
X003124Y003845D01*
X005495Y003845D01*
X005495Y000405D01*
X000305Y000405D01*
X000305Y002387D01*
X000424Y002283D01*
X000400Y002224D01*
X000400Y002026D01*
X000476Y001842D01*
X000617Y001701D01*
X000752Y001645D01*
X000510Y001645D01*
X000472Y001635D01*
X000438Y001615D01*
X000410Y001587D01*
X000390Y001553D01*
X000380Y001515D01*
X000380Y001175D01*
X000850Y001175D01*
X000850Y001075D01*
X000380Y001075D01*
X000380Y000735D01*
X000390Y000697D01*
X000410Y000663D01*
X000438Y000635D01*
X000472Y000615D01*
X000510Y000605D01*
X000850Y000605D01*
X000850Y001075D01*
X000950Y001075D01*
X000950Y001175D01*
X001420Y001175D01*
X001420Y001515D01*
X001410Y001553D01*
X001390Y001587D01*
X001362Y001615D01*
X001328Y001635D01*
X001290Y001645D01*
X001048Y001645D01*
X001183Y001701D01*
X001324Y001842D01*
X001400Y002026D01*
X001400Y002224D01*
X001324Y002408D01*
X001183Y002549D01*
X000999Y002625D01*
X001183Y002701D01*
X001317Y002835D01*
X001293Y002811D02*
X001460Y002811D01*
X001423Y002713D02*
X001195Y002713D01*
X001026Y002614D02*
X001423Y002614D01*
X001423Y002516D02*
X001217Y002516D01*
X001315Y002417D02*
X001423Y002417D01*
X001423Y002319D02*
X001361Y002319D01*
X001400Y002220D02*
X001423Y002220D01*
X001432Y002122D02*
X001400Y002122D01*
X001399Y002023D02*
X001403Y002023D01*
X001403Y001925D02*
X001358Y001925D01*
X001308Y001826D02*
X001702Y001826D01*
X001702Y001767D02*
X001403Y001767D01*
X001403Y001579D01*
X001413Y001541D01*
X001433Y001507D01*
X001461Y001479D01*
X001495Y001459D01*
X001533Y001449D01*
X001702Y001449D01*
X001702Y001767D01*
X001702Y001728D02*
X001798Y001728D01*
X001798Y001767D02*
X001798Y001864D01*
X002097Y001864D01*
X002097Y002052D01*
X002087Y002090D01*
X002067Y002124D01*
X002039Y002152D01*
X002023Y002161D01*
X002077Y002214D01*
X002077Y002755D01*
X002040Y002792D01*
X002040Y002835D01*
X002091Y002835D01*
X002091Y002562D01*
X002135Y002455D01*
X002760Y001830D01*
X002760Y001732D01*
X002756Y001729D01*
X002715Y001630D01*
X002674Y001729D01*
X002577Y001826D01*
X002760Y001826D01*
X002665Y001925D02*
X002097Y001925D01*
X002097Y002023D02*
X002567Y002023D01*
X002468Y002122D02*
X002068Y002122D01*
X002077Y002220D02*
X002370Y002220D01*
X002271Y002319D02*
X002077Y002319D01*
X002077Y002417D02*
X002173Y002417D01*
X002110Y002516D02*
X002077Y002516D01*
X002077Y002614D02*
X002091Y002614D01*
X002077Y002713D02*
X002091Y002713D01*
X002091Y002811D02*
X002040Y002811D01*
X002671Y002811D02*
X002817Y002811D01*
X002698Y002713D02*
X004310Y002713D01*
X004217Y002811D02*
X003953Y002811D01*
X004029Y002910D02*
X004124Y002910D01*
X004340Y003205D02*
X004400Y003205D01*
X004433Y003304D02*
X004247Y003304D01*
X004154Y003402D02*
X004474Y003402D01*
X004568Y003501D02*
X004062Y003501D01*
X004021Y003599D02*
X004738Y003599D01*
X005062Y003599D02*
X005495Y003599D01*
X005495Y003501D02*
X005232Y003501D01*
X005326Y003402D02*
X005495Y003402D01*
X005495Y003304D02*
X005367Y003304D01*
X005400Y003205D02*
X005495Y003205D01*
X005495Y003107D02*
X005400Y003107D01*
X005393Y003008D02*
X005495Y003008D01*
X005495Y002910D02*
X005352Y002910D01*
X005293Y002811D02*
X005495Y002811D01*
X005495Y002713D02*
X005195Y002713D01*
X005026Y002614D02*
X005495Y002614D01*
X005495Y002516D02*
X005217Y002516D01*
X005315Y002417D02*
X005495Y002417D01*
X005495Y002319D02*
X005361Y002319D01*
X005400Y002220D02*
X005495Y002220D01*
X005495Y002122D02*
X005400Y002122D01*
X005399Y002023D02*
X005495Y002023D01*
X005495Y001925D02*
X005358Y001925D01*
X005308Y001826D02*
X005495Y001826D01*
X005495Y001728D02*
X005210Y001728D01*
X005338Y001629D02*
X005495Y001629D01*
X005495Y001531D02*
X005416Y001531D01*
X005420Y001432D02*
X005495Y001432D01*
X005495Y001334D02*
X005420Y001334D01*
X005420Y001235D02*
X005495Y001235D01*
X005495Y001137D02*
X004950Y001137D01*
X004950Y001075D02*
X005420Y001075D01*
X005420Y000735D01*
X005410Y000697D01*
X005390Y000663D01*
X005362Y000635D01*
X005328Y000615D01*
X005290Y000605D01*
X004950Y000605D01*
X004950Y001075D01*
X004950Y001038D02*
X004850Y001038D01*
X004850Y001075D02*
X004850Y000605D01*
X004510Y000605D01*
X004472Y000615D01*
X004438Y000635D01*
X004410Y000663D01*
X004390Y000697D01*
X004380Y000735D01*
X004380Y001075D01*
X004850Y001075D01*
X004850Y001137D02*
X004085Y001137D01*
X004086Y001235D02*
X004380Y001235D01*
X004380Y001334D02*
X003769Y001334D01*
X003769Y001405D02*
X004086Y001405D01*
X004086Y001568D01*
X004072Y001639D01*
X004044Y001706D01*
X004004Y001766D01*
X003953Y001817D01*
X003893Y001857D01*
X003826Y001885D01*
X003769Y001896D01*
X003769Y001405D01*
X003769Y001432D02*
X003669Y001432D01*
X003669Y001531D02*
X003769Y001531D01*
X003769Y001629D02*
X003669Y001629D01*
X003669Y001728D02*
X003769Y001728D01*
X003769Y001826D02*
X003669Y001826D01*
X003499Y001826D02*
X003340Y001826D01*
X003340Y001925D02*
X004442Y001925D01*
X004401Y002023D02*
X003334Y002023D01*
X003289Y002122D02*
X004400Y002122D01*
X004400Y002220D02*
X003190Y002220D01*
X003214Y002196D02*
X003214Y002196D01*
X003092Y002319D02*
X004439Y002319D01*
X004485Y002417D02*
X002993Y002417D01*
X002895Y002516D02*
X004496Y002516D01*
X004403Y002614D02*
X002796Y002614D01*
X002740Y002910D02*
X002690Y002910D01*
X003283Y002811D02*
X003486Y002811D01*
X003410Y002910D02*
X003360Y002910D01*
X003719Y003245D02*
X004055Y003245D01*
X004900Y002350D01*
X004900Y002125D01*
X004492Y001826D02*
X003939Y001826D01*
X004030Y001728D02*
X004590Y001728D01*
X004462Y001629D02*
X004074Y001629D01*
X004086Y001531D02*
X004384Y001531D01*
X004380Y001432D02*
X004086Y001432D01*
X003769Y001235D02*
X003669Y001235D01*
X003669Y001137D02*
X003769Y001137D01*
X003769Y001038D02*
X003669Y001038D01*
X003669Y000940D02*
X003769Y000940D01*
X003769Y000841D02*
X003669Y000841D01*
X003575Y000841D02*
X003142Y000841D01*
X003302Y000940D02*
X003439Y000940D01*
X003381Y001038D02*
X003367Y001038D01*
X002958Y000841D02*
X002473Y000841D01*
X002289Y000841D02*
X001420Y000841D01*
X001420Y000940D02*
X002129Y000940D01*
X002064Y001038D02*
X001420Y001038D01*
X001420Y001075D02*
X000950Y001075D01*
X000950Y000605D01*
X001290Y000605D01*
X001328Y000615D01*
X001362Y000635D01*
X001390Y000663D01*
X001410Y000697D01*
X001420Y000735D01*
X001420Y001075D01*
X001420Y001235D02*
X002034Y001235D01*
X002034Y001137D02*
X000950Y001137D01*
X000950Y001038D02*
X000850Y001038D01*
X000850Y001137D02*
X000305Y001137D01*
X000305Y001235D02*
X000380Y001235D01*
X000380Y001334D02*
X000305Y001334D01*
X000305Y001432D02*
X000380Y001432D01*
X000384Y001531D02*
X000305Y001531D01*
X000305Y001629D02*
X000462Y001629D01*
X000590Y001728D02*
X000305Y001728D01*
X000305Y001826D02*
X000492Y001826D01*
X000442Y001925D02*
X000305Y001925D01*
X000305Y002023D02*
X000401Y002023D01*
X000400Y002122D02*
X000305Y002122D01*
X000305Y002220D02*
X000400Y002220D01*
X000383Y002319D02*
X000305Y002319D01*
X000540Y002686D02*
X000671Y002571D01*
X000801Y002625D01*
X000999Y002625D01*
X000801Y002625D01*
X000617Y002701D01*
X000540Y002778D01*
X000540Y002686D01*
X000540Y002713D02*
X000605Y002713D01*
X000623Y002614D02*
X000774Y002614D01*
X001798Y001826D02*
X002184Y001826D01*
X002097Y001738D01*
X002097Y001767D01*
X001798Y001767D01*
X001798Y001629D02*
X001702Y001629D01*
X001702Y001531D02*
X001798Y001531D01*
X002034Y001432D02*
X001420Y001432D01*
X001420Y001334D02*
X002034Y001334D01*
X002632Y000940D02*
X002798Y000940D01*
X002733Y001038D02*
X002698Y001038D01*
X002675Y001728D02*
X002756Y001728D01*
X002577Y001826D02*
X002450Y001879D01*
X002312Y001879D01*
X002184Y001826D01*
X001403Y001728D02*
X001210Y001728D01*
X001338Y001629D02*
X001403Y001629D01*
X001416Y001531D02*
X001419Y001531D01*
X000950Y000940D02*
X000850Y000940D01*
X000850Y000841D02*
X000950Y000841D01*
X000950Y000743D02*
X000850Y000743D01*
X000850Y000644D02*
X000950Y000644D01*
X001371Y000644D02*
X004429Y000644D01*
X004380Y000743D02*
X001420Y000743D01*
X000429Y000644D02*
X000305Y000644D01*
X000305Y000546D02*
X005495Y000546D01*
X005495Y000644D02*
X005371Y000644D01*
X005420Y000743D02*
X005495Y000743D01*
X005495Y000841D02*
X005420Y000841D01*
X005420Y000940D02*
X005495Y000940D01*
X005495Y001038D02*
X005420Y001038D01*
X004950Y000940D02*
X004850Y000940D01*
X004850Y000841D02*
X004950Y000841D01*
X004950Y000743D02*
X004850Y000743D01*
X004850Y000644D02*
X004950Y000644D01*
X005495Y000447D02*
X000305Y000447D01*
X000305Y000743D02*
X000380Y000743D01*
X000380Y000841D02*
X000305Y000841D01*
X000305Y000940D02*
X000380Y000940D01*
X000380Y001038D02*
X000305Y001038D01*
X003344Y001728D02*
X003409Y001728D01*
X004058Y001038D02*
X004380Y001038D01*
X004380Y000940D02*
X003999Y000940D01*
X003864Y000841D02*
X004380Y000841D01*
X004888Y002625D02*
X004888Y002625D01*
X004999Y002625D01*
X004888Y002625D01*
X005495Y003698D02*
X003934Y003698D01*
X003505Y003698D02*
X003265Y003698D01*
X003173Y003796D02*
X005495Y003796D01*
X003418Y003599D02*
X003352Y003599D01*
D17*
X003050Y003650D02*
X003050Y003245D01*
X003050Y003650D02*
X002900Y003800D01*
X000700Y003800D01*
X000350Y003450D01*
X000350Y002600D01*
X000750Y002250D01*
X000900Y002125D01*
M02*
