G75*
G70*
%OFA0B0*%
%FSLAX24Y24*%
%IPPOS*%
%LPD*%
%AMOC8*
5,1,8,0,0,1.08239X$1,22.5*
%
%ADD10R,0.0337X0.0000*%
%ADD11R,0.0337X0.0000*%
%ADD12R,0.0343X0.0000*%
%ADD13R,0.0348X0.0000*%
%ADD14R,0.0347X0.0000*%
%ADD15R,0.0350X0.0000*%
%ADD16R,0.0350X0.0000*%
%ADD17R,0.0352X0.0000*%
%ADD18R,0.0355X0.0000*%
%ADD19R,0.0354X0.0000*%
%ADD20R,0.0356X0.0000*%
%ADD21R,0.0358X0.0000*%
%ADD22R,0.0360X0.0000*%
%ADD23R,0.0361X0.0000*%
%ADD24R,0.0363X0.0000*%
%ADD25R,0.0362X0.0000*%
%ADD26R,0.0365X0.0000*%
%ADD27R,0.0364X0.0000*%
%ADD28R,0.0365X0.0000*%
%ADD29R,0.0366X0.0000*%
%ADD30R,0.0367X0.0000*%
%ADD31R,0.0368X0.0000*%
%ADD32R,0.0370X0.0000*%
%ADD33R,0.0369X0.0000*%
%ADD34R,0.0370X0.0000*%
%ADD35R,0.0371X0.0000*%
%ADD36R,0.0372X0.0000*%
%ADD37R,0.0372X0.0000*%
%ADD38R,0.0373X0.0000*%
%ADD39R,0.0374X0.0000*%
%ADD40R,0.0373X0.0000*%
%ADD41R,0.0375X0.0000*%
%ADD42R,0.0374X0.0000*%
%ADD43R,0.0375X0.0000*%
%ADD44R,0.0375X0.0000*%
%ADD45R,0.0376X0.0000*%
%ADD46R,0.0377X0.0000*%
%ADD47R,0.0377X0.0000*%
%ADD48R,0.0378X0.0000*%
%ADD49R,0.0378X0.0000*%
%ADD50R,0.0379X0.0000*%
%ADD51R,0.0380X0.0000*%
%ADD52R,0.0379X0.0000*%
%ADD53R,0.0380X0.0000*%
%ADD54R,0.0380X0.0000*%
%ADD55R,0.0381X0.0000*%
%ADD56R,0.0381X0.0000*%
%ADD57R,0.0382X0.0000*%
%ADD58R,0.0382X0.0000*%
%ADD59R,0.0382X0.0000*%
%ADD60R,0.0383X0.0000*%
%ADD61R,0.0376X0.0000*%
%ADD62R,0.0371X0.0000*%
%ADD63R,0.0370X0.0000*%
%ADD64R,0.0369X0.0000*%
%ADD65R,0.0368X0.0000*%
%ADD66R,0.0367X0.0000*%
%ADD67R,0.0366X0.0000*%
%ADD68R,0.0363X0.0000*%
%ADD69R,0.0362X0.0000*%
%ADD70R,0.0360X0.0000*%
%ADD71R,0.0359X0.0000*%
%ADD72R,0.0357X0.0000*%
%ADD73R,0.0355X0.0000*%
%ADD74R,0.0365X0.0000*%
%ADD75R,0.0353X0.0000*%
%ADD76R,0.0351X0.0000*%
%ADD77R,0.0348X0.0000*%
%ADD78R,0.0345X0.0000*%
%ADD79R,0.0340X0.0000*%
%ADD80R,0.0258X0.0000*%
%ADD81R,0.0257X0.0000*%
%ADD82R,0.0257X0.0000*%
%ADD83R,0.0338X0.0000*%
%ADD84R,0.0239X0.0000*%
%ADD85R,0.0256X0.0000*%
%ADD86R,0.0239X0.0000*%
%ADD87R,0.0256X0.0000*%
%ADD88R,0.0255X0.0000*%
%ADD89R,0.0238X0.0000*%
%ADD90R,0.0255X0.0000*%
%ADD91R,0.0238X0.0000*%
%ADD92R,0.0255X0.0000*%
%ADD93R,0.0238X0.0000*%
%ADD94R,0.0254X0.0000*%
%ADD95R,0.0237X0.0000*%
%ADD96R,0.0253X0.0000*%
%ADD97R,0.0253X0.0000*%
%ADD98R,0.0236X0.0000*%
%ADD99R,0.0253X0.0000*%
%ADD100R,0.0236X0.0000*%
%ADD101R,0.0252X0.0000*%
%ADD102R,0.0235X0.0000*%
%ADD103R,0.0251X0.0000*%
%ADD104R,0.0235X0.0000*%
%ADD105R,0.0251X0.0000*%
%ADD106R,0.0234X0.0000*%
%ADD107R,0.0250X0.0000*%
%ADD108R,0.0250X0.0000*%
%ADD109R,0.0234X0.0000*%
%ADD110R,0.0250X0.0000*%
%ADD111R,0.0233X0.0000*%
%ADD112R,0.0249X0.0000*%
%ADD113R,0.0233X0.0000*%
%ADD114R,0.0248X0.0000*%
%ADD115R,0.0232X0.0000*%
%ADD116R,0.0248X0.0000*%
%ADD117R,0.0248X0.0000*%
%ADD118R,0.0232X0.0000*%
%ADD119R,0.0247X0.0000*%
%ADD120R,0.0231X0.0000*%
%ADD121R,0.0246X0.0000*%
%ADD122R,0.0231X0.0000*%
%ADD123R,0.0246X0.0000*%
%ADD124R,0.0230X0.0000*%
%ADD125R,0.0245X0.0000*%
%ADD126R,0.0245X0.0000*%
%ADD127R,0.0230X0.0000*%
%ADD128R,0.0245X0.0000*%
%ADD129R,0.0229X0.0000*%
%ADD130R,0.0244X0.0000*%
%ADD131R,0.0229X0.0000*%
%ADD132R,0.0243X0.0000*%
%ADD133R,0.0228X0.0000*%
%ADD134R,0.0243X0.0000*%
%ADD135R,0.0243X0.0000*%
%ADD136R,0.0228X0.0000*%
%ADD137R,0.0242X0.0000*%
%ADD138R,0.0227X0.0000*%
%ADD139R,0.0241X0.0000*%
%ADD140R,0.0227X0.0000*%
%ADD141R,0.0241X0.0000*%
%ADD142R,0.0226X0.0000*%
%ADD143R,0.0240X0.0000*%
%ADD144R,0.0226X0.0000*%
%ADD145R,0.0240X0.0000*%
%ADD146R,0.0225X0.0000*%
%ADD147R,0.0240X0.0000*%
%ADD148R,0.0225X0.0000*%
%ADD149R,0.0224X0.0000*%
%ADD150R,0.0224X0.0000*%
%ADD151R,0.0223X0.0000*%
%ADD152R,0.0237X0.0000*%
%ADD153R,0.0223X0.0000*%
%ADD154R,0.0222X0.0000*%
%ADD155R,0.0222X0.0000*%
%ADD156R,0.0221X0.0000*%
%ADD157R,0.0235X0.0000*%
%ADD158R,0.0221X0.0000*%
%ADD159R,0.0220X0.0000*%
%ADD160R,0.0220X0.0000*%
%ADD161R,0.0219X0.0000*%
%ADD162R,0.0232X0.0000*%
%ADD163R,0.0219X0.0000*%
%ADD164R,0.0218X0.0000*%
%ADD165R,0.0218X0.0000*%
%ADD166R,0.0217X0.0000*%
%ADD167R,0.0230X0.0000*%
%ADD168R,0.0217X0.0000*%
%ADD169R,0.0216X0.0000*%
%ADD170R,0.0216X0.0000*%
%ADD171R,0.0215X0.0000*%
%ADD172R,0.0227X0.0000*%
%ADD173R,0.0215X0.0000*%
%ADD174R,0.0214X0.0000*%
%ADD175R,0.0214X0.0000*%
%ADD176R,0.0213X0.0000*%
%ADD177R,0.0225X0.0000*%
%ADD178R,0.0213X0.0000*%
%ADD179R,0.0213X0.0000*%
%ADD180R,0.0212X0.0000*%
%ADD181R,0.0211X0.0000*%
%ADD182R,0.0222X0.0000*%
%ADD183R,0.0211X0.0000*%
%ADD184R,0.0210X0.0000*%
%ADD185R,0.0210X0.0000*%
%ADD186R,0.0209X0.0000*%
%ADD187R,0.0220X0.0000*%
%ADD188R,0.0209X0.0000*%
%ADD189R,0.0208X0.0000*%
%ADD190R,0.0208X0.0000*%
%ADD191R,0.0208X0.0000*%
%ADD192R,0.0217X0.0000*%
%ADD193R,0.0207X0.0000*%
%ADD194R,0.0206X0.0000*%
%ADD195R,0.0206X0.0000*%
%ADD196R,0.0205X0.0000*%
%ADD197R,0.0215X0.0000*%
%ADD198R,0.0205X0.0000*%
%ADD199R,0.0204X0.0000*%
%ADD200R,0.0204X0.0000*%
%ADD201R,0.0203X0.0000*%
%ADD202R,0.0212X0.0000*%
%ADD203R,0.0203X0.0000*%
%ADD204R,0.0203X0.0000*%
%ADD205R,0.0202X0.0000*%
%ADD206R,0.0201X0.0000*%
%ADD207R,0.0210X0.0000*%
%ADD208R,0.0201X0.0000*%
%ADD209R,0.0200X0.0000*%
%ADD210R,0.0200X0.0000*%
%ADD211R,0.0199X0.0000*%
%ADD212R,0.0199X0.0000*%
%ADD213R,0.0207X0.0000*%
%ADD214R,0.0198X0.0000*%
%ADD215R,0.0198X0.0000*%
%ADD216R,0.0198X0.0000*%
%ADD217R,0.0197X0.0000*%
%ADD218R,0.0205X0.0000*%
%ADD219R,0.0196X0.0000*%
%ADD220R,0.0196X0.0000*%
%ADD221R,0.0195X0.0000*%
%ADD222R,0.0195X0.0000*%
%ADD223R,0.0202X0.0000*%
%ADD224R,0.0194X0.0000*%
%ADD225R,0.0194X0.0000*%
%ADD226R,0.0193X0.0000*%
%ADD227R,0.0193X0.0000*%
%ADD228R,0.0200X0.0000*%
%ADD229R,0.0192X0.0000*%
%ADD230R,0.0192X0.0000*%
%ADD231R,0.0191X0.0000*%
%ADD232R,0.0191X0.0000*%
%ADD233R,0.0197X0.0000*%
%ADD234R,0.0190X0.0000*%
%ADD235R,0.0190X0.0000*%
%ADD236R,0.0189X0.0000*%
%ADD237R,0.0189X0.0000*%
%ADD238R,0.0195X0.0000*%
%ADD239R,0.0188X0.0000*%
%ADD240R,0.0188X0.0000*%
%ADD241R,0.0187X0.0000*%
%ADD242R,0.0187X0.0000*%
%ADD243R,0.0192X0.0000*%
%ADD244R,0.0186X0.0000*%
%ADD245R,0.0186X0.0000*%
%ADD246R,0.0185X0.0000*%
%ADD247R,0.0185X0.0000*%
%ADD248R,0.0190X0.0000*%
%ADD249R,0.0184X0.0000*%
%ADD250R,0.0184X0.0000*%
%ADD251R,0.0183X0.0000*%
%ADD252R,0.0183X0.0000*%
%ADD253R,0.0187X0.0000*%
%ADD254R,0.0182X0.0000*%
%ADD255R,0.0182X0.0000*%
%ADD256R,0.0181X0.0000*%
%ADD257R,0.0181X0.0000*%
%ADD258R,0.0185X0.0000*%
%ADD259R,0.0180X0.0000*%
%ADD260R,0.0180X0.0000*%
%ADD261R,0.0179X0.0000*%
%ADD262R,0.0179X0.0000*%
%ADD263R,0.0182X0.0000*%
%ADD264R,0.0178X0.0000*%
%ADD265R,0.0178X0.0000*%
%ADD266R,0.0177X0.0000*%
%ADD267R,0.0177X0.0000*%
%ADD268R,0.0180X0.0000*%
%ADD269R,0.0176X0.0000*%
%ADD270R,0.0176X0.0000*%
%ADD271R,0.0175X0.0000*%
%ADD272R,0.0175X0.0000*%
%ADD273R,0.0174X0.0000*%
%ADD274R,0.0177X0.0000*%
%ADD275R,0.0174X0.0000*%
%ADD276R,0.0173X0.0000*%
%ADD277R,0.0173X0.0000*%
%ADD278R,0.0173X0.0000*%
%ADD279R,0.0175X0.0000*%
%ADD280R,0.0172X0.0000*%
%ADD281R,0.0171X0.0000*%
%ADD282R,0.0171X0.0000*%
%ADD283R,0.0170X0.0000*%
%ADD284R,0.0172X0.0000*%
%ADD285R,0.0170X0.0000*%
%ADD286R,0.0169X0.0000*%
%ADD287R,0.0169X0.0000*%
%ADD288R,0.0168X0.0000*%
%ADD289R,0.0170X0.0000*%
%ADD290R,0.0168X0.0000*%
%ADD291R,0.0168X0.0000*%
%ADD292R,0.0167X0.0000*%
%ADD293R,0.0166X0.0000*%
%ADD294R,0.0167X0.0000*%
%ADD295R,0.0166X0.0000*%
%ADD296R,0.0165X0.0000*%
%ADD297R,0.0165X0.0000*%
%ADD298R,0.0164X0.0000*%
%ADD299R,0.0165X0.0000*%
%ADD300R,0.0164X0.0000*%
%ADD301R,0.0163X0.0000*%
%ADD302R,0.0163X0.0000*%
%ADD303R,0.0163X0.0000*%
%ADD304R,0.0162X0.0000*%
%ADD305R,0.0162X0.0000*%
%ADD306R,0.0161X0.0000*%
%ADD307R,0.0161X0.0000*%
%ADD308R,0.0160X0.0000*%
%ADD309R,0.0160X0.0000*%
%ADD310R,0.0160X0.0000*%
%ADD311R,0.0159X0.0000*%
%ADD312R,0.0159X0.0000*%
%ADD313R,0.0158X0.0000*%
%ADD314R,0.0158X0.0000*%
%ADD315R,0.0158X0.0000*%
%ADD316R,0.0157X0.0000*%
%ADD317R,0.0156X0.0000*%
%ADD318R,0.0156X0.0000*%
%ADD319R,0.0157X0.0000*%
%ADD320R,0.0155X0.0000*%
%ADD321R,0.0155X0.0000*%
%ADD322R,0.0155X0.0000*%
%ADD323R,0.0154X0.0000*%
%ADD324R,0.0153X0.0000*%
%ADD325R,0.0153X0.0000*%
%ADD326R,0.0154X0.0000*%
%ADD327R,0.0152X0.0000*%
%ADD328R,0.0152X0.0000*%
%ADD329R,0.0151X0.0000*%
%ADD330R,0.0151X0.0000*%
%ADD331R,0.0150X0.0000*%
%ADD332R,0.0150X0.0000*%
%ADD333R,0.0150X0.0000*%
%ADD334R,0.0152X0.0000*%
%ADD335R,0.0149X0.0000*%
%ADD336R,0.0148X0.0000*%
%ADD337R,0.0148X0.0000*%
%ADD338R,0.0260X0.0000*%
%ADD339R,0.0259X0.0000*%
%ADD340R,0.0868X0.0000*%
%ADD341R,0.0321X0.0000*%
%ADD342R,0.0305X0.0000*%
%ADD343R,0.0867X0.0000*%
%ADD344R,0.0867X0.0000*%
%ADD345R,0.0866X0.0000*%
%ADD346R,0.0866X0.0000*%
%ADD347R,0.0865X0.0000*%
%ADD348R,0.0865X0.0000*%
%ADD349R,0.0864X0.0000*%
%ADD350R,0.0864X0.0000*%
%ADD351R,0.0863X0.0000*%
%ADD352R,0.0863X0.0000*%
%ADD353R,0.0862X0.0000*%
%ADD354R,0.0862X0.0000*%
%ADD355R,0.0861X0.0000*%
%ADD356R,0.0861X0.0000*%
%ADD357R,0.0860X0.0000*%
%ADD358R,0.0859X0.0000*%
%ADD359R,0.0858X0.0000*%
%ADD360R,0.0857X0.0000*%
%ADD361R,0.0856X0.0000*%
%ADD362R,0.0855X0.0000*%
%ADD363R,0.0855X0.0000*%
%ADD364R,0.0855X0.0000*%
%ADD365R,0.0854X0.0000*%
%ADD366R,0.0853X0.0000*%
%ADD367R,0.0853X0.0000*%
%ADD368R,0.0853X0.0000*%
%ADD369R,0.0852X0.0000*%
%ADD370R,0.0852X0.0000*%
%ADD371R,0.0851X0.0000*%
%ADD372R,0.0850X0.0000*%
%ADD373R,0.0850X0.0000*%
%ADD374R,0.0850X0.0000*%
%ADD375R,0.0849X0.0000*%
%ADD376R,0.0848X0.0000*%
%ADD377R,0.0848X0.0000*%
%ADD378R,0.0848X0.0000*%
%ADD379R,0.0847X0.0000*%
%ADD380R,0.0847X0.0000*%
%ADD381R,0.0846X0.0000*%
%ADD382R,0.0845X0.0000*%
%ADD383R,0.0845X0.0000*%
%ADD384R,0.0845X0.0000*%
%ADD385R,0.0843X0.0000*%
%ADD386R,0.0843X0.0000*%
%ADD387R,0.0841X0.0000*%
%ADD388R,0.0840X0.0000*%
%ADD389R,0.0839X0.0000*%
%ADD390R,0.0838X0.0000*%
%ADD391R,0.0837X0.0000*%
%ADD392R,0.0836X0.0000*%
%ADD393R,0.0835X0.0000*%
%ADD394R,0.0834X0.0000*%
%ADD395R,0.0833X0.0000*%
%ADD396R,0.0832X0.0000*%
%ADD397R,0.0831X0.0000*%
%ADD398R,0.0830X0.0000*%
%ADD399R,0.0829X0.0000*%
%ADD400R,0.0828X0.0000*%
%ADD401R,0.0827X0.0000*%
%ADD402R,0.0826X0.0000*%
%ADD403R,0.0825X0.0000*%
%ADD404R,0.0824X0.0000*%
%ADD405R,0.0823X0.0000*%
%ADD406R,0.0822X0.0000*%
%ADD407R,0.0821X0.0000*%
%ADD408R,0.0820X0.0000*%
%ADD409R,0.0819X0.0000*%
%ADD410R,0.0818X0.0000*%
%ADD411R,0.0817X0.0000*%
%ADD412R,0.0816X0.0000*%
%ADD413R,0.0815X0.0000*%
%ADD414R,0.0814X0.0000*%
%ADD415R,0.0813X0.0000*%
%ADD416R,0.0812X0.0000*%
%ADD417R,0.0811X0.0000*%
%ADD418R,0.0810X0.0000*%
%ADD419R,0.0808X0.0000*%
%ADD420R,0.0808X0.0000*%
%ADD421R,0.0807X0.0000*%
%ADD422R,0.0805X0.0000*%
%ADD423R,0.0805X0.0000*%
%ADD424R,0.0803X0.0000*%
%ADD425R,0.0803X0.0000*%
%ADD426R,0.0802X0.0000*%
%ADD427R,0.0800X0.0000*%
%ADD428R,0.0800X0.0000*%
%ADD429R,0.0798X0.0000*%
%ADD430R,0.0798X0.0000*%
%ADD431R,0.0797X0.0000*%
%ADD432R,0.0795X0.0000*%
%ADD433R,0.0795X0.0000*%
%ADD434R,0.0793X0.0000*%
%ADD435R,0.0793X0.0000*%
%ADD436R,0.0791X0.0000*%
%ADD437R,0.0790X0.0000*%
%ADD438R,0.0789X0.0000*%
%ADD439R,0.0788X0.0000*%
%ADD440R,0.0787X0.0000*%
%ADD441R,0.0786X0.0000*%
%ADD442R,0.0785X0.0000*%
%ADD443R,0.0784X0.0000*%
%ADD444R,0.0783X0.0000*%
%ADD445R,0.0782X0.0000*%
%ADD446R,0.0781X0.0000*%
%ADD447R,0.0780X0.0000*%
%ADD448R,0.0779X0.0000*%
%ADD449R,0.0778X0.0000*%
%ADD450R,0.0777X0.0000*%
%ADD451R,0.0776X0.0000*%
%ADD452R,0.0775X0.0000*%
%ADD453R,0.0774X0.0000*%
%ADD454R,0.0773X0.0000*%
%ADD455R,0.0772X0.0000*%
%ADD456R,0.0771X0.0000*%
%ADD457R,0.0770X0.0000*%
%ADD458R,0.0769X0.0000*%
%ADD459R,0.0768X0.0000*%
%ADD460R,0.0767X0.0000*%
%ADD461R,0.0766X0.0000*%
%ADD462R,0.0765X0.0000*%
%ADD463R,0.0764X0.0000*%
%ADD464R,0.0763X0.0000*%
%ADD465R,0.0762X0.0000*%
%ADD466R,0.0761X0.0000*%
%ADD467R,0.0760X0.0000*%
%ADD468R,0.0758X0.0000*%
%ADD469R,0.0757X0.0000*%
%ADD470R,0.0757X0.0000*%
%ADD471R,0.0755X0.0000*%
%ADD472R,0.0755X0.0000*%
%ADD473R,0.0753X0.0000*%
%ADD474R,0.0752X0.0000*%
%ADD475R,0.0752X0.0000*%
%ADD476R,0.0750X0.0000*%
%ADD477R,0.0750X0.0000*%
%ADD478R,0.0748X0.0000*%
%ADD479R,0.0747X0.0000*%
%ADD480R,0.0747X0.0000*%
%ADD481R,0.0745X0.0000*%
%ADD482R,0.0745X0.0000*%
%ADD483R,0.0743X0.0000*%
%ADD484R,0.0742X0.0000*%
%ADD485R,0.0741X0.0000*%
%ADD486R,0.0740X0.0000*%
%ADD487R,0.0739X0.0000*%
%ADD488R,0.0738X0.0000*%
%ADD489R,0.0737X0.0000*%
%ADD490R,0.0736X0.0000*%
%ADD491R,0.0735X0.0000*%
%ADD492R,0.0734X0.0000*%
%ADD493R,0.0733X0.0000*%
%ADD494R,0.0732X0.0000*%
%ADD495R,0.0731X0.0000*%
%ADD496R,0.0730X0.0000*%
%ADD497R,0.0729X0.0000*%
%ADD498R,0.0728X0.0000*%
%ADD499R,0.0727X0.0000*%
%ADD500R,0.0726X0.0000*%
%ADD501R,0.0725X0.0000*%
%ADD502R,0.0724X0.0000*%
%ADD503R,0.0723X0.0000*%
%ADD504R,0.0722X0.0000*%
%ADD505R,0.0721X0.0000*%
%ADD506R,0.0720X0.0000*%
%ADD507R,0.0719X0.0000*%
%ADD508R,0.0718X0.0000*%
%ADD509R,0.0717X0.0000*%
%ADD510R,0.0716X0.0000*%
%ADD511R,0.0715X0.0000*%
%ADD512R,0.0714X0.0000*%
%ADD513R,0.0713X0.0000*%
%ADD514R,0.0712X0.0000*%
%ADD515R,0.0711X0.0000*%
%ADD516R,0.0710X0.0000*%
%ADD517R,0.0709X0.0000*%
%ADD518R,0.0707X0.0000*%
%ADD519R,0.0707X0.0000*%
%ADD520R,0.0705X0.0000*%
%ADD521R,0.0705X0.0000*%
%ADD522R,0.0703X0.0000*%
%ADD523R,0.0703X0.0000*%
%ADD524R,0.0702X0.0000*%
%ADD525R,0.0700X0.0000*%
%ADD526R,0.0700X0.0000*%
%ADD527R,0.0698X0.0000*%
%ADD528R,0.0698X0.0000*%
%ADD529R,0.0697X0.0000*%
%ADD530R,0.0695X0.0000*%
%ADD531R,0.0695X0.0000*%
%ADD532R,0.0693X0.0000*%
%ADD533R,0.0692X0.0000*%
%ADD534R,0.0691X0.0000*%
%ADD535R,0.0690X0.0000*%
%ADD536R,0.0689X0.0000*%
%ADD537R,0.0688X0.0000*%
%ADD538R,0.0687X0.0000*%
%ADD539R,0.0686X0.0000*%
%ADD540R,0.0685X0.0000*%
%ADD541R,0.0684X0.0000*%
%ADD542R,0.0683X0.0000*%
%ADD543R,0.0682X0.0000*%
%ADD544R,0.0681X0.0000*%
%ADD545R,0.0680X0.0000*%
%ADD546R,0.0679X0.0000*%
%ADD547R,0.0678X0.0000*%
%ADD548R,0.0677X0.0000*%
%ADD549R,0.0676X0.0000*%
%ADD550R,0.0675X0.0000*%
%ADD551R,0.0674X0.0000*%
%ADD552R,0.0673X0.0000*%
%ADD553R,0.0672X0.0000*%
%ADD554R,0.0671X0.0000*%
%ADD555R,0.0670X0.0000*%
%ADD556R,0.0669X0.0000*%
%ADD557R,0.0668X0.0000*%
%ADD558R,0.0667X0.0000*%
%ADD559R,0.0666X0.0000*%
%ADD560R,0.0665X0.0000*%
%ADD561R,0.0664X0.0000*%
%ADD562R,0.0663X0.0000*%
%ADD563R,0.0662X0.0000*%
%ADD564R,0.0661X0.0000*%
%ADD565R,0.0660X0.0000*%
%ADD566R,0.0659X0.0000*%
%ADD567R,0.0658X0.0000*%
%ADD568R,0.0657X0.0000*%
%ADD569R,0.0655X0.0000*%
%ADD570R,0.0655X0.0000*%
%ADD571R,0.0653X0.0000*%
%ADD572R,0.0653X0.0000*%
%ADD573R,0.0652X0.0000*%
%ADD574R,0.0650X0.0000*%
%ADD575R,0.0650X0.0000*%
%ADD576R,0.0648X0.0000*%
%ADD577R,0.0648X0.0000*%
%ADD578R,0.0647X0.0000*%
%ADD579R,0.0645X0.0000*%
%ADD580R,0.0645X0.0000*%
%ADD581R,0.0643X0.0000*%
%ADD582R,0.0642X0.0000*%
%ADD583R,0.0641X0.0000*%
%ADD584R,0.0640X0.0000*%
%ADD585R,0.0639X0.0000*%
%ADD586R,0.0638X0.0000*%
%ADD587R,0.0637X0.0000*%
%ADD588R,0.0636X0.0000*%
%ADD589R,0.0635X0.0000*%
%ADD590R,0.0634X0.0000*%
%ADD591R,0.0633X0.0000*%
%ADD592R,0.0632X0.0000*%
%ADD593R,0.0631X0.0000*%
%ADD594R,0.0630X0.0000*%
%ADD595R,0.0629X0.0000*%
%ADD596R,0.0628X0.0000*%
%ADD597R,0.0627X0.0000*%
%ADD598R,0.0626X0.0000*%
%ADD599R,0.0625X0.0000*%
%ADD600R,0.0624X0.0000*%
%ADD601R,0.0623X0.0000*%
%ADD602R,0.0622X0.0000*%
%ADD603R,0.0621X0.0000*%
%ADD604R,0.0620X0.0000*%
%ADD605R,0.0619X0.0000*%
%ADD606R,0.0618X0.0000*%
%ADD607R,0.0617X0.0000*%
%ADD608R,0.0616X0.0000*%
%ADD609R,0.0615X0.0000*%
%ADD610R,0.0614X0.0000*%
%ADD611R,0.0613X0.0000*%
%ADD612R,0.0612X0.0000*%
%ADD613R,0.0611X0.0000*%
%ADD614R,0.0610X0.0000*%
%ADD615R,0.0609X0.0000*%
%ADD616R,0.0607X0.0000*%
%ADD617R,0.0607X0.0000*%
%ADD618R,0.0605X0.0000*%
%ADD619R,0.0605X0.0000*%
%ADD620R,0.0603X0.0000*%
%ADD621R,0.0602X0.0000*%
%ADD622R,0.0602X0.0000*%
%ADD623R,0.0600X0.0000*%
%ADD624R,0.0600X0.0000*%
%ADD625R,0.0598X0.0000*%
%ADD626R,0.0597X0.0000*%
%ADD627R,0.0597X0.0000*%
%ADD628R,0.0595X0.0000*%
%ADD629R,0.0595X0.0000*%
%ADD630R,0.0593X0.0000*%
%ADD631R,0.0592X0.0000*%
%ADD632R,0.0591X0.0000*%
%ADD633R,0.0590X0.0000*%
%ADD634R,0.0589X0.0000*%
%ADD635R,0.0588X0.0000*%
%ADD636R,0.0587X0.0000*%
%ADD637R,0.0586X0.0000*%
%ADD638R,0.0585X0.0000*%
%ADD639R,0.0584X0.0000*%
%ADD640R,0.0583X0.0000*%
%ADD641R,0.0582X0.0000*%
%ADD642R,0.0581X0.0000*%
%ADD643R,0.0580X0.0000*%
%ADD644R,0.0579X0.0000*%
%ADD645R,0.0578X0.0000*%
%ADD646R,0.0577X0.0000*%
%ADD647R,0.0576X0.0000*%
%ADD648R,0.0575X0.0000*%
%ADD649R,0.0574X0.0000*%
%ADD650R,0.0573X0.0000*%
%ADD651R,0.0571X0.0000*%
%ADD652R,0.0568X0.0000*%
%ADD653R,0.0565X0.0000*%
%ADD654R,0.0563X0.0000*%
%ADD655R,0.0560X0.0000*%
%ADD656R,0.0557X0.0000*%
%ADD657R,0.0554X0.0000*%
%ADD658R,0.0551X0.0000*%
%ADD659R,0.0548X0.0000*%
%ADD660R,0.0545X0.0000*%
%ADD661R,0.0542X0.0000*%
%ADD662R,0.0537X0.0000*%
%ADD663R,0.0533X0.0000*%
%ADD664R,0.0530X0.0000*%
%ADD665R,0.0526X0.0000*%
%ADD666R,0.0522X0.0000*%
%ADD667R,0.0518X0.0000*%
%ADD668R,0.0513X0.0000*%
%ADD669R,0.0508X0.0000*%
%ADD670R,0.0503X0.0000*%
%ADD671R,0.0496X0.0000*%
%ADD672R,0.0488X0.0000*%
%ADD673R,0.0477X0.0000*%
%ADD674C,0.0000*%
%ADD675C,0.0030*%
D10*
X003281Y001902D03*
D11*
X002664Y001902D03*
D12*
X002664Y001902D03*
X002664Y002154D03*
X003281Y001902D03*
D13*
X003281Y001903D03*
D14*
X002664Y001903D03*
X002664Y002154D03*
D15*
X003281Y001903D03*
D16*
X002664Y001903D03*
X002664Y002153D03*
D17*
X002664Y002153D03*
X002664Y001904D03*
X003281Y001904D03*
D18*
X003281Y001904D03*
D19*
X002664Y001904D03*
X002664Y002152D03*
D20*
X002664Y002152D03*
X002664Y001905D03*
X003281Y001905D03*
D21*
X003281Y001905D03*
X002664Y001905D03*
X002664Y002151D03*
D22*
X002664Y002151D03*
X002664Y001906D03*
X003281Y001906D03*
D23*
X003281Y001906D03*
X002664Y001906D03*
X002664Y002150D03*
D24*
X002664Y002150D03*
X003281Y001907D03*
D25*
X002664Y001907D03*
D26*
X003281Y001907D03*
X003281Y002146D03*
D27*
X002664Y002149D03*
X002664Y001907D03*
D28*
X002664Y001908D03*
X003281Y001908D03*
D29*
X003281Y001908D03*
X002664Y001908D03*
X002664Y002148D03*
D30*
X002664Y002148D03*
X002664Y001909D03*
X003281Y001909D03*
D31*
X003281Y001909D03*
X002664Y001909D03*
X002664Y002147D03*
D32*
X003281Y001910D03*
D33*
X002664Y001910D03*
X002664Y002147D03*
D34*
X002664Y002146D03*
X002664Y001910D03*
X003281Y001910D03*
D35*
X003281Y001911D03*
X003281Y002142D03*
X002664Y001911D03*
D36*
X003281Y001911D03*
X003281Y002142D03*
D37*
X002664Y002145D03*
X002664Y001911D03*
D38*
X002664Y001912D03*
X002664Y002145D03*
X003281Y001912D03*
D39*
X003281Y001912D03*
X003281Y002141D03*
D40*
X003281Y002141D03*
X002664Y002144D03*
X002664Y001912D03*
D41*
X003281Y001913D03*
X003281Y002140D03*
D42*
X002664Y002144D03*
X002664Y001913D03*
D43*
X002664Y001914D03*
X002664Y002143D03*
X003281Y002140D03*
X003281Y001914D03*
X003281Y001913D03*
D44*
X002664Y001913D03*
X002664Y002143D03*
D45*
X002664Y002142D03*
X002664Y001915D03*
X002664Y001914D03*
X003281Y001914D03*
X003281Y002139D03*
D46*
X003281Y002138D03*
X003281Y001915D03*
D47*
X003281Y001915D03*
X003281Y002138D03*
X002664Y002141D03*
X002664Y001915D03*
D48*
X002664Y001916D03*
X002664Y002141D03*
X003281Y002137D03*
X003281Y001916D03*
D49*
X003281Y001916D03*
X003281Y002137D03*
X002664Y002140D03*
X002664Y002140D03*
X002664Y001917D03*
X002664Y001916D03*
D50*
X003281Y001917D03*
X003281Y002136D03*
D51*
X003281Y002136D03*
X003281Y001918D03*
X003281Y001917D03*
D52*
X002664Y001918D03*
X002664Y001917D03*
X002664Y002139D03*
X002664Y002139D03*
D53*
X002664Y002138D03*
X002664Y002137D03*
X002664Y001919D03*
X002664Y001919D03*
X003281Y001919D03*
X003281Y001919D03*
X003281Y001918D03*
X003281Y002134D03*
X003281Y002135D03*
D54*
X003281Y002135D03*
X002664Y002138D03*
X002664Y001918D03*
D55*
X002664Y001920D03*
X002664Y002137D03*
X003281Y002134D03*
X003281Y001920D03*
D56*
X003281Y001920D03*
X003281Y001921D03*
X003281Y002132D03*
X003281Y002133D03*
X003281Y002133D03*
X002664Y002135D03*
X002664Y002136D03*
X002664Y002136D03*
X002664Y001921D03*
X002664Y001921D03*
X002664Y001920D03*
D57*
X003281Y001921D03*
X003281Y001922D03*
X003281Y002132D03*
D58*
X002664Y002135D03*
X002664Y001922D03*
D59*
X002664Y001922D03*
X002664Y001923D03*
X002664Y001923D03*
X002664Y001924D03*
X002664Y001924D03*
X002664Y002132D03*
X002664Y002133D03*
X002664Y002133D03*
X002664Y002134D03*
X002664Y002134D03*
X003281Y002131D03*
X003281Y002131D03*
X003281Y002130D03*
X003281Y002130D03*
X003281Y002129D03*
X003281Y001924D03*
X003281Y001923D03*
X003281Y001923D03*
X003281Y001922D03*
D60*
X003281Y001924D03*
X003281Y001925D03*
X003281Y001925D03*
X003281Y001926D03*
X003281Y001926D03*
X003281Y001927D03*
X003281Y001927D03*
X003281Y001928D03*
X003281Y001928D03*
X003281Y001929D03*
X003281Y001929D03*
X003281Y001930D03*
X003281Y001930D03*
X003281Y001931D03*
X003281Y001931D03*
X003281Y001932D03*
X003281Y001932D03*
X003281Y001933D03*
X003281Y001933D03*
X003281Y001934D03*
X003281Y001934D03*
X003281Y001935D03*
X003281Y001935D03*
X003281Y001936D03*
X003281Y001936D03*
X003281Y001937D03*
X003281Y001937D03*
X003281Y001938D03*
X003281Y001938D03*
X003281Y001939D03*
X003281Y001939D03*
X003281Y001940D03*
X003281Y001940D03*
X003281Y001941D03*
X003281Y001941D03*
X003281Y001942D03*
X003281Y001942D03*
X003281Y001943D03*
X003281Y001943D03*
X003281Y001944D03*
X003281Y001944D03*
X003281Y001945D03*
X003281Y001945D03*
X003281Y001946D03*
X003281Y001946D03*
X003281Y001947D03*
X003281Y001947D03*
X003281Y001948D03*
X003281Y001948D03*
X003281Y001949D03*
X003281Y001949D03*
X003281Y001950D03*
X003281Y001950D03*
X003281Y001951D03*
X003281Y001951D03*
X003281Y001952D03*
X003281Y001952D03*
X003281Y001953D03*
X003281Y001953D03*
X003281Y001954D03*
X003281Y001954D03*
X003281Y001955D03*
X003281Y001955D03*
X003281Y001956D03*
X003281Y001956D03*
X003281Y001957D03*
X003281Y001957D03*
X003281Y001958D03*
X003281Y001958D03*
X003281Y001959D03*
X003281Y001959D03*
X003281Y001960D03*
X003281Y001960D03*
X003281Y001961D03*
X003281Y001961D03*
X003281Y001962D03*
X003281Y001962D03*
X003281Y001963D03*
X003281Y001963D03*
X003281Y001964D03*
X003281Y001964D03*
X003281Y001965D03*
X003281Y001965D03*
X003281Y001966D03*
X003281Y001966D03*
X003281Y001967D03*
X003281Y001967D03*
X003281Y001968D03*
X003281Y001968D03*
X003281Y001969D03*
X003281Y001969D03*
X003281Y001970D03*
X003281Y001970D03*
X003281Y001971D03*
X003281Y001971D03*
X003281Y001972D03*
X003281Y001972D03*
X003281Y001973D03*
X003281Y001973D03*
X003281Y001974D03*
X003281Y001974D03*
X003281Y001975D03*
X003281Y001975D03*
X003281Y001976D03*
X003281Y001976D03*
X003281Y001977D03*
X003281Y001977D03*
X003281Y001978D03*
X003281Y001978D03*
X003281Y001979D03*
X003281Y001979D03*
X003281Y001980D03*
X003281Y001980D03*
X003281Y001981D03*
X003281Y001981D03*
X003281Y001982D03*
X003281Y001982D03*
X003281Y001983D03*
X003281Y001983D03*
X003281Y001984D03*
X003281Y001984D03*
X003281Y001985D03*
X003281Y001985D03*
X003281Y001986D03*
X003281Y001986D03*
X003281Y001987D03*
X003281Y001987D03*
X003281Y001988D03*
X003281Y001988D03*
X003281Y001989D03*
X003281Y001989D03*
X003281Y001990D03*
X003281Y001990D03*
X003281Y001991D03*
X003281Y001991D03*
X003281Y001992D03*
X003281Y001992D03*
X003281Y001993D03*
X003281Y001993D03*
X003281Y001994D03*
X003281Y001994D03*
X003281Y001995D03*
X003281Y001995D03*
X003281Y001996D03*
X003281Y001996D03*
X003281Y001997D03*
X003281Y001997D03*
X003281Y001998D03*
X003281Y001998D03*
X003281Y001999D03*
X003281Y001999D03*
X003281Y002000D03*
X003281Y002000D03*
X003281Y002001D03*
X003281Y002001D03*
X003281Y002002D03*
X003281Y002002D03*
X003281Y002003D03*
X003281Y002003D03*
X003281Y002004D03*
X003281Y002004D03*
X003281Y002005D03*
X003281Y002005D03*
X003281Y002006D03*
X003281Y002006D03*
X003281Y002007D03*
X003281Y002007D03*
X003281Y002008D03*
X003281Y002008D03*
X003281Y002009D03*
X003281Y002009D03*
X003281Y002010D03*
X003281Y002010D03*
X003281Y002011D03*
X003281Y002011D03*
X003281Y002012D03*
X003281Y002012D03*
X003281Y002013D03*
X003281Y002013D03*
X003281Y002014D03*
X003281Y002014D03*
X003281Y002015D03*
X003281Y002015D03*
X003281Y002016D03*
X003281Y002016D03*
X003281Y002017D03*
X003281Y002017D03*
X003281Y002018D03*
X003281Y002018D03*
X003281Y002019D03*
X003281Y002019D03*
X003281Y002020D03*
X003281Y002020D03*
X003281Y002021D03*
X003281Y002021D03*
X003281Y002022D03*
X003281Y002022D03*
X003281Y002023D03*
X003281Y002023D03*
X003281Y002024D03*
X003281Y002024D03*
X003281Y002025D03*
X003281Y002025D03*
X003281Y002026D03*
X003281Y002026D03*
X003281Y002027D03*
X003281Y002027D03*
X003281Y002028D03*
X003281Y002028D03*
X003281Y002029D03*
X003281Y002029D03*
X003281Y002030D03*
X003281Y002030D03*
X003281Y002031D03*
X003281Y002031D03*
X003281Y002032D03*
X003281Y002032D03*
X003281Y002033D03*
X003281Y002033D03*
X003281Y002034D03*
X003281Y002034D03*
X003281Y002035D03*
X003281Y002035D03*
X003281Y002036D03*
X003281Y002036D03*
X003281Y002037D03*
X003281Y002037D03*
X003281Y002038D03*
X003281Y002038D03*
X003281Y002039D03*
X003281Y002039D03*
X003281Y002040D03*
X003281Y002040D03*
X003281Y002041D03*
X003281Y002041D03*
X003281Y002042D03*
X003281Y002042D03*
X003281Y002043D03*
X003281Y002043D03*
X003281Y002044D03*
X003281Y002044D03*
X003281Y002045D03*
X003281Y002045D03*
X003281Y002046D03*
X003281Y002046D03*
X003281Y002047D03*
X003281Y002047D03*
X003281Y002048D03*
X003281Y002048D03*
X003281Y002049D03*
X003281Y002049D03*
X003281Y002050D03*
X003281Y002050D03*
X003281Y002051D03*
X003281Y002051D03*
X003281Y002052D03*
X003281Y002052D03*
X003281Y002053D03*
X003281Y002053D03*
X003281Y002054D03*
X003281Y002054D03*
X003281Y002055D03*
X003281Y002055D03*
X003281Y002056D03*
X003281Y002056D03*
X003281Y002057D03*
X003281Y002057D03*
X003281Y002058D03*
X003281Y002058D03*
X003281Y002059D03*
X003281Y002059D03*
X003281Y002060D03*
X003281Y002060D03*
X003281Y002061D03*
X003281Y002061D03*
X003281Y002062D03*
X003281Y002062D03*
X003281Y002063D03*
X003281Y002063D03*
X003281Y002064D03*
X003281Y002064D03*
X003281Y002065D03*
X003281Y002065D03*
X003281Y002066D03*
X003281Y002066D03*
X003281Y002067D03*
X003281Y002067D03*
X003281Y002068D03*
X003281Y002068D03*
X003281Y002069D03*
X003281Y002069D03*
X003281Y002070D03*
X003281Y002070D03*
X003281Y002071D03*
X003281Y002071D03*
X003281Y002072D03*
X003281Y002072D03*
X003281Y002073D03*
X003281Y002073D03*
X003281Y002074D03*
X003281Y002074D03*
X003281Y002075D03*
X003281Y002075D03*
X003281Y002076D03*
X003281Y002076D03*
X003281Y002077D03*
X003281Y002077D03*
X003281Y002078D03*
X003281Y002078D03*
X003281Y002079D03*
X003281Y002079D03*
X003281Y002080D03*
X003281Y002080D03*
X003281Y002081D03*
X003281Y002081D03*
X003281Y002082D03*
X003281Y002082D03*
X003281Y002083D03*
X003281Y002083D03*
X003281Y002084D03*
X003281Y002084D03*
X003281Y002085D03*
X003281Y002085D03*
X003281Y002086D03*
X003281Y002086D03*
X003281Y002087D03*
X003281Y002087D03*
X003281Y002088D03*
X003281Y002088D03*
X003281Y002089D03*
X003281Y002089D03*
X003281Y002090D03*
X003281Y002090D03*
X003281Y002091D03*
X003281Y002091D03*
X003281Y002092D03*
X003281Y002092D03*
X003281Y002093D03*
X003281Y002093D03*
X003281Y002094D03*
X003281Y002094D03*
X003281Y002095D03*
X003281Y002095D03*
X003281Y002096D03*
X003281Y002096D03*
X003281Y002097D03*
X003281Y002097D03*
X003281Y002098D03*
X003281Y002098D03*
X003281Y002099D03*
X003281Y002099D03*
X003281Y002100D03*
X003281Y002100D03*
X003281Y002101D03*
X003281Y002101D03*
X003281Y002102D03*
X003281Y002102D03*
X003281Y002103D03*
X003281Y002103D03*
X003281Y002104D03*
X003281Y002104D03*
X003281Y002105D03*
X003281Y002105D03*
X003281Y002106D03*
X003281Y002106D03*
X003281Y002107D03*
X003281Y002107D03*
X003281Y002108D03*
X003281Y002108D03*
X003281Y002109D03*
X003281Y002109D03*
X003281Y002110D03*
X003281Y002110D03*
X003281Y002111D03*
X003281Y002111D03*
X003281Y002112D03*
X003281Y002112D03*
X003281Y002113D03*
X003281Y002113D03*
X003281Y002114D03*
X003281Y002114D03*
X003281Y002115D03*
X003281Y002115D03*
X003281Y002116D03*
X003281Y002116D03*
X003281Y002117D03*
X003281Y002117D03*
X003281Y002118D03*
X003281Y002118D03*
X003281Y002119D03*
X003281Y002119D03*
X003281Y002120D03*
X003281Y002120D03*
X003281Y002121D03*
X003281Y002121D03*
X003281Y002122D03*
X003281Y002122D03*
X003281Y002123D03*
X003281Y002123D03*
X003281Y002124D03*
X003281Y002124D03*
X003281Y002125D03*
X003281Y002125D03*
X003281Y002126D03*
X003281Y002126D03*
X003281Y002127D03*
X003281Y002127D03*
X003281Y002128D03*
X003281Y002128D03*
X003281Y002129D03*
X002664Y002130D03*
X002664Y002130D03*
X002664Y002129D03*
X002664Y002129D03*
X002664Y002128D03*
X002664Y002128D03*
X002664Y002127D03*
X002664Y002127D03*
X002664Y002126D03*
X002664Y002126D03*
X002664Y002125D03*
X002664Y002125D03*
X002664Y002124D03*
X002664Y002124D03*
X002664Y002123D03*
X002664Y002123D03*
X002664Y002122D03*
X002664Y002122D03*
X002664Y002121D03*
X002664Y002121D03*
X002664Y002120D03*
X002664Y002120D03*
X002664Y002119D03*
X002664Y002119D03*
X002664Y002118D03*
X002664Y002118D03*
X002664Y002117D03*
X002664Y002117D03*
X002664Y002116D03*
X002664Y002116D03*
X002664Y002115D03*
X002664Y002115D03*
X002664Y002114D03*
X002664Y002114D03*
X002664Y002113D03*
X002664Y002113D03*
X002664Y002112D03*
X002664Y002112D03*
X002664Y002111D03*
X002664Y002111D03*
X002664Y002110D03*
X002664Y002110D03*
X002664Y002109D03*
X002664Y002109D03*
X002664Y002108D03*
X002664Y002108D03*
X002664Y002107D03*
X002664Y002107D03*
X002664Y002106D03*
X002664Y002106D03*
X002664Y002105D03*
X002664Y002105D03*
X002664Y002104D03*
X002664Y002104D03*
X002664Y002103D03*
X002664Y002103D03*
X002664Y002102D03*
X002664Y002102D03*
X002664Y002101D03*
X002664Y002101D03*
X002664Y002100D03*
X002664Y002100D03*
X002664Y002099D03*
X002664Y002099D03*
X002664Y002098D03*
X002664Y002098D03*
X002664Y002097D03*
X002664Y002097D03*
X002664Y002096D03*
X002664Y002096D03*
X002664Y002095D03*
X002664Y002095D03*
X002664Y002094D03*
X002664Y002094D03*
X002664Y002093D03*
X002664Y002093D03*
X002664Y002092D03*
X002664Y002092D03*
X002664Y002091D03*
X002664Y002091D03*
X002664Y002090D03*
X002664Y002090D03*
X002664Y002089D03*
X002664Y002089D03*
X002664Y002088D03*
X002664Y002088D03*
X002664Y002087D03*
X002664Y002087D03*
X002664Y002086D03*
X002664Y002086D03*
X002664Y002085D03*
X002664Y002085D03*
X002664Y002084D03*
X002664Y002084D03*
X002664Y002083D03*
X002664Y002083D03*
X002664Y002082D03*
X002664Y002082D03*
X002664Y002081D03*
X002664Y002081D03*
X002664Y002080D03*
X002664Y002080D03*
X002664Y002079D03*
X002664Y002079D03*
X002664Y002078D03*
X002664Y002078D03*
X002664Y002077D03*
X002664Y002077D03*
X002664Y002076D03*
X002664Y002076D03*
X002664Y002075D03*
X002664Y002075D03*
X002664Y002074D03*
X002664Y002074D03*
X002664Y002073D03*
X002664Y002073D03*
X002664Y002072D03*
X002664Y002072D03*
X002664Y002071D03*
X002664Y002071D03*
X002664Y002070D03*
X002664Y002070D03*
X002664Y002069D03*
X002664Y002069D03*
X002664Y002068D03*
X002664Y002068D03*
X002664Y002067D03*
X002664Y002067D03*
X002664Y002066D03*
X002664Y002066D03*
X002664Y002065D03*
X002664Y002065D03*
X002664Y002064D03*
X002664Y002064D03*
X002664Y002063D03*
X002664Y002063D03*
X002664Y002062D03*
X002664Y002062D03*
X002664Y002061D03*
X002664Y002061D03*
X002664Y002060D03*
X002664Y002060D03*
X002664Y002059D03*
X002664Y002059D03*
X002664Y002058D03*
X002664Y002058D03*
X002664Y002057D03*
X002664Y002057D03*
X002664Y002056D03*
X002664Y002056D03*
X002664Y002055D03*
X002664Y002055D03*
X002664Y002054D03*
X002664Y002054D03*
X002664Y002053D03*
X002664Y002053D03*
X002664Y002052D03*
X002664Y002052D03*
X002664Y002051D03*
X002664Y002051D03*
X002664Y002050D03*
X002664Y002050D03*
X002664Y002049D03*
X002664Y002049D03*
X002664Y002048D03*
X002664Y002048D03*
X002664Y002047D03*
X002664Y002047D03*
X002664Y002046D03*
X002664Y002046D03*
X002664Y002045D03*
X002664Y002045D03*
X002664Y002044D03*
X002664Y002044D03*
X002664Y002043D03*
X002664Y002043D03*
X002664Y002042D03*
X002664Y002042D03*
X002664Y002041D03*
X002664Y002041D03*
X002664Y002040D03*
X002664Y002040D03*
X002664Y002039D03*
X002664Y002039D03*
X002664Y002038D03*
X002664Y002038D03*
X002664Y002037D03*
X002664Y002037D03*
X002664Y002036D03*
X002664Y002036D03*
X002664Y002035D03*
X002664Y002035D03*
X002664Y002034D03*
X002664Y002034D03*
X002664Y002033D03*
X002664Y002033D03*
X002664Y002032D03*
X002664Y002032D03*
X002664Y002031D03*
X002664Y002031D03*
X002664Y002030D03*
X002664Y002030D03*
X002664Y002029D03*
X002664Y002029D03*
X002664Y002028D03*
X002664Y002028D03*
X002664Y002027D03*
X002664Y002027D03*
X002664Y002026D03*
X002664Y002026D03*
X002664Y002025D03*
X002664Y002025D03*
X002664Y002024D03*
X002664Y002024D03*
X002664Y002023D03*
X002664Y002023D03*
X002664Y002022D03*
X002664Y002022D03*
X002664Y002021D03*
X002664Y002021D03*
X002664Y002020D03*
X002664Y002020D03*
X002664Y002019D03*
X002664Y002019D03*
X002664Y002018D03*
X002664Y002018D03*
X002664Y002017D03*
X002664Y002017D03*
X002664Y002016D03*
X002664Y002016D03*
X002664Y002015D03*
X002664Y002015D03*
X002664Y002014D03*
X002664Y002014D03*
X002664Y002013D03*
X002664Y002013D03*
X002664Y002012D03*
X002664Y002012D03*
X002664Y002011D03*
X002664Y002011D03*
X002664Y002010D03*
X002664Y002010D03*
X002664Y002009D03*
X002664Y002009D03*
X002664Y002008D03*
X002664Y002008D03*
X002664Y002007D03*
X002664Y002007D03*
X002664Y002006D03*
X002664Y002006D03*
X002664Y002005D03*
X002664Y002005D03*
X002664Y002004D03*
X002664Y002004D03*
X002664Y002003D03*
X002664Y002003D03*
X002664Y002002D03*
X002664Y002002D03*
X002664Y002001D03*
X002664Y002001D03*
X002664Y002000D03*
X002664Y002000D03*
X002664Y001999D03*
X002664Y001999D03*
X002664Y001998D03*
X002664Y001998D03*
X002664Y001997D03*
X002664Y001997D03*
X002664Y001996D03*
X002664Y001996D03*
X002664Y001995D03*
X002664Y001995D03*
X002664Y001994D03*
X002664Y001994D03*
X002664Y001993D03*
X002664Y001993D03*
X002664Y001992D03*
X002664Y001992D03*
X002664Y001991D03*
X002664Y001991D03*
X002664Y001990D03*
X002664Y001990D03*
X002664Y001989D03*
X002664Y001989D03*
X002664Y001988D03*
X002664Y001988D03*
X002664Y001987D03*
X002664Y001987D03*
X002664Y001986D03*
X002664Y001986D03*
X002664Y001985D03*
X002664Y001985D03*
X002664Y001984D03*
X002664Y001984D03*
X002664Y001983D03*
X002664Y001983D03*
X002664Y001982D03*
X002664Y001982D03*
X002664Y001981D03*
X002664Y001981D03*
X002664Y001980D03*
X002664Y001980D03*
X002664Y001979D03*
X002664Y001979D03*
X002664Y001978D03*
X002664Y001978D03*
X002664Y001977D03*
X002664Y001977D03*
X002664Y001976D03*
X002664Y001976D03*
X002664Y001975D03*
X002664Y001975D03*
X002664Y001974D03*
X002664Y001974D03*
X002664Y001973D03*
X002664Y001973D03*
X002664Y001972D03*
X002664Y001972D03*
X002664Y001971D03*
X002664Y001971D03*
X002664Y001970D03*
X002664Y001970D03*
X002664Y001969D03*
X002664Y001969D03*
X002664Y001968D03*
X002664Y001968D03*
X002664Y001967D03*
X002664Y001967D03*
X002664Y001966D03*
X002664Y001966D03*
X002664Y001965D03*
X002664Y001965D03*
X002664Y001964D03*
X002664Y001964D03*
X002664Y001963D03*
X002664Y001963D03*
X002664Y001962D03*
X002664Y001962D03*
X002664Y001961D03*
X002664Y001961D03*
X002664Y001960D03*
X002664Y001960D03*
X002664Y001959D03*
X002664Y001959D03*
X002664Y001958D03*
X002664Y001958D03*
X002664Y001957D03*
X002664Y001957D03*
X002664Y001956D03*
X002664Y001956D03*
X002664Y001955D03*
X002664Y001955D03*
X002664Y001954D03*
X002664Y001954D03*
X002664Y001953D03*
X002664Y001953D03*
X002664Y001952D03*
X002664Y001952D03*
X002664Y001951D03*
X002664Y001951D03*
X002664Y001950D03*
X002664Y001950D03*
X002664Y001949D03*
X002664Y001949D03*
X002664Y001948D03*
X002664Y001948D03*
X002664Y001947D03*
X002664Y001947D03*
X002664Y001946D03*
X002664Y001946D03*
X002664Y001945D03*
X002664Y001945D03*
X002664Y001944D03*
X002664Y001944D03*
X002664Y001943D03*
X002664Y001943D03*
X002664Y001942D03*
X002664Y001942D03*
X002664Y001941D03*
X002664Y001941D03*
X002664Y001940D03*
X002664Y001940D03*
X002664Y001939D03*
X002664Y001939D03*
X002664Y001938D03*
X002664Y001938D03*
X002664Y001937D03*
X002664Y001937D03*
X002664Y001936D03*
X002664Y001936D03*
X002664Y001935D03*
X002664Y001935D03*
X002664Y001934D03*
X002664Y001934D03*
X002664Y001933D03*
X002664Y001933D03*
X002664Y001932D03*
X002664Y001932D03*
X002664Y001931D03*
X002664Y001931D03*
X002664Y001930D03*
X002664Y001930D03*
X002664Y001929D03*
X002664Y001929D03*
X002664Y001928D03*
X002664Y001928D03*
X002664Y001927D03*
X002664Y001927D03*
X002664Y001926D03*
X002664Y001926D03*
X002664Y001925D03*
X002664Y001925D03*
X002664Y002131D03*
X002664Y002131D03*
X002664Y002132D03*
D61*
X002664Y002142D03*
X003281Y002139D03*
D62*
X003281Y002143D03*
X002664Y002146D03*
D63*
X003281Y002143D03*
D64*
X003281Y002144D03*
D65*
X003281Y002144D03*
D66*
X003281Y002145D03*
D67*
X003281Y002145D03*
D68*
X003281Y002146D03*
D69*
X003281Y002147D03*
D70*
X003281Y002147D03*
D71*
X003281Y002148D03*
D72*
X003281Y002148D03*
D73*
X003281Y002149D03*
D74*
X002664Y002149D03*
D75*
X003281Y002149D03*
D76*
X003281Y002150D03*
D77*
X003281Y002150D03*
D78*
X003281Y002151D03*
D79*
X003281Y002151D03*
D80*
X003279Y002152D03*
D81*
X003280Y002152D03*
X003280Y002153D03*
X003280Y002153D03*
X003280Y002154D03*
D82*
X003280Y002154D03*
X003280Y002155D03*
X003280Y002155D03*
D83*
X002664Y002155D03*
D84*
X002660Y002155D03*
X002660Y002156D03*
X002660Y002156D03*
X002660Y002157D03*
D85*
X003280Y002157D03*
X003280Y002157D03*
X003280Y002156D03*
X003280Y002156D03*
D86*
X003289Y002215D03*
X003289Y002216D03*
X003289Y002216D03*
X003289Y002217D03*
X002660Y002159D03*
X002660Y002158D03*
X002660Y002158D03*
X002660Y002157D03*
D87*
X003280Y002158D03*
X003280Y002158D03*
X003280Y002159D03*
D88*
X003281Y002159D03*
X003281Y002160D03*
X003281Y002160D03*
D89*
X003289Y002217D03*
X003289Y002218D03*
X003289Y002218D03*
X002660Y002161D03*
X002660Y002160D03*
X002660Y002160D03*
X002660Y002159D03*
D90*
X003281Y002161D03*
X003281Y002161D03*
X003281Y002162D03*
X003281Y002162D03*
D91*
X003289Y002219D03*
X003289Y002219D03*
X003289Y002220D03*
X002659Y002163D03*
X002659Y002162D03*
X002659Y002162D03*
X002659Y002161D03*
D92*
X003281Y002163D03*
X003281Y002163D03*
X003281Y002164D03*
D93*
X003290Y002220D03*
X003290Y002221D03*
X003290Y002221D03*
X003290Y002222D03*
X002659Y002165D03*
X002659Y002165D03*
X002659Y002164D03*
X002659Y002164D03*
X002659Y002163D03*
D94*
X003281Y002164D03*
X003281Y002165D03*
X003281Y002165D03*
X003281Y002166D03*
D95*
X002659Y002167D03*
X002659Y002167D03*
X002659Y002166D03*
X002659Y002166D03*
D96*
X003282Y002167D03*
X003282Y002167D03*
X003282Y002166D03*
D97*
X003282Y002168D03*
X003282Y002168D03*
X003282Y002169D03*
D98*
X003290Y002224D03*
X003290Y002224D03*
X003290Y002225D03*
X003290Y002225D03*
X002659Y002169D03*
X002659Y002169D03*
X002659Y002168D03*
X002659Y002168D03*
D99*
X003282Y002169D03*
X003282Y002170D03*
X003282Y002170D03*
X003282Y002171D03*
D100*
X003290Y002226D03*
X003290Y002226D03*
X003290Y002227D03*
X002658Y002171D03*
X002658Y002171D03*
X002658Y002170D03*
X002658Y002170D03*
D101*
X003282Y002171D03*
X003282Y002172D03*
X003282Y002172D03*
D102*
X003291Y002227D03*
X003291Y002228D03*
X003291Y002228D03*
X002658Y002173D03*
X002658Y002173D03*
X002658Y002172D03*
X002658Y002172D03*
D103*
X003283Y002173D03*
X003283Y002173D03*
X003283Y002174D03*
X003283Y002174D03*
D104*
X003291Y002229D03*
X003291Y002229D03*
X003291Y002230D03*
X003291Y002230D03*
X002658Y002175D03*
X002658Y002175D03*
X002658Y002174D03*
X002658Y002174D03*
D105*
X003283Y002175D03*
X003283Y002175D03*
X003283Y002176D03*
D106*
X002658Y002177D03*
X002658Y002177D03*
X002658Y002176D03*
X002658Y002176D03*
X002658Y002178D03*
D107*
X003283Y002177D03*
X003283Y002177D03*
X003283Y002176D03*
D108*
X003283Y002178D03*
X003283Y002178D03*
X003283Y002179D03*
X003283Y002179D03*
D109*
X003291Y002232D03*
X003291Y002233D03*
X003291Y002233D03*
X003291Y002234D03*
X002657Y002180D03*
X002657Y002179D03*
X002657Y002179D03*
X002657Y002178D03*
D110*
X003284Y002180D03*
X003284Y002180D03*
X003284Y002181D03*
D111*
X003292Y002234D03*
X003292Y002235D03*
X003292Y002235D03*
X002657Y002182D03*
X002657Y002181D03*
X002657Y002181D03*
X002657Y002180D03*
D112*
X003284Y002181D03*
X003284Y002182D03*
X003284Y002182D03*
X003284Y002183D03*
D113*
X003292Y002236D03*
X003292Y002236D03*
X003292Y002237D03*
X002657Y002184D03*
X002657Y002183D03*
X002657Y002183D03*
X002657Y002182D03*
D114*
X003284Y002183D03*
X003284Y002184D03*
X003284Y002184D03*
D115*
X003292Y002237D03*
X003292Y002238D03*
X003292Y002238D03*
X003292Y002239D03*
X002657Y002186D03*
X002657Y002185D03*
X002657Y002185D03*
X002657Y002184D03*
D116*
X003284Y002185D03*
X003284Y002185D03*
X003284Y002186D03*
D117*
X003285Y002186D03*
X003285Y002187D03*
X003285Y002187D03*
X003285Y002188D03*
D118*
X002656Y002188D03*
X002656Y002187D03*
X002656Y002187D03*
X002656Y002186D03*
D119*
X003285Y002188D03*
X003285Y002189D03*
X003285Y002189D03*
D120*
X003293Y002241D03*
X003293Y002241D03*
X003293Y002242D03*
X003293Y002242D03*
X002656Y002190D03*
X002656Y002190D03*
X002656Y002189D03*
X002656Y002189D03*
X002656Y002188D03*
D121*
X003285Y002190D03*
X003285Y002190D03*
X003285Y002191D03*
X003285Y002191D03*
D122*
X003293Y002243D03*
X003293Y002243D03*
X003293Y002244D03*
X002656Y002192D03*
X002656Y002192D03*
X002656Y002191D03*
X002656Y002191D03*
D123*
X003285Y002192D03*
X003285Y002192D03*
X003285Y002193D03*
D124*
X003293Y002244D03*
X003293Y002245D03*
X003293Y002245D03*
X002656Y002194D03*
X002656Y002194D03*
X002656Y002193D03*
X002656Y002193D03*
D125*
X003286Y002194D03*
X003286Y002194D03*
X003286Y002193D03*
D126*
X003286Y002195D03*
X003286Y002195D03*
X003286Y002196D03*
X003286Y002196D03*
D127*
X003293Y002246D03*
X003293Y002246D03*
X003293Y002247D03*
X003293Y002247D03*
X002655Y002196D03*
X002655Y002196D03*
X002655Y002195D03*
X002655Y002195D03*
D128*
X003286Y002197D03*
X003286Y002197D03*
X003286Y002198D03*
D129*
X002655Y002198D03*
X002655Y002198D03*
X002655Y002197D03*
X002655Y002197D03*
D130*
X003286Y002198D03*
X003286Y002199D03*
X003286Y002199D03*
X003286Y002200D03*
D131*
X003294Y002249D03*
X003294Y002250D03*
X003294Y002250D03*
X003294Y002251D03*
X002655Y002200D03*
X002655Y002200D03*
X002655Y002199D03*
X002655Y002199D03*
D132*
X003287Y002200D03*
X003287Y002201D03*
X003287Y002201D03*
D133*
X003294Y002251D03*
X003294Y002252D03*
X003294Y002252D03*
X002655Y002203D03*
X002655Y002202D03*
X002655Y002202D03*
X002655Y002201D03*
X002655Y002201D03*
D134*
X003287Y002202D03*
X003287Y002202D03*
X003287Y002203D03*
D135*
X003287Y002203D03*
X003287Y002204D03*
X003287Y002204D03*
X003287Y002205D03*
D136*
X003294Y002253D03*
X003294Y002253D03*
X003294Y002254D03*
X002654Y002205D03*
X002654Y002204D03*
X002654Y002204D03*
X002654Y002203D03*
D137*
X003287Y002205D03*
X003287Y002206D03*
X003287Y002206D03*
D138*
X003295Y002254D03*
X003295Y002255D03*
X003295Y002255D03*
X003295Y002256D03*
X002654Y002207D03*
X002654Y002206D03*
X002654Y002206D03*
X002654Y002205D03*
D139*
X003288Y002207D03*
X003288Y002207D03*
X003288Y002208D03*
X003288Y002208D03*
D140*
X002654Y002209D03*
X002654Y002208D03*
X002654Y002208D03*
X002654Y002207D03*
D141*
X003288Y002209D03*
X003288Y002209D03*
X003288Y002210D03*
D142*
X003295Y002258D03*
X003295Y002258D03*
X003295Y002259D03*
X003295Y002259D03*
X002654Y002211D03*
X002654Y002210D03*
X002654Y002210D03*
X002654Y002209D03*
D143*
X003288Y002210D03*
X003288Y002211D03*
X003288Y002211D03*
D144*
X003295Y002260D03*
X003295Y002260D03*
X003295Y002261D03*
X002653Y002213D03*
X002653Y002212D03*
X002653Y002212D03*
X002653Y002211D03*
D145*
X003288Y002212D03*
X003288Y002212D03*
X003288Y002213D03*
X003288Y002213D03*
D146*
X003296Y002261D03*
X003296Y002262D03*
X003296Y002262D03*
X003296Y002263D03*
X002653Y002215D03*
X002653Y002215D03*
X002653Y002214D03*
X002653Y002214D03*
X002653Y002213D03*
D147*
X003289Y002214D03*
X003289Y002214D03*
X003289Y002215D03*
D148*
X003296Y002263D03*
X003296Y002264D03*
X003296Y002264D03*
X002653Y002217D03*
X002653Y002217D03*
X002653Y002216D03*
X002653Y002216D03*
D149*
X002653Y002218D03*
X002653Y002218D03*
X002653Y002219D03*
X002653Y002219D03*
D150*
X002652Y002220D03*
X002652Y002220D03*
X002652Y002221D03*
X002652Y002221D03*
X003296Y002266D03*
X003296Y002267D03*
X003296Y002267D03*
X003296Y002268D03*
D151*
X003297Y002268D03*
X003297Y002269D03*
X003297Y002269D03*
X002652Y002223D03*
X002652Y002223D03*
X002652Y002222D03*
X002652Y002222D03*
D152*
X003290Y002223D03*
X003290Y002223D03*
X003290Y002222D03*
D153*
X003297Y002270D03*
X003297Y002270D03*
X003297Y002271D03*
X003297Y002271D03*
X002652Y002225D03*
X002652Y002225D03*
X002652Y002224D03*
X002652Y002224D03*
D154*
X002652Y002226D03*
X002652Y002226D03*
X002652Y002227D03*
X002652Y002227D03*
X002652Y002228D03*
X003297Y002272D03*
X003297Y002272D03*
X003297Y002273D03*
D155*
X002651Y002230D03*
X002651Y002229D03*
X002651Y002229D03*
X002651Y002228D03*
D156*
X002651Y002230D03*
X002651Y002231D03*
X002651Y002231D03*
X002651Y002232D03*
X003298Y002275D03*
X003298Y002275D03*
X003298Y002276D03*
X003298Y002276D03*
D157*
X003291Y002232D03*
X003291Y002231D03*
X003291Y002231D03*
D158*
X003298Y002277D03*
X003298Y002277D03*
X003298Y002278D03*
X002651Y002234D03*
X002651Y002233D03*
X002651Y002233D03*
X002651Y002232D03*
D159*
X002651Y002234D03*
X002651Y002235D03*
X002651Y002235D03*
X002651Y002236D03*
X003298Y002278D03*
X003298Y002279D03*
X003298Y002279D03*
X003298Y002280D03*
D160*
X003298Y002280D03*
X003298Y002281D03*
X003298Y002281D03*
X002650Y002238D03*
X002650Y002237D03*
X002650Y002237D03*
X002650Y002236D03*
D161*
X002650Y002238D03*
X002650Y002239D03*
X002650Y002239D03*
X002650Y002240D03*
X002650Y002240D03*
D162*
X003292Y002240D03*
X003292Y002240D03*
X003292Y002239D03*
D163*
X003299Y002283D03*
X003299Y002284D03*
X003299Y002284D03*
X003299Y002285D03*
X002650Y002242D03*
X002650Y002242D03*
X002650Y002241D03*
X002650Y002241D03*
D164*
X002650Y002243D03*
X002650Y002243D03*
X002650Y002244D03*
X002650Y002244D03*
X003299Y002285D03*
X003299Y002286D03*
X003299Y002286D03*
D165*
X003299Y002287D03*
X003299Y002287D03*
X003299Y002288D03*
X003299Y002288D03*
X002649Y002246D03*
X002649Y002246D03*
X002649Y002245D03*
X002649Y002245D03*
D166*
X002649Y002247D03*
X002649Y002247D03*
X002649Y002248D03*
X002649Y002248D03*
X003300Y002289D03*
X003300Y002289D03*
X003300Y002290D03*
D167*
X003294Y002249D03*
X003294Y002248D03*
X003294Y002248D03*
D168*
X002649Y002249D03*
X002649Y002249D03*
X002649Y002250D03*
X002649Y002250D03*
D169*
X002649Y002251D03*
X002649Y002251D03*
X002649Y002252D03*
X002649Y002252D03*
X002649Y002253D03*
X003300Y002292D03*
X003300Y002292D03*
X003300Y002293D03*
X003300Y002293D03*
D170*
X003300Y002294D03*
X003300Y002294D03*
X003300Y002295D03*
X002648Y002255D03*
X002648Y002254D03*
X002648Y002254D03*
X002648Y002253D03*
D171*
X002648Y002255D03*
X002648Y002256D03*
X002648Y002256D03*
X002648Y002257D03*
X003301Y002295D03*
X003301Y002296D03*
X003301Y002296D03*
X003301Y002297D03*
D172*
X003295Y002257D03*
X003295Y002257D03*
X003295Y002256D03*
D173*
X003301Y002297D03*
X003301Y002298D03*
X003301Y002298D03*
X002648Y002259D03*
X002648Y002258D03*
X002648Y002258D03*
X002648Y002257D03*
D174*
X002648Y002259D03*
X002648Y002260D03*
X002648Y002260D03*
X002648Y002261D03*
D175*
X002647Y002261D03*
X002647Y002262D03*
X002647Y002262D03*
X002647Y002263D03*
X003301Y002300D03*
X003301Y002301D03*
X003301Y002301D03*
X003301Y002302D03*
D176*
X003302Y002302D03*
X003302Y002303D03*
X003302Y002303D03*
X002647Y002265D03*
X002647Y002265D03*
X002647Y002264D03*
X002647Y002264D03*
X002647Y002263D03*
D177*
X003296Y002265D03*
X003296Y002265D03*
X003296Y002266D03*
D178*
X003302Y002304D03*
X003302Y002304D03*
X003302Y002305D03*
X003302Y002305D03*
X002647Y002267D03*
X002647Y002267D03*
X002647Y002266D03*
X002647Y002266D03*
D179*
X002647Y002268D03*
X002647Y002268D03*
X002647Y002269D03*
X002647Y002269D03*
X003302Y002306D03*
X003302Y002306D03*
X003302Y002307D03*
D180*
X002646Y002271D03*
X002646Y002271D03*
X002646Y002270D03*
X002646Y002270D03*
D181*
X002646Y002272D03*
X002646Y002272D03*
X002646Y002273D03*
X002646Y002273D03*
X003303Y002309D03*
X003303Y002309D03*
X003303Y002310D03*
X003303Y002310D03*
D182*
X003297Y002274D03*
X003297Y002274D03*
X003297Y002273D03*
D183*
X003303Y002311D03*
X003303Y002311D03*
X003303Y002312D03*
X002646Y002275D03*
X002646Y002275D03*
X002646Y002274D03*
X002646Y002274D03*
D184*
X002646Y002276D03*
X002646Y002276D03*
X002646Y002277D03*
X002646Y002277D03*
X002646Y002278D03*
X003303Y002312D03*
X003303Y002313D03*
X003303Y002313D03*
X003303Y002314D03*
D185*
X003303Y002314D03*
X003303Y002315D03*
X003303Y002315D03*
X002645Y002280D03*
X002645Y002279D03*
X002645Y002279D03*
X002645Y002278D03*
D186*
X002645Y002280D03*
X002645Y002281D03*
X002645Y002281D03*
X002645Y002282D03*
D187*
X003299Y002283D03*
X003299Y002282D03*
X003299Y002282D03*
D188*
X003304Y002317D03*
X003304Y002318D03*
X003304Y002318D03*
X003304Y002319D03*
X002645Y002284D03*
X002645Y002283D03*
X002645Y002283D03*
X002645Y002282D03*
D189*
X002645Y002284D03*
X002645Y002285D03*
X002645Y002285D03*
X002645Y002286D03*
X003304Y002319D03*
X003304Y002320D03*
X003304Y002320D03*
D190*
X003304Y002321D03*
X003304Y002321D03*
X003304Y002322D03*
X003304Y002322D03*
X002644Y002288D03*
X002644Y002287D03*
X002644Y002287D03*
X002644Y002286D03*
D191*
X002644Y002288D03*
X002644Y002289D03*
X002644Y002289D03*
X002644Y002290D03*
X002644Y002290D03*
X003305Y002323D03*
X003305Y002323D03*
X003305Y002324D03*
D192*
X003300Y002291D03*
X003300Y002291D03*
X003300Y002290D03*
D193*
X002644Y002291D03*
X002644Y002291D03*
X002644Y002292D03*
X002644Y002292D03*
D194*
X002644Y002293D03*
X002644Y002293D03*
X002644Y002294D03*
X002644Y002294D03*
X003305Y002326D03*
X003305Y002326D03*
X003305Y002327D03*
X003305Y002327D03*
D195*
X003305Y002328D03*
X003305Y002328D03*
X003305Y002329D03*
X002643Y002296D03*
X002643Y002296D03*
X002643Y002295D03*
X002643Y002295D03*
D196*
X002643Y002297D03*
X002643Y002297D03*
X002643Y002298D03*
X002643Y002298D03*
X003306Y002329D03*
X003306Y002330D03*
X003306Y002330D03*
X003306Y002331D03*
D197*
X003301Y002300D03*
X003301Y002299D03*
X003301Y002299D03*
D198*
X003306Y002331D03*
X003306Y002332D03*
X003306Y002332D03*
X002643Y002300D03*
X002643Y002300D03*
X002643Y002299D03*
X002643Y002299D03*
D199*
X002643Y002301D03*
X002643Y002301D03*
X002643Y002302D03*
X002643Y002302D03*
X002643Y002303D03*
D200*
X002642Y002303D03*
X002642Y002304D03*
X002642Y002304D03*
X002642Y002305D03*
X003306Y002334D03*
X003306Y002335D03*
X003306Y002335D03*
X003306Y002336D03*
D201*
X003307Y002336D03*
X003307Y002337D03*
X003307Y002337D03*
X002642Y002307D03*
X002642Y002306D03*
X002642Y002306D03*
X002642Y002305D03*
D202*
X003302Y002307D03*
X003302Y002308D03*
X003302Y002308D03*
D203*
X003307Y002338D03*
X003307Y002338D03*
X003307Y002339D03*
X003307Y002339D03*
X002642Y002309D03*
X002642Y002308D03*
X002642Y002308D03*
X002642Y002307D03*
D204*
X002642Y002309D03*
X002642Y002310D03*
X002642Y002310D03*
X002642Y002311D03*
X003307Y002340D03*
X003307Y002340D03*
X003307Y002341D03*
D205*
X002641Y002313D03*
X002641Y002312D03*
X002641Y002312D03*
X002641Y002311D03*
D206*
X002641Y002313D03*
X002641Y002314D03*
X002641Y002314D03*
X002641Y002315D03*
X002641Y002315D03*
X003308Y002343D03*
X003308Y002343D03*
X003308Y002344D03*
X003308Y002344D03*
D207*
X003304Y002317D03*
X003304Y002316D03*
X003304Y002316D03*
D208*
X003308Y002345D03*
X003308Y002345D03*
X003308Y002346D03*
X002641Y002317D03*
X002641Y002317D03*
X002641Y002316D03*
X002641Y002316D03*
D209*
X002641Y002318D03*
X002641Y002318D03*
X002641Y002319D03*
X002641Y002319D03*
X003308Y002346D03*
X003308Y002347D03*
X003308Y002347D03*
X003308Y002348D03*
D210*
X003308Y002348D03*
X003308Y002349D03*
X003308Y002349D03*
X002640Y002321D03*
X002640Y002321D03*
X002640Y002320D03*
X002640Y002320D03*
D211*
X002640Y002322D03*
X002640Y002322D03*
X002640Y002323D03*
X002640Y002323D03*
D212*
X002640Y002324D03*
X002640Y002324D03*
X002640Y002325D03*
X002640Y002325D03*
X003309Y002351D03*
X003309Y002352D03*
X003309Y002352D03*
X003309Y002353D03*
D213*
X003305Y002325D03*
X003305Y002325D03*
X003305Y002324D03*
D214*
X003309Y002353D03*
X003309Y002354D03*
X003309Y002354D03*
X002640Y002328D03*
X002640Y002327D03*
X002640Y002327D03*
X002640Y002326D03*
X002640Y002326D03*
D215*
X002639Y002328D03*
X002639Y002329D03*
X002639Y002329D03*
X002639Y002330D03*
X003309Y002355D03*
X003309Y002355D03*
X003309Y002356D03*
X003309Y002356D03*
D216*
X003310Y002357D03*
X003310Y002357D03*
X003310Y002358D03*
X002639Y002332D03*
X002639Y002331D03*
X002639Y002331D03*
X002639Y002330D03*
D217*
X002639Y002332D03*
X002639Y002333D03*
X002639Y002333D03*
X002639Y002334D03*
D218*
X003306Y002334D03*
X003306Y002333D03*
X003306Y002333D03*
D219*
X003310Y002360D03*
X003310Y002360D03*
X003310Y002361D03*
X003310Y002361D03*
X002639Y002336D03*
X002639Y002335D03*
X002639Y002335D03*
X002639Y002334D03*
D220*
X002638Y002336D03*
X002638Y002337D03*
X002638Y002337D03*
X002638Y002338D03*
X003310Y002362D03*
X003310Y002362D03*
X003310Y002363D03*
D221*
X003311Y002363D03*
X003311Y002364D03*
X003311Y002364D03*
X003311Y002365D03*
X002638Y002340D03*
X002638Y002340D03*
X002638Y002339D03*
X002638Y002339D03*
X002638Y002338D03*
D222*
X002638Y002341D03*
X002638Y002341D03*
X002638Y002342D03*
X002638Y002342D03*
X003311Y002365D03*
X003311Y002366D03*
X003311Y002366D03*
D223*
X003307Y002342D03*
X003307Y002342D03*
X003307Y002341D03*
D224*
X002638Y002343D03*
X002638Y002343D03*
X002638Y002344D03*
X002638Y002344D03*
D225*
X002637Y002345D03*
X002637Y002345D03*
X002637Y002346D03*
X002637Y002346D03*
X003311Y002368D03*
X003311Y002369D03*
X003311Y002369D03*
X003311Y002370D03*
D226*
X003312Y002370D03*
X003312Y002371D03*
X003312Y002371D03*
X002637Y002348D03*
X002637Y002348D03*
X002637Y002347D03*
X002637Y002347D03*
D227*
X002637Y002349D03*
X002637Y002349D03*
X002637Y002350D03*
X002637Y002350D03*
X003312Y002372D03*
X003312Y002372D03*
X003312Y002373D03*
X003312Y002373D03*
D228*
X003309Y002351D03*
X003309Y002350D03*
X003309Y002350D03*
D229*
X003312Y002374D03*
X003312Y002374D03*
X003312Y002375D03*
X002637Y002353D03*
X002637Y002352D03*
X002637Y002352D03*
X002637Y002351D03*
X002637Y002351D03*
D230*
X002636Y002353D03*
X002636Y002354D03*
X002636Y002354D03*
X002636Y002355D03*
D231*
X002636Y002355D03*
X002636Y002356D03*
X002636Y002356D03*
X002636Y002357D03*
X003313Y002377D03*
X003313Y002377D03*
X003313Y002378D03*
X003313Y002378D03*
D232*
X003313Y002379D03*
X003313Y002379D03*
X003313Y002380D03*
X002636Y002359D03*
X002636Y002358D03*
X002636Y002358D03*
X002636Y002357D03*
D233*
X003310Y002358D03*
X003310Y002359D03*
X003310Y002359D03*
D234*
X003313Y002380D03*
X003313Y002381D03*
X003313Y002381D03*
X003313Y002382D03*
X002636Y002361D03*
X002636Y002360D03*
X002636Y002360D03*
X002636Y002359D03*
D235*
X002635Y002361D03*
X002635Y002362D03*
X002635Y002362D03*
X002635Y002363D03*
X003313Y002382D03*
X003313Y002383D03*
X003313Y002383D03*
D236*
X002635Y002365D03*
X002635Y002365D03*
X002635Y002364D03*
X002635Y002364D03*
X002635Y002363D03*
D237*
X002635Y002366D03*
X002635Y002366D03*
X002635Y002367D03*
X002635Y002367D03*
X003314Y002385D03*
X003314Y002386D03*
X003314Y002386D03*
X003314Y002387D03*
D238*
X003311Y002368D03*
X003311Y002367D03*
X003311Y002367D03*
D239*
X003314Y002387D03*
X003314Y002388D03*
X003314Y002388D03*
X002635Y002369D03*
X002635Y002369D03*
X002635Y002368D03*
X002635Y002368D03*
D240*
X002634Y002370D03*
X002634Y002370D03*
X002634Y002371D03*
X002634Y002371D03*
X003314Y002389D03*
X003314Y002389D03*
X003314Y002390D03*
X003314Y002390D03*
D241*
X003315Y002391D03*
X003315Y002391D03*
X003315Y002392D03*
X002634Y002373D03*
X002634Y002373D03*
X002634Y002372D03*
X002634Y002372D03*
D242*
X002634Y002374D03*
X002634Y002374D03*
X002634Y002375D03*
X002634Y002375D03*
D243*
X003312Y002376D03*
X003312Y002376D03*
X003312Y002375D03*
D244*
X003315Y002394D03*
X003315Y002394D03*
X003315Y002395D03*
X003315Y002395D03*
X002634Y002378D03*
X002634Y002377D03*
X002634Y002377D03*
X002634Y002376D03*
X002634Y002376D03*
D245*
X002633Y002378D03*
X002633Y002379D03*
X002633Y002379D03*
X002633Y002380D03*
X003315Y002396D03*
X003315Y002396D03*
X003315Y002397D03*
D246*
X003316Y002397D03*
X003316Y002398D03*
X003316Y002398D03*
X003316Y002399D03*
X002633Y002382D03*
X002633Y002381D03*
X002633Y002381D03*
X002633Y002380D03*
D247*
X002633Y002382D03*
X002633Y002383D03*
X002633Y002383D03*
X002633Y002384D03*
X003316Y002399D03*
X003316Y002400D03*
X003316Y002400D03*
D248*
X003314Y002385D03*
X003314Y002384D03*
X003314Y002384D03*
D249*
X002633Y002385D03*
X002633Y002385D03*
X002633Y002384D03*
X002633Y002386D03*
D250*
X002632Y002386D03*
X002632Y002387D03*
X002632Y002387D03*
X002632Y002388D03*
X003316Y002402D03*
X003316Y002403D03*
X003316Y002403D03*
X003316Y002404D03*
D251*
X003317Y002404D03*
X003317Y002405D03*
X003317Y002405D03*
X002632Y002390D03*
X002632Y002390D03*
X002632Y002389D03*
X002632Y002389D03*
X002632Y002388D03*
D252*
X002632Y002391D03*
X002632Y002391D03*
X002632Y002392D03*
X002632Y002392D03*
X003317Y002406D03*
X003317Y002406D03*
X003317Y002407D03*
X003317Y002407D03*
D253*
X003315Y002393D03*
X003315Y002393D03*
X003315Y002392D03*
D254*
X003317Y002408D03*
X003317Y002408D03*
X003317Y002409D03*
X002632Y002394D03*
X002632Y002394D03*
X002632Y002393D03*
X002632Y002393D03*
D255*
X002631Y002395D03*
X002631Y002395D03*
X002631Y002396D03*
X002631Y002396D03*
D256*
X002631Y002397D03*
X002631Y002397D03*
X002631Y002398D03*
X002631Y002398D03*
X003318Y002411D03*
X003318Y002411D03*
X003318Y002412D03*
X003318Y002412D03*
D257*
X003318Y002413D03*
X003318Y002413D03*
X003318Y002414D03*
X002631Y002400D03*
X002631Y002400D03*
X002631Y002399D03*
X002631Y002399D03*
D258*
X003316Y002401D03*
X003316Y002401D03*
X003316Y002402D03*
D259*
X003318Y002414D03*
X003318Y002415D03*
X003318Y002415D03*
X003318Y002416D03*
X002631Y002403D03*
X002631Y002402D03*
X002631Y002402D03*
X002631Y002401D03*
X002631Y002401D03*
D260*
X002630Y002403D03*
X002630Y002404D03*
X002630Y002404D03*
X002630Y002405D03*
X003318Y002416D03*
X003318Y002417D03*
X003318Y002417D03*
D261*
X002630Y002407D03*
X002630Y002406D03*
X002630Y002406D03*
X002630Y002405D03*
D262*
X002630Y002407D03*
X002630Y002408D03*
X002630Y002408D03*
X002630Y002409D03*
X003319Y002419D03*
X003319Y002420D03*
X003319Y002420D03*
X003319Y002421D03*
D263*
X003317Y002410D03*
X003317Y002410D03*
X003317Y002409D03*
D264*
X003319Y002421D03*
X003319Y002422D03*
X003319Y002422D03*
X002630Y002411D03*
X002630Y002410D03*
X002630Y002410D03*
X002630Y002409D03*
D265*
X002629Y002411D03*
X002629Y002412D03*
X002629Y002412D03*
X002629Y002413D03*
X003319Y002423D03*
X003319Y002423D03*
X003319Y002424D03*
X003319Y002424D03*
D266*
X003320Y002425D03*
X003320Y002425D03*
X003320Y002426D03*
X002629Y002415D03*
X002629Y002415D03*
X002629Y002414D03*
X002629Y002414D03*
X002629Y002413D03*
D267*
X002629Y002416D03*
X002629Y002416D03*
X002629Y002417D03*
X002629Y002417D03*
D268*
X003319Y002418D03*
X003319Y002418D03*
X003319Y002419D03*
D269*
X003320Y002428D03*
X003320Y002428D03*
X003320Y002429D03*
X003320Y002429D03*
X002629Y002419D03*
X002629Y002419D03*
X002629Y002418D03*
X002629Y002418D03*
D270*
X002628Y002420D03*
X002628Y002420D03*
X002628Y002421D03*
X002628Y002421D03*
X003320Y002430D03*
X003320Y002430D03*
X003320Y002431D03*
D271*
X003321Y002431D03*
X003321Y002432D03*
X003321Y002432D03*
X003321Y002433D03*
X002628Y002423D03*
X002628Y002423D03*
X002628Y002422D03*
X002628Y002422D03*
D272*
X002628Y002424D03*
X002628Y002424D03*
X002628Y002425D03*
X002628Y002425D03*
X003321Y002433D03*
X003321Y002434D03*
X003321Y002434D03*
D273*
X002628Y002428D03*
X002628Y002427D03*
X002628Y002427D03*
X002628Y002426D03*
X002628Y002426D03*
D274*
X003320Y002427D03*
X003320Y002427D03*
X003320Y002426D03*
D275*
X003321Y002436D03*
X003321Y002437D03*
X003321Y002437D03*
X003321Y002438D03*
X002627Y002430D03*
X002627Y002429D03*
X002627Y002429D03*
X002627Y002428D03*
D276*
X002627Y002430D03*
X002627Y002431D03*
X002627Y002431D03*
X002627Y002432D03*
X003322Y002438D03*
X003322Y002439D03*
X003322Y002439D03*
D277*
X003322Y002440D03*
X003322Y002440D03*
X003322Y002441D03*
X003322Y002441D03*
X002627Y002434D03*
X002627Y002433D03*
X002627Y002433D03*
X002627Y002432D03*
D278*
X002627Y002434D03*
X002627Y002435D03*
X002627Y002435D03*
X002627Y002436D03*
X003322Y002442D03*
X003322Y002442D03*
X003322Y002443D03*
D279*
X003321Y002436D03*
X003321Y002435D03*
X003321Y002435D03*
D280*
X002626Y002436D03*
X002626Y002437D03*
X002626Y002437D03*
X002626Y002438D03*
D281*
X002626Y002438D03*
X002626Y002439D03*
X002626Y002439D03*
X002626Y002440D03*
X002626Y002440D03*
X003323Y002445D03*
X003323Y002445D03*
X003323Y002446D03*
X003323Y002446D03*
D282*
X003323Y002447D03*
X003323Y002447D03*
X003323Y002448D03*
X002626Y002442D03*
X002626Y002442D03*
X002626Y002441D03*
X002626Y002441D03*
D283*
X002626Y002443D03*
X002626Y002443D03*
X002626Y002444D03*
X002626Y002444D03*
X003323Y002448D03*
X003323Y002449D03*
X003323Y002449D03*
X003323Y002450D03*
D284*
X003322Y002444D03*
X003322Y002444D03*
X003322Y002443D03*
D285*
X003323Y002450D03*
X003323Y002451D03*
X003323Y002451D03*
X002625Y002446D03*
X002625Y002446D03*
X002625Y002445D03*
X002625Y002445D03*
D286*
X002625Y002447D03*
X002625Y002447D03*
X002625Y002448D03*
X002625Y002448D03*
D287*
X002625Y002449D03*
X002625Y002449D03*
X002625Y002450D03*
X002625Y002450D03*
X003324Y002453D03*
X003324Y002454D03*
X003324Y002454D03*
X003324Y002455D03*
D288*
X003324Y002455D03*
X003324Y002456D03*
X003324Y002456D03*
X002625Y002453D03*
X002625Y002452D03*
X002625Y002452D03*
X002625Y002451D03*
X002625Y002451D03*
D289*
X003324Y002452D03*
X003324Y002452D03*
X003324Y002453D03*
D290*
X003324Y002457D03*
X003324Y002457D03*
X003324Y002458D03*
X003324Y002458D03*
X002624Y002455D03*
X002624Y002454D03*
X002624Y002454D03*
X002624Y002453D03*
D291*
X002624Y002455D03*
X002624Y002456D03*
X002624Y002456D03*
X002624Y002457D03*
X003325Y002459D03*
X003325Y002459D03*
X003325Y002460D03*
D292*
X002624Y002459D03*
X002624Y002458D03*
X002624Y002458D03*
X002624Y002457D03*
D293*
X002624Y002459D03*
X002624Y002460D03*
X002624Y002460D03*
X002624Y002461D03*
X003325Y002462D03*
X003325Y002462D03*
X003325Y002463D03*
X003325Y002463D03*
D294*
X003325Y002461D03*
X003325Y002461D03*
X003325Y002460D03*
D295*
X003325Y002464D03*
X003325Y002464D03*
X003325Y002465D03*
X002623Y002463D03*
X002623Y002462D03*
X002623Y002462D03*
X002623Y002461D03*
D296*
X002623Y002463D03*
X002623Y002464D03*
X002623Y002464D03*
X002623Y002465D03*
X002623Y002465D03*
X003326Y002466D03*
X003326Y002466D03*
X003326Y002465D03*
X003326Y002467D03*
D297*
X003326Y002467D03*
X003326Y002468D03*
X003326Y002468D03*
X002623Y002467D03*
X002623Y002467D03*
X002623Y002466D03*
X002623Y002466D03*
D298*
X002623Y002468D03*
X002623Y002468D03*
X002623Y002469D03*
X002623Y002469D03*
D299*
X003326Y002470D03*
X003326Y002469D03*
X003326Y002469D03*
D300*
X003326Y002470D03*
X003326Y002471D03*
X003326Y002471D03*
X003326Y002472D03*
X002622Y002471D03*
X002622Y002471D03*
X002622Y002470D03*
X002622Y002470D03*
D301*
X002622Y002472D03*
X002622Y002472D03*
X002622Y002473D03*
X002622Y002473D03*
X003327Y002473D03*
X003327Y002473D03*
X003327Y002472D03*
D302*
X003327Y002474D03*
X003327Y002474D03*
X003327Y002475D03*
X003327Y002475D03*
X002622Y002475D03*
X002622Y002475D03*
X002622Y002474D03*
X002622Y002474D03*
D303*
X002622Y002476D03*
X002622Y002476D03*
X002622Y002477D03*
X002622Y002477D03*
X002622Y002478D03*
X003327Y002477D03*
X003327Y002476D03*
X003327Y002476D03*
D304*
X003327Y002477D03*
X003327Y002478D03*
X003327Y002478D03*
D305*
X002621Y002479D03*
X002621Y002479D03*
X002621Y002478D03*
X002621Y002480D03*
D306*
X002621Y002480D03*
X002621Y002481D03*
X002621Y002481D03*
X002621Y002482D03*
X003328Y002480D03*
X003328Y002480D03*
X003328Y002479D03*
X003328Y002479D03*
D307*
X003328Y002481D03*
X003328Y002481D03*
X003328Y002482D03*
X002621Y002483D03*
X002621Y002483D03*
X002621Y002482D03*
X002621Y002484D03*
D308*
X002621Y002484D03*
X002621Y002485D03*
X002621Y002485D03*
X002621Y002486D03*
X003328Y002484D03*
X003328Y002483D03*
X003328Y002483D03*
X003328Y002482D03*
D309*
X003328Y002484D03*
X003328Y002485D03*
X003328Y002485D03*
X002620Y002486D03*
X002620Y002487D03*
X002620Y002487D03*
X002620Y002488D03*
D310*
X003329Y002487D03*
X003329Y002486D03*
X003329Y002486D03*
D311*
X003329Y002487D03*
X003329Y002488D03*
X003329Y002488D03*
X003329Y002489D03*
X002620Y002491D03*
X002620Y002491D03*
X002620Y002492D03*
X002620Y002492D03*
D312*
X002620Y002490D03*
X002620Y002490D03*
X002620Y002489D03*
X002620Y002489D03*
X002620Y002488D03*
D313*
X002620Y002493D03*
X002620Y002493D03*
X002620Y002494D03*
X002620Y002494D03*
X003329Y002490D03*
X003329Y002490D03*
X003329Y002489D03*
D314*
X003329Y002491D03*
X003329Y002491D03*
X003329Y002492D03*
X003329Y002492D03*
X002619Y002495D03*
X002619Y002495D03*
X002619Y002496D03*
X002619Y002496D03*
D315*
X002619Y002497D03*
X002619Y002497D03*
X002619Y002498D03*
X002619Y002498D03*
X003330Y002494D03*
X003330Y002493D03*
X003330Y002493D03*
D316*
X003330Y002494D03*
X003330Y002495D03*
X003330Y002495D03*
D317*
X003330Y002496D03*
X003330Y002496D03*
X003330Y002497D03*
X003330Y002497D03*
X002619Y002501D03*
X002619Y002501D03*
X002619Y002502D03*
X002619Y002502D03*
X002619Y002503D03*
D318*
X002618Y002503D03*
X002618Y002504D03*
X002618Y002504D03*
X002618Y002505D03*
X003330Y002499D03*
X003330Y002498D03*
X003330Y002498D03*
D319*
X002619Y002499D03*
X002619Y002499D03*
X002619Y002500D03*
X002619Y002500D03*
D320*
X002618Y002505D03*
X002618Y002506D03*
X002618Y002506D03*
X002618Y002507D03*
X003331Y002501D03*
X003331Y002500D03*
X003331Y002500D03*
X003331Y002499D03*
D321*
X003331Y002501D03*
X003331Y002502D03*
X003331Y002502D03*
X002618Y002507D03*
X002618Y002508D03*
X002618Y002508D03*
X002618Y002509D03*
D322*
X003331Y002504D03*
X003331Y002503D03*
X003331Y002503D03*
D323*
X003331Y002504D03*
X003331Y002505D03*
X003331Y002505D03*
X003331Y002506D03*
X002617Y002511D03*
X002617Y002512D03*
X002617Y002512D03*
X002617Y002513D03*
D324*
X002617Y002513D03*
X002617Y002514D03*
X002617Y002514D03*
X002617Y002515D03*
X002617Y002515D03*
X003332Y002507D03*
X003332Y002507D03*
X003332Y002506D03*
D325*
X003332Y002508D03*
X003332Y002508D03*
X003332Y002509D03*
X003332Y002509D03*
X002617Y002516D03*
X002617Y002516D03*
X002617Y002517D03*
X002617Y002517D03*
D326*
X002618Y002511D03*
X002618Y002510D03*
X002618Y002510D03*
X002618Y002509D03*
D327*
X002617Y002518D03*
X002617Y002518D03*
X002617Y002519D03*
X002617Y002519D03*
X003332Y002511D03*
X003332Y002510D03*
X003332Y002510D03*
D328*
X003332Y002511D03*
X003332Y002512D03*
X003332Y002512D03*
D329*
X003333Y002513D03*
X003333Y002513D03*
X003333Y002514D03*
X003333Y002514D03*
X002616Y002522D03*
X002616Y002522D03*
X002616Y002523D03*
X002616Y002523D03*
D330*
X002616Y002524D03*
X002616Y002524D03*
X002616Y002525D03*
X002616Y002525D03*
X003333Y002516D03*
X003333Y002515D03*
X003333Y002515D03*
D331*
X003333Y002516D03*
X003333Y002517D03*
X003333Y002517D03*
X003333Y002518D03*
X002616Y002526D03*
X002616Y002526D03*
D332*
X003333Y002519D03*
X003333Y002519D03*
X003333Y002518D03*
D333*
X003334Y002520D03*
X003334Y002520D03*
X003334Y002521D03*
X003334Y002521D03*
D334*
X002616Y002521D03*
X002616Y002521D03*
X002616Y002520D03*
X002616Y002520D03*
D335*
X003334Y002522D03*
X003334Y002522D03*
X003334Y002523D03*
D336*
X003334Y002523D03*
X003334Y002524D03*
X003334Y002524D03*
D337*
X003334Y002525D03*
X003334Y002525D03*
X003334Y002526D03*
X003334Y002526D03*
D338*
X003279Y002527D03*
X003279Y002527D03*
X003279Y002528D03*
X003279Y002528D03*
X003279Y002529D03*
X003279Y002529D03*
X003279Y002530D03*
X003279Y002530D03*
X003279Y002531D03*
X003279Y002531D03*
X003279Y002532D03*
X003279Y002532D03*
X003279Y002533D03*
X003279Y002533D03*
X003279Y002534D03*
X003279Y002534D03*
X003279Y002535D03*
X003279Y002535D03*
X003279Y002536D03*
X003279Y002536D03*
X003279Y002537D03*
X003279Y002537D03*
X003279Y002538D03*
X003279Y002538D03*
X003279Y002539D03*
X003279Y002539D03*
X003279Y002540D03*
X003279Y002540D03*
X003279Y002541D03*
X003279Y002541D03*
X003279Y002542D03*
X003279Y002542D03*
X003279Y002543D03*
X003279Y002543D03*
X003279Y002544D03*
X003279Y002544D03*
X003279Y002545D03*
X003279Y002545D03*
X003279Y002546D03*
X003279Y002546D03*
X003279Y002547D03*
X003279Y002547D03*
X003279Y002548D03*
X003279Y002548D03*
X003279Y002549D03*
X003279Y002549D03*
X003279Y002550D03*
X003279Y002550D03*
X003279Y002551D03*
X003279Y002551D03*
X003279Y002552D03*
X003279Y002552D03*
D339*
X002670Y002552D03*
X002670Y002552D03*
X002670Y002551D03*
X002670Y002551D03*
X002670Y002550D03*
X002670Y002550D03*
X002670Y002549D03*
X002670Y002549D03*
X002670Y002548D03*
X002670Y002548D03*
X002670Y002547D03*
X002670Y002547D03*
X002670Y002546D03*
X002670Y002546D03*
X002670Y002545D03*
X002670Y002545D03*
X002670Y002544D03*
X002670Y002544D03*
X002670Y002543D03*
X002670Y002543D03*
X002670Y002542D03*
X002670Y002542D03*
X002670Y002541D03*
X002670Y002541D03*
X002670Y002540D03*
X002670Y002540D03*
X002670Y002539D03*
X002670Y002539D03*
X002670Y002538D03*
X002670Y002538D03*
X002670Y002537D03*
X002670Y002537D03*
X002670Y002536D03*
X002670Y002536D03*
X002670Y002535D03*
X002670Y002535D03*
X002670Y002534D03*
X002670Y002534D03*
X002670Y002533D03*
X002670Y002533D03*
X002670Y002532D03*
X002670Y002532D03*
X002670Y002531D03*
X002670Y002531D03*
X002670Y002530D03*
X002670Y002530D03*
X002670Y002529D03*
X002670Y002529D03*
X002670Y002528D03*
X002670Y002528D03*
X002670Y002527D03*
X002670Y002527D03*
D340*
X002974Y002553D03*
X002974Y002553D03*
X002974Y002554D03*
X002974Y002554D03*
X002974Y002555D03*
X002974Y002555D03*
X002974Y002556D03*
X002974Y002556D03*
X002974Y002557D03*
X002974Y002557D03*
X002974Y002558D03*
X002974Y002558D03*
X002974Y002559D03*
X002974Y002559D03*
X002974Y002560D03*
X002974Y002560D03*
X002974Y002561D03*
X002974Y002561D03*
X002974Y002562D03*
X002974Y002562D03*
X002974Y002563D03*
X002974Y002563D03*
X002974Y002564D03*
X002974Y002564D03*
X002974Y002565D03*
X002974Y002565D03*
X002974Y002566D03*
X002974Y002566D03*
X002974Y002567D03*
X002974Y002567D03*
X002974Y002568D03*
X002974Y002568D03*
X002974Y002569D03*
X002974Y002569D03*
X002974Y002570D03*
X002974Y002570D03*
X002974Y002571D03*
X002974Y002571D03*
X002974Y002572D03*
X002974Y002572D03*
X002974Y002573D03*
X002974Y002702D03*
X002974Y002702D03*
X002974Y002703D03*
X002974Y002703D03*
X002974Y002704D03*
X002974Y002704D03*
X002974Y002705D03*
X002974Y002705D03*
X002974Y002706D03*
X002974Y002706D03*
X002974Y002707D03*
X002974Y002707D03*
X002974Y002708D03*
X002974Y002708D03*
X002974Y002709D03*
X002974Y002709D03*
X002974Y002710D03*
X002974Y002710D03*
X002974Y002711D03*
X002974Y002711D03*
X002974Y002712D03*
X002974Y002712D03*
X002974Y002713D03*
X002974Y002713D03*
X002974Y002714D03*
X002974Y002714D03*
X002974Y002715D03*
X002974Y002715D03*
X002974Y002716D03*
X002974Y002716D03*
X002974Y002717D03*
X002974Y002717D03*
X002974Y002718D03*
X002974Y002718D03*
X002974Y002719D03*
X002974Y002719D03*
X002974Y002720D03*
X002974Y002720D03*
X002974Y002721D03*
X002974Y002721D03*
X002974Y002722D03*
X002974Y002722D03*
X002974Y002723D03*
X002974Y002723D03*
X002974Y002724D03*
X002974Y002724D03*
X002974Y002725D03*
X002974Y002725D03*
X002974Y002726D03*
X002974Y002726D03*
X002974Y002727D03*
X002974Y002727D03*
X002974Y002728D03*
X002974Y002728D03*
X002974Y002729D03*
X002974Y002729D03*
X002974Y002730D03*
X002974Y002730D03*
X002974Y002731D03*
X002974Y002731D03*
X002974Y002732D03*
X002974Y002732D03*
X002974Y002733D03*
X002974Y002733D03*
X002974Y002734D03*
X002974Y002734D03*
X002974Y002735D03*
X002974Y002735D03*
X002974Y002736D03*
X002974Y002736D03*
X002974Y002737D03*
X002974Y002737D03*
X002974Y002738D03*
D341*
X003248Y002701D03*
X003248Y002701D03*
X003248Y002700D03*
X003248Y002700D03*
X003248Y002699D03*
X003248Y002699D03*
X003248Y002698D03*
X003248Y002698D03*
X003248Y002697D03*
X003248Y002697D03*
X003248Y002696D03*
X003248Y002696D03*
X003248Y002695D03*
X003248Y002695D03*
X003248Y002694D03*
X003248Y002694D03*
X003248Y002693D03*
X003248Y002693D03*
X003248Y002692D03*
X003248Y002692D03*
X003248Y002691D03*
X003248Y002691D03*
X003248Y002690D03*
X003248Y002690D03*
X003248Y002689D03*
X003248Y002689D03*
X003248Y002688D03*
X003248Y002688D03*
X003248Y002687D03*
X003248Y002687D03*
X003248Y002686D03*
X003248Y002686D03*
X003248Y002685D03*
X003248Y002685D03*
X003248Y002684D03*
X003248Y002684D03*
X003248Y002683D03*
X003248Y002683D03*
X003248Y002682D03*
X003248Y002682D03*
X003248Y002681D03*
X003248Y002681D03*
X003248Y002680D03*
X003248Y002680D03*
X003248Y002679D03*
X003248Y002679D03*
X003248Y002678D03*
X003248Y002678D03*
X003248Y002677D03*
X003248Y002677D03*
X003248Y002676D03*
X003248Y002676D03*
X003248Y002675D03*
X003248Y002675D03*
X003248Y002674D03*
X003248Y002674D03*
X003248Y002673D03*
X003248Y002673D03*
X003248Y002672D03*
X003248Y002672D03*
X003248Y002671D03*
X003248Y002671D03*
X003248Y002670D03*
X003248Y002670D03*
X003248Y002669D03*
X003248Y002669D03*
X003248Y002668D03*
X003248Y002668D03*
X003248Y002667D03*
X003248Y002667D03*
X003248Y002666D03*
X003248Y002666D03*
X003248Y002665D03*
X003248Y002665D03*
X003248Y002664D03*
X003248Y002664D03*
X003248Y002663D03*
X003248Y002663D03*
X003248Y002662D03*
X003248Y002662D03*
X003248Y002661D03*
X003248Y002661D03*
X003248Y002660D03*
X003248Y002660D03*
X003248Y002659D03*
X003248Y002659D03*
X003248Y002658D03*
X003248Y002658D03*
X003248Y002657D03*
X003248Y002657D03*
X003248Y002656D03*
X003248Y002656D03*
X003248Y002655D03*
X003248Y002655D03*
X003248Y002654D03*
X003248Y002654D03*
X003248Y002653D03*
X003248Y002653D03*
X003248Y002652D03*
X003248Y002652D03*
X003248Y002651D03*
X003248Y002651D03*
X003248Y002650D03*
X003248Y002650D03*
X003248Y002649D03*
X003248Y002649D03*
X003248Y002648D03*
X003248Y002648D03*
X003248Y002647D03*
X003248Y002647D03*
X003248Y002646D03*
X003248Y002646D03*
X003248Y002645D03*
X003248Y002645D03*
X003248Y002644D03*
X003248Y002644D03*
X003248Y002643D03*
X003248Y002643D03*
X003248Y002642D03*
X003248Y002642D03*
X003248Y002641D03*
X003248Y002641D03*
X003248Y002640D03*
X003248Y002640D03*
X003248Y002639D03*
X003248Y002639D03*
X003248Y002638D03*
X003248Y002638D03*
X003248Y002637D03*
X003248Y002637D03*
X003248Y002636D03*
X003248Y002636D03*
X003248Y002635D03*
X003248Y002635D03*
X003248Y002634D03*
X003248Y002634D03*
X003248Y002633D03*
X003248Y002633D03*
X003248Y002632D03*
X003248Y002632D03*
X003248Y002631D03*
X003248Y002631D03*
X003248Y002630D03*
X003248Y002630D03*
X003248Y002629D03*
X003248Y002629D03*
X003248Y002628D03*
X003248Y002628D03*
X003248Y002627D03*
X003248Y002627D03*
X003248Y002626D03*
X003248Y002626D03*
X003248Y002625D03*
X003248Y002625D03*
X003248Y002624D03*
X003248Y002624D03*
X003248Y002623D03*
X003248Y002623D03*
X003248Y002622D03*
X003248Y002622D03*
X003248Y002621D03*
X003248Y002621D03*
X003248Y002620D03*
X003248Y002620D03*
X003248Y002619D03*
X003248Y002619D03*
X003248Y002618D03*
X003248Y002618D03*
X003248Y002617D03*
X003248Y002617D03*
X003248Y002616D03*
X003248Y002616D03*
X003248Y002615D03*
X003248Y002615D03*
X003248Y002614D03*
X003248Y002614D03*
X003248Y002613D03*
X003248Y002613D03*
X003248Y002612D03*
X003248Y002612D03*
X003248Y002611D03*
X003248Y002611D03*
X003248Y002610D03*
X003248Y002610D03*
X003248Y002609D03*
X003248Y002609D03*
X003248Y002608D03*
X003248Y002608D03*
X003248Y002607D03*
X003248Y002607D03*
X003248Y002606D03*
X003248Y002606D03*
X003248Y002605D03*
X003248Y002605D03*
X003248Y002604D03*
X003248Y002604D03*
X003248Y002603D03*
X003248Y002603D03*
X003248Y002602D03*
X003248Y002602D03*
X003248Y002601D03*
X003248Y002601D03*
X003248Y002600D03*
X003248Y002600D03*
X003248Y002599D03*
X003248Y002599D03*
X003248Y002598D03*
X003248Y002598D03*
X003248Y002597D03*
X003248Y002597D03*
X003248Y002596D03*
X003248Y002596D03*
X003248Y002595D03*
X003248Y002595D03*
X003248Y002594D03*
X003248Y002594D03*
X003248Y002593D03*
X003248Y002593D03*
X003248Y002592D03*
X003248Y002592D03*
X003248Y002591D03*
X003248Y002591D03*
X003248Y002590D03*
X003248Y002590D03*
X003248Y002589D03*
X003248Y002589D03*
X003248Y002588D03*
X003248Y002588D03*
X003248Y002587D03*
X003248Y002587D03*
X003248Y002586D03*
X003248Y002586D03*
X003248Y002585D03*
X003248Y002585D03*
X003248Y002584D03*
X003248Y002584D03*
X003248Y002583D03*
X003248Y002583D03*
X003248Y002582D03*
X003248Y002582D03*
X003248Y002581D03*
X003248Y002581D03*
X003248Y002580D03*
X003248Y002580D03*
X003248Y002579D03*
X003248Y002579D03*
X003248Y002578D03*
X003248Y002578D03*
X003248Y002577D03*
X003248Y002577D03*
X003248Y002576D03*
X003248Y002576D03*
X003248Y002575D03*
X003248Y002575D03*
X003248Y002574D03*
X003248Y002574D03*
X003248Y002573D03*
D342*
X002693Y002574D03*
X002693Y002574D03*
X002693Y002573D03*
X002693Y002575D03*
X002693Y002575D03*
X002693Y002576D03*
X002693Y002576D03*
X002693Y002577D03*
X002693Y002577D03*
X002693Y002578D03*
X002693Y002578D03*
X002693Y002579D03*
X002693Y002579D03*
X002693Y002580D03*
X002693Y002580D03*
X002693Y002581D03*
X002693Y002581D03*
X002693Y002582D03*
X002693Y002582D03*
X002693Y002583D03*
X002693Y002583D03*
X002693Y002584D03*
X002693Y002584D03*
X002693Y002585D03*
X002693Y002585D03*
X002693Y002586D03*
X002693Y002586D03*
X002693Y002587D03*
X002693Y002587D03*
X002693Y002588D03*
X002693Y002588D03*
X002693Y002589D03*
X002693Y002589D03*
X002693Y002590D03*
X002693Y002590D03*
X002693Y002591D03*
X002693Y002591D03*
X002693Y002592D03*
X002693Y002592D03*
X002693Y002593D03*
X002693Y002593D03*
X002693Y002594D03*
X002693Y002594D03*
X002693Y002595D03*
X002693Y002595D03*
X002693Y002596D03*
X002693Y002596D03*
X002693Y002597D03*
X002693Y002597D03*
X002693Y002598D03*
X002693Y002598D03*
X002693Y002599D03*
X002693Y002599D03*
X002693Y002600D03*
X002693Y002600D03*
X002693Y002601D03*
X002693Y002601D03*
X002693Y002602D03*
X002693Y002602D03*
X002693Y002603D03*
X002693Y002603D03*
X002693Y002604D03*
X002693Y002604D03*
X002693Y002605D03*
X002693Y002605D03*
X002693Y002606D03*
X002693Y002606D03*
X002693Y002607D03*
X002693Y002607D03*
X002693Y002608D03*
X002693Y002608D03*
X002693Y002609D03*
X002693Y002609D03*
X002693Y002610D03*
X002693Y002610D03*
X002693Y002611D03*
X002693Y002611D03*
X002693Y002612D03*
X002693Y002612D03*
X002693Y002613D03*
X002693Y002613D03*
X002693Y002614D03*
X002693Y002614D03*
X002693Y002615D03*
X002693Y002615D03*
X002693Y002616D03*
X002693Y002616D03*
X002693Y002617D03*
X002693Y002617D03*
X002693Y002618D03*
X002693Y002618D03*
X002693Y002619D03*
X002693Y002619D03*
X002693Y002620D03*
X002693Y002620D03*
X002693Y002621D03*
X002693Y002621D03*
X002693Y002622D03*
X002693Y002622D03*
X002693Y002623D03*
X002693Y002623D03*
X002693Y002624D03*
X002693Y002624D03*
X002693Y002625D03*
X002693Y002625D03*
X002693Y002626D03*
X002693Y002626D03*
X002693Y002627D03*
X002693Y002627D03*
X002693Y002628D03*
X002693Y002628D03*
X002693Y002629D03*
X002693Y002629D03*
X002693Y002630D03*
X002693Y002630D03*
X002693Y002631D03*
X002693Y002631D03*
X002693Y002632D03*
X002693Y002632D03*
X002693Y002633D03*
X002693Y002633D03*
X002693Y002634D03*
X002693Y002634D03*
X002693Y002635D03*
X002693Y002635D03*
X002693Y002636D03*
X002693Y002636D03*
X002693Y002637D03*
X002693Y002637D03*
X002693Y002638D03*
X002693Y002638D03*
X002693Y002639D03*
X002693Y002639D03*
X002693Y002640D03*
X002693Y002640D03*
X002693Y002641D03*
X002693Y002641D03*
X002693Y002642D03*
X002693Y002642D03*
X002693Y002643D03*
X002693Y002643D03*
X002693Y002644D03*
X002693Y002644D03*
X002693Y002645D03*
X002693Y002645D03*
X002693Y002646D03*
X002693Y002646D03*
X002693Y002647D03*
X002693Y002647D03*
X002693Y002648D03*
X002693Y002648D03*
X002693Y002649D03*
X002693Y002649D03*
X002693Y002650D03*
X002693Y002650D03*
X002693Y002651D03*
X002693Y002651D03*
X002693Y002652D03*
X002693Y002652D03*
X002693Y002653D03*
X002693Y002653D03*
X002693Y002654D03*
X002693Y002654D03*
X002693Y002655D03*
X002693Y002655D03*
X002693Y002656D03*
X002693Y002656D03*
X002693Y002657D03*
X002693Y002657D03*
X002693Y002658D03*
X002693Y002658D03*
X002693Y002659D03*
X002693Y002659D03*
X002693Y002660D03*
X002693Y002660D03*
X002693Y002661D03*
X002693Y002661D03*
X002693Y002662D03*
X002693Y002662D03*
X002693Y002663D03*
X002693Y002663D03*
X002693Y002664D03*
X002693Y002664D03*
X002693Y002665D03*
X002693Y002665D03*
X002693Y002666D03*
X002693Y002666D03*
X002693Y002667D03*
X002693Y002667D03*
X002693Y002668D03*
X002693Y002668D03*
X002693Y002669D03*
X002693Y002669D03*
X002693Y002670D03*
X002693Y002670D03*
X002693Y002671D03*
X002693Y002671D03*
X002693Y002672D03*
X002693Y002672D03*
X002693Y002673D03*
X002693Y002673D03*
X002693Y002674D03*
X002693Y002674D03*
X002693Y002675D03*
X002693Y002675D03*
X002693Y002676D03*
X002693Y002676D03*
X002693Y002677D03*
X002693Y002677D03*
X002693Y002678D03*
X002693Y002678D03*
X002693Y002679D03*
X002693Y002679D03*
X002693Y002680D03*
X002693Y002680D03*
X002693Y002681D03*
X002693Y002681D03*
X002693Y002682D03*
X002693Y002682D03*
X002693Y002683D03*
X002693Y002683D03*
X002693Y002684D03*
X002693Y002684D03*
X002693Y002685D03*
X002693Y002685D03*
X002693Y002686D03*
X002693Y002686D03*
X002693Y002687D03*
X002693Y002687D03*
X002693Y002688D03*
X002693Y002688D03*
X002693Y002689D03*
X002693Y002689D03*
X002693Y002690D03*
X002693Y002690D03*
X002693Y002691D03*
X002693Y002691D03*
X002693Y002692D03*
X002693Y002692D03*
X002693Y002693D03*
X002693Y002693D03*
X002693Y002694D03*
X002693Y002694D03*
X002693Y002695D03*
X002693Y002695D03*
X002693Y002696D03*
X002693Y002696D03*
X002693Y002697D03*
X002693Y002697D03*
X002693Y002698D03*
X002693Y002698D03*
X002693Y002699D03*
X002693Y002699D03*
X002693Y002700D03*
X002693Y002700D03*
X002693Y002701D03*
X002693Y002701D03*
D343*
X002975Y002738D03*
X002975Y002739D03*
D344*
X002974Y002739D03*
X002974Y002740D03*
X002974Y002740D03*
X002974Y002741D03*
X002974Y002741D03*
X002974Y002742D03*
X002974Y002742D03*
D345*
X002974Y002743D03*
D346*
X002974Y002743D03*
X002974Y002744D03*
X002974Y002744D03*
X002974Y002745D03*
X002974Y002745D03*
D347*
X002974Y002746D03*
X002974Y002746D03*
D348*
X002974Y002747D03*
X002974Y002747D03*
X002974Y002748D03*
X002974Y002748D03*
D349*
X002974Y002749D03*
X002974Y002749D03*
D350*
X002974Y002750D03*
X002974Y002750D03*
X002974Y002751D03*
D351*
X002974Y002751D03*
X002974Y002752D03*
D352*
X002974Y002752D03*
X002974Y002753D03*
X002974Y002753D03*
D353*
X002974Y002754D03*
X002974Y002754D03*
D354*
X002974Y002755D03*
X002974Y002755D03*
X002974Y002756D03*
D355*
X002974Y002756D03*
D356*
X002974Y002757D03*
X002974Y002757D03*
X002974Y002758D03*
X002974Y002758D03*
D357*
X002974Y002759D03*
X002974Y002759D03*
X002974Y002760D03*
X002974Y002760D03*
D358*
X002974Y002761D03*
X002974Y002761D03*
X002974Y002762D03*
X002974Y002762D03*
D359*
X002974Y002763D03*
X002974Y002763D03*
X002974Y002764D03*
X002974Y002764D03*
D360*
X002974Y002765D03*
X002974Y002765D03*
X002974Y002766D03*
X002974Y002766D03*
D361*
X002974Y002767D03*
X002974Y002767D03*
X002974Y002768D03*
D362*
X002975Y002768D03*
D363*
X002974Y002769D03*
X002974Y002769D03*
D364*
X002975Y002770D03*
D365*
X002974Y002770D03*
X002974Y002771D03*
X002974Y002771D03*
D366*
X002975Y002772D03*
D367*
X002974Y002772D03*
X002974Y002773D03*
D368*
X002975Y002773D03*
D369*
X002974Y002774D03*
X002974Y002774D03*
D370*
X002975Y002775D03*
D371*
X002974Y002775D03*
X002974Y002776D03*
D372*
X002975Y002776D03*
D373*
X002974Y002777D03*
D374*
X002975Y002777D03*
D375*
X002974Y002778D03*
X002974Y002778D03*
D376*
X002975Y002779D03*
D377*
X002974Y002779D03*
X002974Y002780D03*
D378*
X002975Y002780D03*
D379*
X002974Y002781D03*
D380*
X002975Y002781D03*
D381*
X002974Y002782D03*
X002974Y002782D03*
D382*
X002975Y002783D03*
D383*
X002974Y002783D03*
D384*
X002975Y002784D03*
D385*
X002975Y002784D03*
D386*
X002975Y002785D03*
D387*
X002974Y002785D03*
D388*
X002974Y002786D03*
D389*
X002974Y002786D03*
D390*
X002974Y002787D03*
D391*
X002974Y002787D03*
D392*
X002974Y002788D03*
D393*
X002974Y002788D03*
D394*
X002974Y002789D03*
D395*
X002974Y002789D03*
D396*
X002974Y002790D03*
D397*
X002974Y002790D03*
D398*
X002974Y002791D03*
D399*
X002974Y002791D03*
D400*
X002974Y002792D03*
D401*
X002974Y002792D03*
D402*
X002974Y002793D03*
D403*
X002974Y002793D03*
D404*
X002974Y002794D03*
D405*
X002974Y002794D03*
D406*
X002974Y002795D03*
D407*
X002974Y002795D03*
D408*
X002974Y002796D03*
D409*
X002974Y002796D03*
D410*
X002974Y002797D03*
D411*
X002974Y002797D03*
D412*
X002974Y002798D03*
D413*
X002974Y002798D03*
D414*
X002974Y002799D03*
D415*
X002974Y002799D03*
D416*
X002974Y002800D03*
D417*
X002974Y002800D03*
D418*
X002974Y002801D03*
D419*
X002975Y002801D03*
D420*
X002975Y002802D03*
D421*
X002975Y002802D03*
D422*
X002975Y002803D03*
D423*
X002975Y002803D03*
D424*
X002975Y002804D03*
D425*
X002975Y002804D03*
D426*
X002975Y002805D03*
D427*
X002975Y002805D03*
D428*
X002975Y002806D03*
D429*
X002975Y002806D03*
D430*
X002975Y002807D03*
D431*
X002975Y002807D03*
D432*
X002975Y002808D03*
D433*
X002975Y002808D03*
D434*
X002975Y002809D03*
D435*
X002975Y002809D03*
D436*
X002974Y002810D03*
D437*
X002974Y002810D03*
D438*
X002974Y002811D03*
D439*
X002974Y002811D03*
D440*
X002974Y002812D03*
D441*
X002974Y002812D03*
D442*
X002974Y002813D03*
D443*
X002974Y002813D03*
D444*
X002974Y002814D03*
D445*
X002974Y002814D03*
D446*
X002974Y002815D03*
D447*
X002974Y002815D03*
D448*
X002974Y002816D03*
D449*
X002974Y002816D03*
D450*
X002974Y002817D03*
D451*
X002974Y002817D03*
D452*
X002974Y002818D03*
D453*
X002974Y002818D03*
D454*
X002974Y002819D03*
D455*
X002974Y002819D03*
D456*
X002974Y002820D03*
D457*
X002974Y002820D03*
D458*
X002974Y002821D03*
D459*
X002974Y002821D03*
D460*
X002974Y002822D03*
D461*
X002974Y002822D03*
D462*
X002974Y002823D03*
D463*
X002974Y002823D03*
D464*
X002974Y002824D03*
D465*
X002974Y002824D03*
D466*
X002974Y002825D03*
D467*
X002974Y002825D03*
D468*
X002975Y002826D03*
D469*
X002975Y002826D03*
D470*
X002975Y002827D03*
D471*
X002975Y002827D03*
D472*
X002975Y002828D03*
D473*
X002975Y002828D03*
D474*
X002975Y002829D03*
D475*
X002975Y002829D03*
D476*
X002975Y002830D03*
D477*
X002975Y002830D03*
D478*
X002975Y002831D03*
D479*
X002975Y002831D03*
D480*
X002975Y002832D03*
D481*
X002975Y002832D03*
D482*
X002975Y002833D03*
D483*
X002975Y002833D03*
D484*
X002975Y002834D03*
D485*
X002974Y002834D03*
D486*
X002974Y002835D03*
D487*
X002974Y002835D03*
D488*
X002974Y002836D03*
D489*
X002974Y002836D03*
D490*
X002974Y002837D03*
D491*
X002974Y002837D03*
D492*
X002974Y002838D03*
D493*
X002974Y002838D03*
D494*
X002974Y002839D03*
D495*
X002974Y002839D03*
D496*
X002974Y002840D03*
D497*
X002974Y002840D03*
D498*
X002974Y002841D03*
D499*
X002974Y002841D03*
D500*
X002974Y002842D03*
D501*
X002974Y002842D03*
D502*
X002974Y002843D03*
D503*
X002974Y002843D03*
D504*
X002974Y002844D03*
D505*
X002974Y002844D03*
D506*
X002974Y002845D03*
D507*
X002974Y002845D03*
D508*
X002974Y002846D03*
D509*
X002974Y002846D03*
D510*
X002974Y002847D03*
D511*
X002974Y002847D03*
D512*
X002974Y002848D03*
D513*
X002974Y002848D03*
D514*
X002974Y002849D03*
D515*
X002974Y002849D03*
D516*
X002974Y002850D03*
D517*
X002974Y002850D03*
D518*
X002975Y002851D03*
D519*
X002975Y002851D03*
D520*
X002975Y002852D03*
D521*
X002975Y002852D03*
D522*
X002975Y002853D03*
D523*
X002975Y002853D03*
D524*
X002975Y002854D03*
D525*
X002975Y002854D03*
D526*
X002975Y002855D03*
D527*
X002975Y002855D03*
D528*
X002975Y002856D03*
D529*
X002975Y002856D03*
D530*
X002975Y002857D03*
D531*
X002975Y002857D03*
D532*
X002975Y002858D03*
D533*
X002974Y002858D03*
D534*
X002974Y002859D03*
D535*
X002974Y002859D03*
D536*
X002974Y002860D03*
D537*
X002974Y002860D03*
D538*
X002974Y002861D03*
D539*
X002974Y002861D03*
D540*
X002974Y002862D03*
D541*
X002974Y002862D03*
D542*
X002974Y002863D03*
D543*
X002974Y002863D03*
D544*
X002974Y002864D03*
D545*
X002974Y002864D03*
D546*
X002974Y002865D03*
D547*
X002974Y002865D03*
D548*
X002974Y002866D03*
D549*
X002974Y002866D03*
D550*
X002974Y002867D03*
D551*
X002974Y002867D03*
D552*
X002974Y002868D03*
D553*
X002974Y002868D03*
D554*
X002974Y002869D03*
D555*
X002974Y002869D03*
D556*
X002974Y002870D03*
D557*
X002974Y002870D03*
D558*
X002974Y002871D03*
D559*
X002974Y002871D03*
D560*
X002974Y002872D03*
D561*
X002974Y002872D03*
D562*
X002974Y002873D03*
D563*
X002974Y002873D03*
D564*
X002974Y002874D03*
D565*
X002974Y002874D03*
D566*
X002974Y002875D03*
D567*
X002975Y002875D03*
D568*
X002975Y002876D03*
D569*
X002975Y002876D03*
D570*
X002975Y002877D03*
D571*
X002975Y002877D03*
D572*
X002975Y002878D03*
D573*
X002975Y002878D03*
D574*
X002975Y002879D03*
D575*
X002975Y002879D03*
D576*
X002975Y002880D03*
D577*
X002975Y002880D03*
D578*
X002975Y002881D03*
D579*
X002975Y002881D03*
D580*
X002975Y002882D03*
D581*
X002975Y002882D03*
D582*
X002974Y002883D03*
D583*
X002974Y002883D03*
D584*
X002974Y002884D03*
D585*
X002974Y002884D03*
D586*
X002974Y002885D03*
D587*
X002974Y002885D03*
D588*
X002974Y002886D03*
D589*
X002974Y002886D03*
D590*
X002974Y002887D03*
D591*
X002974Y002887D03*
D592*
X002974Y002888D03*
D593*
X002974Y002888D03*
D594*
X002974Y002889D03*
D595*
X002974Y002889D03*
D596*
X002974Y002890D03*
D597*
X002974Y002890D03*
D598*
X002974Y002891D03*
D599*
X002974Y002891D03*
D600*
X002974Y002892D03*
D601*
X002974Y002892D03*
D602*
X002974Y002893D03*
D603*
X002974Y002893D03*
D604*
X002974Y002894D03*
D605*
X002974Y002894D03*
D606*
X002974Y002895D03*
D607*
X002974Y002895D03*
D608*
X002974Y002896D03*
D609*
X002974Y002896D03*
D610*
X002974Y002897D03*
D611*
X002974Y002897D03*
D612*
X002974Y002898D03*
D613*
X002974Y002898D03*
D614*
X002974Y002899D03*
D615*
X002974Y002899D03*
D616*
X002975Y002900D03*
D617*
X002975Y002900D03*
D618*
X002975Y002901D03*
D619*
X002975Y002901D03*
D620*
X002975Y002902D03*
D621*
X002975Y002902D03*
D622*
X002975Y002903D03*
D623*
X002975Y002903D03*
D624*
X002975Y002904D03*
D625*
X002975Y002904D03*
D626*
X002975Y002905D03*
D627*
X002975Y002905D03*
D628*
X002975Y002906D03*
D629*
X002975Y002906D03*
D630*
X002975Y002907D03*
D631*
X002974Y002907D03*
D632*
X002974Y002908D03*
D633*
X002974Y002908D03*
D634*
X002974Y002909D03*
D635*
X002974Y002909D03*
D636*
X002974Y002910D03*
D637*
X002974Y002910D03*
D638*
X002974Y002911D03*
D639*
X002974Y002911D03*
D640*
X002974Y002912D03*
D641*
X002974Y002912D03*
D642*
X002974Y002913D03*
D643*
X002974Y002913D03*
D644*
X002974Y002914D03*
D645*
X002974Y002914D03*
D646*
X002974Y002915D03*
D647*
X002974Y002915D03*
D648*
X002974Y002916D03*
D649*
X002974Y002916D03*
D650*
X002974Y002917D03*
D651*
X002974Y002917D03*
D652*
X002974Y002918D03*
D653*
X002975Y002918D03*
D654*
X002974Y002919D03*
D655*
X002974Y002919D03*
D656*
X002974Y002920D03*
D657*
X002974Y002920D03*
D658*
X002974Y002921D03*
D659*
X002975Y002921D03*
D660*
X002975Y002922D03*
D661*
X002975Y002922D03*
D662*
X002975Y002923D03*
D663*
X002975Y002923D03*
D664*
X002975Y002924D03*
D665*
X002975Y002924D03*
D666*
X002975Y002925D03*
D667*
X002975Y002925D03*
D668*
X002975Y002926D03*
D669*
X002975Y002926D03*
D670*
X002975Y002927D03*
D671*
X002975Y002927D03*
D672*
X002975Y002928D03*
D673*
X002975Y002928D03*
D674*
X003478Y001875D02*
X003477Y001875D01*
X003477Y001875D01*
X003478Y001874D01*
X003478Y001875D01*
X003478Y001875D01*
X003478Y001874D01*
X003478Y001874D01*
X003479Y001875D02*
X003479Y001874D01*
X003479Y001875D01*
X003479Y001875D01*
X003479Y001875D01*
X003479Y001875D01*
X003479Y001875D01*
X003479Y001875D01*
X003479Y001874D01*
X003480Y001874D01*
X003480Y001875D01*
X003479Y001875D01*
X003478Y001875D01*
X003480Y001875D02*
X003480Y001874D01*
X003480Y001874D01*
X003480Y001875D01*
X003480Y001875D01*
X003481Y001875D02*
X003481Y001875D01*
X003481Y001875D01*
X003481Y001875D01*
X003481Y001875D01*
X003481Y001875D01*
X003481Y001874D01*
X003481Y001874D01*
X003481Y001875D01*
X003482Y001875D02*
X003482Y001875D01*
X003482Y001875D01*
X003482Y001875D01*
X003482Y001874D01*
X003482Y001874D01*
X003482Y001874D01*
X003482Y001874D01*
X003482Y001875D01*
X003483Y001875D02*
X003483Y001875D01*
X003483Y001875D01*
X003483Y001875D01*
X003483Y001875D01*
X003483Y001874D01*
X003483Y001874D01*
X003483Y001875D01*
X003483Y001875D01*
X003484Y001874D02*
X003483Y001874D01*
X003484Y001875D02*
X003484Y001874D01*
X003485Y001874D01*
X003485Y001874D01*
X003485Y001875D01*
X003485Y001875D01*
X003485Y001876D01*
X003486Y001875D02*
X003486Y001875D01*
X003486Y001875D01*
X003486Y001875D01*
X003486Y001875D01*
X003486Y001874D01*
X003486Y001875D01*
X003486Y001874D02*
X003486Y001874D01*
X003487Y001874D02*
X003487Y001875D01*
X003488Y001875D01*
X003488Y001875D01*
X003488Y001875D01*
X003488Y001875D01*
X003488Y001874D01*
X003488Y001874D01*
X003489Y001874D01*
X003489Y001875D01*
X003489Y001875D01*
X003489Y001875D01*
X003488Y001875D01*
X003487Y001875D02*
X003487Y001875D01*
X003488Y001874D01*
X003489Y001875D02*
X003489Y001875D01*
X003490Y001875D01*
X003490Y001875D01*
X003490Y001875D01*
X003489Y001875D01*
X003489Y001874D01*
X003490Y001874D01*
X003491Y001874D01*
X003491Y001875D01*
X003491Y001874D01*
X003490Y001875D02*
X003490Y001874D01*
X003491Y001875D02*
X003490Y001875D01*
X003490Y001876D01*
X003492Y001874D02*
X003492Y001875D01*
X003493Y001875D02*
X003493Y001875D01*
X003493Y001875D01*
X003493Y001875D01*
X003493Y001875D01*
X003493Y001875D01*
X003493Y001875D01*
X003493Y001874D01*
X003493Y001874D01*
X003494Y001875D02*
X003494Y001874D01*
X003494Y001875D01*
X003494Y001875D01*
X003494Y001875D01*
X003494Y001875D01*
X003494Y001874D01*
X003494Y001875D02*
X003494Y001875D01*
X003494Y001875D01*
X003495Y001875D01*
X003495Y001875D01*
X003495Y001875D01*
X003495Y001875D01*
X003495Y001874D01*
X003495Y001874D01*
X003494Y001875D01*
X003495Y001875D02*
X003495Y001874D01*
X003496Y001875D02*
X003495Y001875D01*
X003496Y001875D02*
X003496Y001875D01*
X003496Y001875D01*
X003496Y001874D01*
X003497Y001874D02*
X003496Y001875D01*
X003484Y001875D02*
X003484Y001875D01*
D675*
X000522Y000240D02*
X000469Y000293D01*
X000469Y000507D01*
X000522Y000560D01*
X000682Y000560D01*
X000682Y000240D01*
X000522Y000240D01*
X000791Y000240D02*
X000791Y000560D01*
X001005Y000560D02*
X000791Y000240D01*
X001005Y000240D02*
X001005Y000560D01*
X001113Y000507D02*
X001167Y000560D01*
X001273Y000560D01*
X001327Y000507D01*
X001327Y000293D01*
X001273Y000240D01*
X001167Y000240D01*
X001113Y000293D01*
X001113Y000400D01*
X001220Y000400D01*
X001707Y000440D02*
X001761Y000493D01*
X001761Y000707D01*
X001814Y000654D02*
X001707Y000654D01*
X001923Y000654D02*
X001923Y000440D01*
X002083Y000440D01*
X002137Y000493D01*
X002137Y000654D01*
X002245Y000600D02*
X002299Y000654D01*
X002405Y000654D01*
X002459Y000600D01*
X002459Y000493D01*
X002405Y000440D01*
X002299Y000440D01*
X002245Y000493D01*
X002245Y000600D01*
X002567Y000654D02*
X002727Y000547D01*
X002567Y000440D01*
X002727Y000440D02*
X002727Y000760D01*
X002889Y000654D02*
X002836Y000600D01*
X002836Y000440D01*
X002996Y000440D01*
X003050Y000493D01*
X002996Y000547D01*
X002836Y000547D01*
X002889Y000654D02*
X002996Y000654D01*
X003158Y000600D02*
X003158Y000547D01*
X003372Y000547D01*
X003372Y000600D02*
X003372Y000493D01*
X003319Y000440D01*
X003212Y000440D01*
X003158Y000600D02*
X003212Y000654D01*
X003319Y000654D01*
X003372Y000600D01*
X003480Y000654D02*
X003534Y000654D01*
X003640Y000547D01*
X003749Y000547D02*
X003749Y000493D01*
X003803Y000440D01*
X003963Y000440D01*
X003963Y000760D01*
X003803Y000760D01*
X003749Y000707D01*
X003749Y000654D01*
X003803Y000600D01*
X003963Y000600D01*
X003803Y000600D02*
X003749Y000547D01*
X003640Y000440D02*
X003640Y000654D01*
X003426Y000965D02*
X003319Y001072D01*
X003212Y000965D01*
X003212Y001285D01*
X003103Y001232D02*
X003103Y001179D01*
X003050Y001125D01*
X002943Y001125D01*
X002890Y001072D01*
X002890Y001018D01*
X002943Y000965D01*
X003050Y000965D01*
X003103Y001018D01*
X003426Y000965D02*
X003426Y001285D01*
X003103Y001232D02*
X003050Y001285D01*
X002943Y001285D01*
X002890Y001232D01*
X002781Y001232D02*
X002728Y001285D01*
X002621Y001285D01*
X002568Y001232D01*
X002568Y001179D01*
X002781Y000965D01*
X002568Y000965D01*
X002459Y001018D02*
X002459Y001072D01*
X002405Y001125D01*
X002299Y001125D01*
X002245Y001072D01*
X002245Y001018D01*
X002299Y000965D01*
X002405Y000965D01*
X002459Y001018D01*
X002405Y001125D02*
X002459Y001179D01*
X002459Y001232D01*
X002405Y001285D01*
X002299Y001285D01*
X002245Y001232D01*
X002245Y001179D01*
X002299Y001125D01*
X002137Y001179D02*
X002030Y001285D01*
X002030Y000965D01*
X002137Y000965D02*
X001923Y000965D01*
X001814Y000965D02*
X001601Y001179D01*
X001601Y001232D01*
X001654Y001285D01*
X001761Y001285D01*
X001814Y001232D01*
X001814Y000965D02*
X001601Y000965D01*
X001640Y001753D02*
X001640Y001913D01*
X001693Y001966D01*
X001907Y001966D01*
X001960Y001913D01*
X001960Y001753D01*
X001640Y001753D01*
X001640Y002075D02*
X001640Y002182D01*
X001640Y002129D02*
X001960Y002129D01*
X001960Y002182D02*
X001960Y002075D01*
X001910Y002723D02*
X001697Y002723D01*
X001590Y002830D01*
X001697Y002937D01*
X001910Y002937D01*
X001857Y003045D02*
X001643Y003045D01*
X001590Y003099D01*
X001590Y003206D01*
X001643Y003259D01*
X001643Y003368D02*
X001590Y003421D01*
X001590Y003528D01*
X001643Y003581D01*
X001857Y003581D02*
X001910Y003528D01*
X001910Y003421D01*
X001857Y003368D01*
X001643Y003368D01*
X001857Y003259D02*
X001910Y003206D01*
X001910Y003099D01*
X001857Y003045D01*
X003940Y002228D02*
X003940Y002121D01*
X003993Y002068D01*
X004207Y002068D01*
X004260Y002121D01*
X004260Y002228D01*
X004207Y002281D01*
X003993Y002281D01*
X003940Y002228D01*
X003993Y001959D02*
X004207Y001959D01*
X004260Y001906D01*
X004260Y001745D01*
X003940Y001745D01*
X003940Y001906D01*
X003993Y001959D01*
X003909Y001339D02*
X003909Y001285D01*
X003909Y001179D02*
X003909Y000965D01*
X003856Y000965D02*
X003963Y000965D01*
X004071Y000965D02*
X004071Y001179D01*
X004178Y001285D01*
X004285Y001179D01*
X004285Y000965D01*
X004285Y001125D02*
X004071Y001125D01*
X003963Y001179D02*
X003909Y001179D01*
X004572Y000560D02*
X004732Y000560D01*
X004732Y000240D01*
X004572Y000240D01*
X004519Y000293D01*
X004519Y000507D01*
X004572Y000560D01*
X004841Y000560D02*
X004841Y000240D01*
X005055Y000560D01*
X005055Y000240D01*
X005163Y000293D02*
X005163Y000400D01*
X005270Y000400D01*
X005163Y000293D02*
X005217Y000240D01*
X005323Y000240D01*
X005377Y000293D01*
X005377Y000507D01*
X005323Y000560D01*
X005217Y000560D01*
X005163Y000507D01*
X004285Y002723D02*
X004072Y002723D01*
X003965Y002830D01*
X004072Y002937D01*
X004285Y002937D01*
X004232Y003045D02*
X004018Y003045D01*
X003965Y003099D01*
X003965Y003206D01*
X004018Y003259D01*
X004018Y003368D02*
X003965Y003421D01*
X003965Y003528D01*
X004018Y003581D01*
X004232Y003581D02*
X004285Y003528D01*
X004285Y003421D01*
X004232Y003368D01*
X004018Y003368D01*
X004232Y003259D02*
X004285Y003206D01*
X004285Y003099D01*
X004232Y003045D01*
M02*
