G75*
G70*
%OFA0B0*%
%FSLAX24Y24*%
%IPPOS*%
%LPD*%
%AMOC8*
5,1,8,0,0,1.08239X$1,22.5*
%
%ADD10C,0.0740*%
%ADD11C,0.0320*%
%ADD12C,0.0100*%
D10*
X000925Y001175D03*
X000925Y002175D03*
X000925Y003175D03*
X004925Y003175D03*
X004925Y002175D03*
X004925Y001175D03*
D11*
X004925Y003175D02*
X000925Y003175D01*
D12*
X000650Y000732D02*
X000650Y000650D01*
X005200Y000650D01*
X005200Y000732D01*
X005198Y000730D01*
X005125Y000693D01*
X005047Y000668D01*
X004975Y000656D01*
X004975Y001125D01*
X004875Y001125D01*
X004875Y000656D01*
X004803Y000668D01*
X004725Y000693D01*
X004652Y000730D01*
X004586Y000778D01*
X004528Y000836D01*
X004480Y000902D01*
X004443Y000975D01*
X004418Y001053D01*
X004406Y001125D01*
X004875Y001125D01*
X004875Y001225D01*
X004406Y001225D01*
X004418Y001297D01*
X004443Y001375D01*
X004480Y001448D01*
X004528Y001514D01*
X004586Y001572D01*
X004652Y001620D01*
X004725Y001657D01*
X004803Y001682D01*
X004807Y001683D01*
X004642Y001751D01*
X001208Y001751D01*
X001349Y001892D01*
X001425Y002076D01*
X001425Y002274D01*
X001349Y002458D01*
X001208Y002599D01*
X001024Y002675D01*
X001208Y002751D01*
X001342Y002885D01*
X004508Y002885D01*
X004642Y002751D01*
X004826Y002675D01*
X004642Y002599D01*
X004501Y002458D01*
X004425Y002274D01*
X004425Y002076D01*
X004501Y001892D01*
X004642Y001751D01*
X004717Y001653D02*
X001133Y001653D01*
X001125Y001657D02*
X001047Y001682D01*
X001043Y001683D01*
X001208Y001751D01*
X001125Y001657D02*
X001198Y001620D01*
X001264Y001572D01*
X001322Y001514D01*
X001370Y001448D01*
X001407Y001375D01*
X001432Y001297D01*
X001444Y001225D01*
X000975Y001225D01*
X000975Y001125D01*
X001444Y001125D01*
X001432Y001053D01*
X001407Y000975D01*
X001370Y000902D01*
X001322Y000836D01*
X001264Y000778D01*
X001198Y000730D01*
X001125Y000693D01*
X001047Y000668D01*
X000975Y000656D01*
X000975Y001125D01*
X000875Y001125D01*
X000875Y000656D01*
X000803Y000668D01*
X000725Y000693D01*
X000652Y000730D01*
X000650Y000732D01*
X000650Y000668D02*
X000805Y000668D01*
X000875Y000668D02*
X000975Y000668D01*
X001045Y000668D02*
X004805Y000668D01*
X004875Y000668D02*
X004975Y000668D01*
X005045Y000668D02*
X005200Y000668D01*
X004975Y000766D02*
X004875Y000766D01*
X004875Y000865D02*
X004975Y000865D01*
X004975Y000963D02*
X004875Y000963D01*
X004875Y001062D02*
X004975Y001062D01*
X004875Y001160D02*
X000975Y001160D01*
X000975Y001062D02*
X000875Y001062D01*
X000875Y000963D02*
X000975Y000963D01*
X000975Y000865D02*
X000875Y000865D01*
X000875Y000766D02*
X000975Y000766D01*
X001247Y000766D02*
X004603Y000766D01*
X004508Y000865D02*
X001342Y000865D01*
X001401Y000963D02*
X004449Y000963D01*
X004416Y001062D02*
X001434Y001062D01*
X001438Y001259D02*
X004412Y001259D01*
X004437Y001357D02*
X001413Y001357D01*
X001364Y001456D02*
X004486Y001456D01*
X004569Y001554D02*
X001281Y001554D01*
X001307Y001850D02*
X004543Y001850D01*
X004478Y001948D02*
X001372Y001948D01*
X001413Y002047D02*
X004437Y002047D01*
X004425Y002145D02*
X001425Y002145D01*
X001425Y002244D02*
X004425Y002244D01*
X004453Y002342D02*
X001397Y002342D01*
X001356Y002441D02*
X004494Y002441D01*
X004582Y002539D02*
X001268Y002539D01*
X001115Y002638D02*
X004735Y002638D01*
X004826Y002675D02*
X005024Y002675D01*
X005200Y002602D01*
X005200Y002748D01*
X005024Y002675D01*
X004826Y002675D01*
X004678Y002736D02*
X001172Y002736D01*
X001292Y002835D02*
X004558Y002835D01*
X005115Y002638D02*
X005200Y002638D01*
X005200Y002736D02*
X005172Y002736D01*
X001024Y002675D02*
X000826Y002675D01*
X000650Y002748D01*
X000650Y002602D01*
X000826Y002675D01*
X001024Y002675D01*
X000735Y002638D02*
X000650Y002638D01*
X000650Y002736D02*
X000678Y002736D01*
M02*
