G75*
G70*
%OFA0B0*%
%FSLAX24Y24*%
%IPPOS*%
%LPD*%
%AMOC8*
5,1,8,0,0,1.08239X$1,22.5*
%
%ADD10C,0.0050*%
%ADD11C,0.0433*%
%ADD12R,0.0394X0.0433*%
%ADD13C,0.0740*%
%ADD14C,0.0320*%
%ADD15C,0.0100*%
D10*
X000175Y000175D02*
X000175Y003925D01*
X005675Y003925D01*
X005675Y000175D01*
X000175Y000175D01*
D11*
X002506Y000903D02*
X002506Y001257D01*
X002506Y001257D01*
X002506Y000903D01*
X002506Y000903D01*
X003175Y000903D02*
X003175Y001257D01*
X003175Y001257D01*
X003175Y000903D01*
X003175Y000903D01*
X003844Y000903D02*
X003844Y001257D01*
X003844Y001257D01*
X003844Y000903D01*
X003844Y000903D01*
X003844Y002793D02*
X003844Y003147D01*
X003844Y003147D01*
X003844Y002793D01*
X003844Y002793D01*
X003175Y002793D02*
X003175Y003147D01*
X003175Y003147D01*
X003175Y002793D01*
X003175Y002793D01*
X002506Y002793D02*
X002506Y003147D01*
X002506Y003147D01*
X002506Y002793D01*
X002506Y002793D01*
D12*
X001775Y002410D03*
X001775Y001740D03*
D13*
X000925Y002175D03*
X000925Y003175D03*
X000925Y001175D03*
X004925Y001175D03*
X004925Y002175D03*
X004925Y003175D03*
D14*
X003175Y001775D02*
X003175Y001080D01*
X003175Y001775D02*
X002506Y002444D01*
X002506Y002970D01*
X002301Y003175D01*
X001775Y003175D01*
X001775Y002410D01*
X001775Y003175D02*
X000925Y003175D01*
D15*
X001292Y002835D02*
X001485Y002835D01*
X001485Y002885D02*
X001485Y002717D01*
X001448Y002680D01*
X001448Y002139D01*
X001502Y002086D01*
X001486Y002077D01*
X001458Y002049D01*
X001438Y002015D01*
X001428Y001977D01*
X001428Y001789D01*
X001727Y001789D01*
X001727Y001692D01*
X001823Y001692D01*
X001823Y001374D01*
X001992Y001374D01*
X002030Y001384D01*
X002064Y001404D01*
X002092Y001432D01*
X002112Y001466D01*
X002122Y001504D01*
X002122Y001692D01*
X001823Y001692D01*
X001823Y001789D01*
X002122Y001789D01*
X002122Y001977D01*
X002112Y002015D01*
X002092Y002049D01*
X002064Y002077D01*
X002048Y002086D01*
X002102Y002139D01*
X002102Y002680D01*
X002065Y002717D01*
X002065Y002885D01*
X002159Y002885D01*
X002159Y002724D01*
X002212Y002596D01*
X002216Y002593D01*
X002216Y002387D01*
X002260Y002280D01*
X002885Y001655D01*
X002885Y001457D01*
X002881Y001454D01*
X002840Y001355D01*
X002799Y001454D01*
X002702Y001551D01*
X002575Y001604D01*
X002437Y001604D01*
X002309Y001551D01*
X002212Y001454D01*
X002159Y001326D01*
X002159Y000834D01*
X002212Y000707D01*
X002269Y000650D01*
X000650Y000650D01*
X000650Y000732D01*
X000652Y000730D01*
X000725Y000693D01*
X000803Y000668D01*
X000875Y000656D01*
X000875Y001125D01*
X000975Y001125D01*
X000975Y001225D01*
X001444Y001225D01*
X001432Y001297D01*
X001407Y001375D01*
X001370Y001448D01*
X001322Y001514D01*
X001264Y001572D01*
X001198Y001620D01*
X001125Y001657D01*
X001047Y001682D01*
X001043Y001683D01*
X001208Y001751D01*
X001727Y001751D01*
X001727Y001692D02*
X001428Y001692D01*
X001428Y001504D01*
X001438Y001466D01*
X001458Y001432D01*
X001486Y001404D01*
X001520Y001384D01*
X001558Y001374D01*
X001727Y001374D01*
X001727Y001692D01*
X001727Y001653D02*
X001823Y001653D01*
X001823Y001751D02*
X002789Y001751D01*
X002885Y001653D02*
X002122Y001653D01*
X002122Y001554D02*
X002317Y001554D01*
X002214Y001456D02*
X002106Y001456D01*
X002172Y001357D02*
X001413Y001357D01*
X001444Y001456D02*
X001364Y001456D01*
X001428Y001554D02*
X001281Y001554D01*
X001428Y001653D02*
X001133Y001653D01*
X001208Y001751D02*
X001349Y001892D01*
X001425Y002076D01*
X001425Y002274D01*
X001349Y002458D01*
X001208Y002599D01*
X001024Y002675D01*
X001208Y002751D01*
X001342Y002885D01*
X001485Y002885D01*
X001485Y002736D02*
X001172Y002736D01*
X001115Y002638D02*
X001448Y002638D01*
X001448Y002539D02*
X001268Y002539D01*
X001356Y002441D02*
X001448Y002441D01*
X001448Y002342D02*
X001397Y002342D01*
X001425Y002244D02*
X001448Y002244D01*
X001448Y002145D02*
X001425Y002145D01*
X001413Y002047D02*
X001457Y002047D01*
X001428Y001948D02*
X001372Y001948D01*
X001428Y001850D02*
X001307Y001850D01*
X001727Y001554D02*
X001823Y001554D01*
X001823Y001456D02*
X001727Y001456D01*
X001438Y001259D02*
X002159Y001259D01*
X002159Y001160D02*
X000975Y001160D01*
X000975Y001125D02*
X001444Y001125D01*
X001432Y001053D01*
X001407Y000975D01*
X001370Y000902D01*
X001322Y000836D01*
X001264Y000778D01*
X001198Y000730D01*
X001125Y000693D01*
X001047Y000668D01*
X000975Y000656D01*
X000975Y001125D01*
X000975Y001062D02*
X000875Y001062D01*
X000875Y000963D02*
X000975Y000963D01*
X000975Y000865D02*
X000875Y000865D01*
X000875Y000766D02*
X000975Y000766D01*
X000975Y000668D02*
X000875Y000668D01*
X000805Y000668D02*
X000650Y000668D01*
X001045Y000668D02*
X002251Y000668D01*
X002187Y000766D02*
X001247Y000766D01*
X001342Y000865D02*
X002159Y000865D01*
X002159Y000963D02*
X001401Y000963D01*
X001434Y001062D02*
X002159Y001062D01*
X002839Y001357D02*
X002841Y001357D01*
X002798Y001456D02*
X002883Y001456D01*
X002885Y001554D02*
X002695Y001554D01*
X002690Y001850D02*
X002122Y001850D01*
X002122Y001948D02*
X002592Y001948D01*
X002493Y002047D02*
X002093Y002047D01*
X002102Y002145D02*
X002395Y002145D01*
X002296Y002244D02*
X002102Y002244D01*
X002102Y002342D02*
X002234Y002342D01*
X002216Y002441D02*
X002102Y002441D01*
X002102Y002539D02*
X002216Y002539D01*
X002195Y002638D02*
X002102Y002638D01*
X002065Y002736D02*
X002159Y002736D01*
X002159Y002835D02*
X002065Y002835D01*
X002796Y002593D02*
X002796Y002564D01*
X003339Y002021D01*
X003339Y002021D01*
X003421Y001939D01*
X003465Y001833D01*
X003465Y001457D01*
X003469Y001454D01*
X003499Y001381D01*
X003519Y001431D01*
X003560Y001491D01*
X003611Y001542D01*
X003671Y001582D01*
X003737Y001610D01*
X003794Y001621D01*
X003794Y001130D01*
X003894Y001130D01*
X003894Y001621D01*
X003951Y001610D01*
X004018Y001582D01*
X004078Y001542D01*
X004129Y001491D01*
X004169Y001431D01*
X004197Y001364D01*
X004211Y001293D01*
X004211Y001130D01*
X003894Y001130D01*
X003894Y001030D01*
X004211Y001030D01*
X004211Y000867D01*
X004197Y000796D01*
X004169Y000729D01*
X004129Y000669D01*
X004110Y000650D01*
X005200Y000650D01*
X005200Y000732D01*
X005198Y000730D01*
X005125Y000693D01*
X005047Y000668D01*
X004975Y000656D01*
X004975Y001125D01*
X004875Y001125D01*
X004875Y000656D01*
X004803Y000668D01*
X004725Y000693D01*
X004652Y000730D01*
X004586Y000778D01*
X004528Y000836D01*
X004480Y000902D01*
X004443Y000975D01*
X004418Y001053D01*
X004406Y001125D01*
X004875Y001125D01*
X004875Y001225D01*
X004406Y001225D01*
X004418Y001297D01*
X004443Y001375D01*
X004480Y001448D01*
X004528Y001514D01*
X004586Y001572D01*
X004652Y001620D01*
X004725Y001657D01*
X004803Y001682D01*
X004807Y001683D01*
X004642Y001751D01*
X003465Y001751D01*
X003465Y001653D02*
X004717Y001653D01*
X004642Y001751D02*
X004501Y001892D01*
X004425Y002076D01*
X004425Y002274D01*
X004468Y002378D01*
X004171Y002675D01*
X004138Y002596D01*
X004041Y002499D01*
X003913Y002446D01*
X003775Y002446D01*
X003648Y002499D01*
X003551Y002596D01*
X003510Y002695D01*
X003469Y002596D01*
X003371Y002499D01*
X003244Y002446D01*
X003106Y002446D01*
X002979Y002499D01*
X002881Y002596D01*
X002840Y002695D01*
X002799Y002596D01*
X002796Y002593D01*
X002817Y002638D02*
X002864Y002638D01*
X002821Y002539D02*
X002939Y002539D01*
X002920Y002441D02*
X004405Y002441D01*
X004453Y002342D02*
X003018Y002342D01*
X003117Y002244D02*
X004425Y002244D01*
X004425Y002145D02*
X003215Y002145D01*
X003314Y002047D02*
X004437Y002047D01*
X004478Y001948D02*
X003412Y001948D01*
X003458Y001850D02*
X004543Y001850D01*
X004569Y001554D02*
X004060Y001554D01*
X004153Y001456D02*
X004486Y001456D01*
X004437Y001357D02*
X004198Y001357D01*
X004211Y001259D02*
X004412Y001259D01*
X004211Y001160D02*
X004875Y001160D01*
X004875Y001062D02*
X004975Y001062D01*
X004975Y000963D02*
X004875Y000963D01*
X004875Y000865D02*
X004975Y000865D01*
X004975Y000766D02*
X004875Y000766D01*
X004875Y000668D02*
X004975Y000668D01*
X005045Y000668D02*
X005200Y000668D01*
X004805Y000668D02*
X004127Y000668D01*
X004184Y000766D02*
X004603Y000766D01*
X004508Y000865D02*
X004210Y000865D01*
X004211Y000963D02*
X004449Y000963D01*
X004416Y001062D02*
X003894Y001062D01*
X003894Y001160D02*
X003794Y001160D01*
X003794Y001259D02*
X003894Y001259D01*
X003894Y001357D02*
X003794Y001357D01*
X003794Y001456D02*
X003894Y001456D01*
X003894Y001554D02*
X003794Y001554D01*
X003629Y001554D02*
X003465Y001554D01*
X003467Y001456D02*
X003536Y001456D01*
X004925Y002175D02*
X004130Y002970D01*
X003844Y002970D01*
X003533Y002638D02*
X003486Y002638D01*
X003411Y002539D02*
X003608Y002539D01*
X004081Y002539D02*
X004306Y002539D01*
X004208Y002638D02*
X004155Y002638D01*
X003175Y002970D02*
X003175Y003475D01*
X002975Y003675D01*
X000675Y003675D01*
X000425Y003425D01*
X000425Y002475D01*
X000775Y002175D01*
X000925Y002175D01*
X000650Y002602D02*
X000650Y002748D01*
X000826Y002675D01*
X001024Y002675D01*
X000826Y002675D01*
X000650Y002602D01*
X000650Y002638D02*
X000735Y002638D01*
X000678Y002736D02*
X000650Y002736D01*
M02*
