G75*
G70*
%OFA0B0*%
%FSLAX24Y24*%
%IPPOS*%
%LPD*%
%AMOC8*
5,1,8,0,0,1.08239X$1,22.5*
%
%ADD10C,0.0020*%
%ADD11C,0.0080*%
%ADD12C,0.0220*%
%ADD13C,0.0030*%
D10*
X000403Y000310D02*
X000497Y000497D01*
X000586Y000497D02*
X000680Y000590D01*
X000680Y000310D01*
X000773Y000310D02*
X000586Y000310D01*
X000403Y000310D02*
X000310Y000497D01*
X000862Y000357D02*
X000862Y000310D01*
X000909Y000310D01*
X000909Y000357D01*
X000862Y000357D01*
X001001Y000357D02*
X001047Y000310D01*
X001141Y000310D01*
X001187Y000357D01*
X001187Y000544D01*
X001001Y000357D01*
X001001Y000544D01*
X001047Y000590D01*
X001141Y000590D01*
X001187Y000544D01*
D11*
X001175Y000675D02*
X001425Y000925D01*
X001425Y001425D01*
X001175Y001675D01*
X001425Y001925D01*
X001425Y002425D01*
X001175Y002675D01*
X001425Y002925D01*
X001425Y003425D01*
X001175Y003675D01*
X000675Y003675D01*
X000425Y003425D01*
X000425Y002925D01*
X000675Y002675D01*
X000425Y002425D01*
X000425Y001925D01*
X000675Y001675D01*
X000425Y001425D01*
X000425Y000925D01*
X000675Y000675D01*
X001175Y000675D01*
X002721Y001241D02*
X002799Y001241D01*
X003351Y001241D02*
X003429Y001241D01*
X004059Y001831D02*
X004059Y002619D01*
X003774Y002501D02*
X003776Y002519D01*
X003782Y002537D01*
X003791Y002553D01*
X003803Y002566D01*
X003818Y002577D01*
X003835Y002585D01*
X003853Y002589D01*
X003871Y002589D01*
X003889Y002585D01*
X003906Y002577D01*
X003921Y002566D01*
X003933Y002553D01*
X003942Y002537D01*
X003948Y002519D01*
X003950Y002501D01*
X003948Y002483D01*
X003942Y002465D01*
X003933Y002449D01*
X003921Y002436D01*
X003906Y002425D01*
X003889Y002417D01*
X003871Y002413D01*
X003853Y002413D01*
X003835Y002417D01*
X003818Y002425D01*
X003803Y002436D01*
X003791Y002449D01*
X003782Y002465D01*
X003776Y002483D01*
X003774Y002501D01*
X003225Y002625D02*
X003225Y002275D01*
X002925Y002275D01*
X002925Y002625D01*
X003225Y002625D01*
X003125Y002125D02*
X003025Y002125D01*
X003025Y002025D01*
X003125Y002025D01*
X003125Y002125D01*
X002091Y001831D02*
X002091Y002619D01*
X002721Y003209D02*
X002799Y003209D01*
X003351Y003209D02*
X003429Y003209D01*
X004425Y003425D02*
X004425Y002925D01*
X004675Y002675D01*
X004425Y002425D01*
X004425Y001925D01*
X004675Y001675D01*
X004425Y001425D01*
X004425Y000925D01*
X004675Y000675D01*
X005175Y000675D01*
X005425Y000925D01*
X005425Y001425D01*
X005175Y001675D01*
X005425Y001925D01*
X005425Y002425D01*
X005175Y002675D01*
X005425Y002925D01*
X005425Y003425D01*
X005175Y003675D01*
X004675Y003675D01*
X004425Y003425D01*
D12*
X001787Y002075D02*
X001763Y002075D01*
D13*
X001701Y002840D02*
X001948Y002840D01*
X002010Y002902D01*
X002010Y003025D01*
X001948Y003087D01*
X002010Y003208D02*
X002010Y003455D01*
X002010Y003332D02*
X001640Y003332D01*
X001763Y003208D01*
X001701Y003087D02*
X001640Y003025D01*
X001640Y002902D01*
X001701Y002840D01*
X001700Y000660D02*
X001577Y000660D01*
X001639Y000660D02*
X001639Y000352D01*
X001577Y000290D01*
X001515Y000290D01*
X001453Y000352D01*
X001822Y000290D02*
X002069Y000290D01*
X001945Y000290D02*
X001945Y000660D01*
X001822Y000537D01*
X003753Y000352D02*
X003815Y000290D01*
X003877Y000290D01*
X003939Y000352D01*
X003939Y000660D01*
X004000Y000660D02*
X003877Y000660D01*
X004122Y000599D02*
X004183Y000660D01*
X004307Y000660D01*
X004369Y000599D01*
X004369Y000537D01*
X004122Y000290D01*
X004369Y000290D01*
M02*
