G75*
%MOIN*%
%OFA0B0*%
%FSLAX24Y24*%
%IPPOS*%
%LPD*%
%AMOC8*
5,1,8,0,0,1.08239X$1,22.5*
%
%ADD10C,0.0080*%
%ADD11C,0.0220*%
%ADD12C,0.0050*%
D10*
X000400Y000875D02*
X000650Y000625D01*
X001150Y000625D01*
X001400Y000875D01*
X001400Y001375D01*
X001150Y001625D01*
X001400Y001875D01*
X001400Y002375D01*
X001150Y002625D01*
X001400Y002875D01*
X001400Y003375D01*
X001150Y003625D01*
X000650Y003625D01*
X000400Y003375D01*
X000400Y002875D01*
X000650Y002625D01*
X000400Y002375D01*
X000400Y001875D01*
X000650Y001625D01*
X000400Y001375D01*
X000400Y000875D01*
X002066Y001906D02*
X002066Y002694D01*
X002900Y002700D02*
X002900Y002350D01*
X003200Y002350D01*
X003200Y002700D01*
X002900Y002700D01*
X003000Y002200D02*
X003000Y002100D01*
X003100Y002100D01*
X003100Y002200D01*
X003000Y002200D01*
X003749Y002576D02*
X003751Y002594D01*
X003757Y002612D01*
X003766Y002628D01*
X003778Y002641D01*
X003793Y002652D01*
X003810Y002660D01*
X003828Y002664D01*
X003846Y002664D01*
X003864Y002660D01*
X003881Y002652D01*
X003896Y002641D01*
X003908Y002628D01*
X003917Y002612D01*
X003923Y002594D01*
X003925Y002576D01*
X003923Y002558D01*
X003917Y002540D01*
X003908Y002524D01*
X003896Y002511D01*
X003881Y002500D01*
X003864Y002492D01*
X003846Y002488D01*
X003828Y002488D01*
X003810Y002492D01*
X003793Y002500D01*
X003778Y002511D01*
X003766Y002524D01*
X003757Y002540D01*
X003751Y002558D01*
X003749Y002576D01*
X004034Y002694D02*
X004034Y001906D01*
X004400Y001875D02*
X004400Y002375D01*
X004650Y002625D01*
X004400Y002875D01*
X004400Y003375D01*
X004650Y003625D01*
X005150Y003625D01*
X005400Y003375D01*
X005400Y002875D01*
X005150Y002625D01*
X005400Y002375D01*
X005400Y001875D01*
X005150Y001625D01*
X005400Y001375D01*
X005400Y000875D01*
X005150Y000625D01*
X004650Y000625D01*
X004400Y000875D01*
X004400Y001375D01*
X004650Y001625D01*
X004400Y001875D01*
X003404Y001316D02*
X003326Y001316D01*
X002774Y001316D02*
X002696Y001316D01*
X002696Y003284D02*
X002774Y003284D01*
X003326Y003284D02*
X003404Y003284D01*
D11*
X001762Y002150D02*
X001738Y002150D01*
D12*
X001675Y002875D02*
X001875Y002875D01*
X001925Y002925D01*
X001925Y003025D01*
X001875Y003075D01*
X001925Y003197D02*
X001925Y003397D01*
X001925Y003297D02*
X001625Y003297D01*
X001725Y003197D01*
X001675Y003075D02*
X001625Y003025D01*
X001625Y002925D01*
X001675Y002875D01*
X001653Y000650D02*
X001853Y000350D01*
X001853Y000650D01*
X001653Y000650D02*
X001653Y000350D01*
X001538Y000350D02*
X001438Y000350D01*
X001488Y000350D02*
X001488Y000650D01*
X001438Y000650D02*
X001538Y000650D01*
X003558Y000600D02*
X003558Y000400D01*
X003608Y000350D01*
X003708Y000350D01*
X003758Y000400D01*
X003758Y000600D01*
X003708Y000650D01*
X003608Y000650D01*
X003558Y000600D01*
X003880Y000650D02*
X003880Y000400D01*
X003930Y000350D01*
X004031Y000350D01*
X004081Y000400D01*
X004081Y000650D01*
X004203Y000650D02*
X004403Y000650D01*
X004303Y000650D02*
X004303Y000350D01*
M02*
