G75*
%MOIN*%
%OFA0B0*%
%FSLAX24Y24*%
%IPPOS*%
%LPD*%
%AMOC8*
5,1,8,0,0,1.08239X$1,22.5*
%
%ADD10R,0.0740X0.0740*%
%ADD11C,0.0740*%
%ADD12C,0.0320*%
%ADD13C,0.0100*%
D10*
X000900Y001200D03*
X004900Y001200D03*
D11*
X004900Y002200D03*
X004900Y003200D03*
X000900Y003200D03*
X000900Y002200D03*
D12*
X000900Y003200D02*
X004900Y003200D01*
D13*
X000305Y003795D02*
X000305Y000355D01*
X005495Y000355D01*
X005495Y003795D01*
X000305Y003795D01*
X000305Y003746D02*
X005495Y003746D01*
X005495Y003648D02*
X005126Y003648D01*
X005183Y003624D02*
X004999Y003700D01*
X004801Y003700D01*
X004617Y003624D01*
X004483Y003490D01*
X001317Y003490D01*
X001183Y003624D01*
X000999Y003700D01*
X000801Y003700D01*
X000617Y003624D01*
X000476Y003483D01*
X000400Y003299D01*
X000400Y003101D01*
X000476Y002917D01*
X000617Y002776D01*
X000801Y002700D01*
X000617Y002624D01*
X000476Y002483D01*
X000400Y002299D01*
X000400Y002101D01*
X000476Y001917D01*
X000617Y001776D01*
X000305Y001776D01*
X000305Y001875D02*
X000518Y001875D01*
X000617Y001776D02*
X000752Y001720D01*
X000510Y001720D01*
X000472Y001710D01*
X000438Y001690D01*
X000410Y001662D01*
X000390Y001628D01*
X000380Y001590D01*
X000380Y001250D01*
X000850Y001250D01*
X000850Y001150D01*
X000380Y001150D01*
X000380Y000810D01*
X000390Y000772D01*
X000410Y000738D01*
X000438Y000710D01*
X000472Y000690D01*
X000510Y000680D01*
X000850Y000680D01*
X000850Y001150D01*
X000950Y001150D01*
X000950Y001250D01*
X001420Y001250D01*
X001420Y001590D01*
X001410Y001628D01*
X001390Y001662D01*
X001362Y001690D01*
X001328Y001710D01*
X001290Y001720D01*
X001048Y001720D01*
X001183Y001776D01*
X004617Y001776D01*
X004752Y001720D01*
X004510Y001720D01*
X004472Y001710D01*
X004438Y001690D01*
X004410Y001662D01*
X004390Y001628D01*
X004380Y001590D01*
X004380Y001250D01*
X004850Y001250D01*
X004850Y001150D01*
X004380Y001150D01*
X004380Y000810D01*
X004390Y000772D01*
X004410Y000738D01*
X004438Y000710D01*
X004472Y000690D01*
X004510Y000680D01*
X004850Y000680D01*
X004850Y001150D01*
X004950Y001150D01*
X004950Y001250D01*
X005420Y001250D01*
X005420Y001590D01*
X005410Y001628D01*
X005390Y001662D01*
X005362Y001690D01*
X005328Y001710D01*
X005290Y001720D01*
X005048Y001720D01*
X005183Y001776D01*
X005495Y001776D01*
X005495Y001875D02*
X005282Y001875D01*
X005324Y001917D02*
X005400Y002101D01*
X005400Y002299D01*
X005324Y002483D01*
X005183Y002624D01*
X004999Y002700D01*
X004801Y002700D01*
X004617Y002624D01*
X004476Y002483D01*
X004400Y002299D01*
X004400Y002101D01*
X004476Y001917D01*
X004617Y001776D01*
X004518Y001875D02*
X001282Y001875D01*
X001324Y001917D02*
X001400Y002101D01*
X001400Y002299D01*
X001324Y002483D01*
X001183Y002624D01*
X000999Y002700D01*
X000801Y002700D01*
X000999Y002700D01*
X001183Y002776D01*
X001317Y002910D01*
X004483Y002910D01*
X004617Y002776D01*
X004801Y002700D01*
X004999Y002700D01*
X005183Y002776D01*
X005324Y002917D01*
X005400Y003101D01*
X005400Y003299D01*
X005324Y003483D01*
X005183Y003624D01*
X005258Y003549D02*
X005495Y003549D01*
X005495Y003451D02*
X005337Y003451D01*
X005378Y003352D02*
X005495Y003352D01*
X005495Y003254D02*
X005400Y003254D01*
X005400Y003155D02*
X005495Y003155D01*
X005495Y003057D02*
X005382Y003057D01*
X005341Y002958D02*
X005495Y002958D01*
X005495Y002860D02*
X005267Y002860D01*
X005147Y002761D02*
X005495Y002761D01*
X005495Y002663D02*
X005090Y002663D01*
X005243Y002564D02*
X005495Y002564D01*
X005495Y002466D02*
X005331Y002466D01*
X005372Y002367D02*
X005495Y002367D01*
X005495Y002269D02*
X005400Y002269D01*
X005400Y002170D02*
X005495Y002170D01*
X005495Y002072D02*
X005388Y002072D01*
X005347Y001973D02*
X005495Y001973D01*
X005324Y001917D02*
X005183Y001776D01*
X005375Y001678D02*
X005495Y001678D01*
X005495Y001579D02*
X005420Y001579D01*
X005420Y001481D02*
X005495Y001481D01*
X005495Y001382D02*
X005420Y001382D01*
X005420Y001284D02*
X005495Y001284D01*
X005495Y001185D02*
X004950Y001185D01*
X004950Y001150D02*
X005420Y001150D01*
X005420Y000810D01*
X005410Y000772D01*
X005390Y000738D01*
X005362Y000710D01*
X005328Y000690D01*
X005290Y000680D01*
X004950Y000680D01*
X004950Y001150D01*
X004950Y001087D02*
X004850Y001087D01*
X004850Y001185D02*
X000950Y001185D01*
X000950Y001150D02*
X001420Y001150D01*
X001420Y000810D01*
X001410Y000772D01*
X001390Y000738D01*
X001362Y000710D01*
X001328Y000690D01*
X001290Y000680D01*
X000950Y000680D01*
X000950Y001150D01*
X000950Y001087D02*
X000850Y001087D01*
X000850Y001185D02*
X000305Y001185D01*
X000305Y001087D02*
X000380Y001087D01*
X000380Y000988D02*
X000305Y000988D01*
X000305Y000890D02*
X000380Y000890D01*
X000385Y000791D02*
X000305Y000791D01*
X000305Y000693D02*
X000468Y000693D01*
X000305Y000594D02*
X005495Y000594D01*
X005495Y000496D02*
X000305Y000496D01*
X000305Y000397D02*
X005495Y000397D01*
X005495Y000693D02*
X005332Y000693D01*
X005415Y000791D02*
X005495Y000791D01*
X005495Y000890D02*
X005420Y000890D01*
X005420Y000988D02*
X005495Y000988D01*
X005495Y001087D02*
X005420Y001087D01*
X004950Y000988D02*
X004850Y000988D01*
X004850Y000890D02*
X004950Y000890D01*
X004950Y000791D02*
X004850Y000791D01*
X004850Y000693D02*
X004950Y000693D01*
X004468Y000693D02*
X001332Y000693D01*
X001415Y000791D02*
X004385Y000791D01*
X004380Y000890D02*
X001420Y000890D01*
X001420Y000988D02*
X004380Y000988D01*
X004380Y001087D02*
X001420Y001087D01*
X001420Y001284D02*
X004380Y001284D01*
X004380Y001382D02*
X001420Y001382D01*
X001420Y001481D02*
X004380Y001481D01*
X004380Y001579D02*
X001420Y001579D01*
X001375Y001678D02*
X004425Y001678D01*
X004453Y001973D02*
X001347Y001973D01*
X001324Y001917D02*
X001183Y001776D01*
X001388Y002072D02*
X004412Y002072D01*
X004400Y002170D02*
X001400Y002170D01*
X001400Y002269D02*
X004400Y002269D01*
X004428Y002367D02*
X001372Y002367D01*
X001331Y002466D02*
X004469Y002466D01*
X004557Y002564D02*
X001243Y002564D01*
X001090Y002663D02*
X004710Y002663D01*
X004653Y002761D02*
X001147Y002761D01*
X001267Y002860D02*
X004533Y002860D01*
X004542Y003549D02*
X001258Y003549D01*
X001126Y003648D02*
X004674Y003648D01*
X000950Y000988D02*
X000850Y000988D01*
X000850Y000890D02*
X000950Y000890D01*
X000950Y000791D02*
X000850Y000791D01*
X000850Y000693D02*
X000950Y000693D01*
X000380Y001284D02*
X000305Y001284D01*
X000305Y001382D02*
X000380Y001382D01*
X000380Y001481D02*
X000305Y001481D01*
X000305Y001579D02*
X000380Y001579D01*
X000425Y001678D02*
X000305Y001678D01*
X000305Y001973D02*
X000453Y001973D01*
X000412Y002072D02*
X000305Y002072D01*
X000305Y002170D02*
X000400Y002170D01*
X000400Y002269D02*
X000305Y002269D01*
X000305Y002367D02*
X000428Y002367D01*
X000469Y002466D02*
X000305Y002466D01*
X000305Y002564D02*
X000557Y002564D01*
X000710Y002663D02*
X000305Y002663D01*
X000305Y002761D02*
X000653Y002761D01*
X000533Y002860D02*
X000305Y002860D01*
X000305Y002958D02*
X000459Y002958D01*
X000418Y003057D02*
X000305Y003057D01*
X000305Y003155D02*
X000400Y003155D01*
X000400Y003254D02*
X000305Y003254D01*
X000305Y003352D02*
X000422Y003352D01*
X000463Y003451D02*
X000305Y003451D01*
X000305Y003549D02*
X000542Y003549D01*
X000674Y003648D02*
X000305Y003648D01*
M02*
