G75*
%MOIN*%
%OFA0B0*%
%FSLAX24Y24*%
%IPPOS*%
%LPD*%
%AMOC8*
5,1,8,0,0,1.08239X$1,22.5*
%
%ADD10C,0.0050*%
%ADD11C,0.0030*%
%ADD12R,0.0674X0.0001*%
%ADD13R,0.0674X0.0001*%
%ADD14R,0.0687X0.0001*%
%ADD15R,0.0687X0.0001*%
%ADD16R,0.0695X0.0001*%
%ADD17R,0.0694X0.0001*%
%ADD18R,0.0701X0.0001*%
%ADD19R,0.0700X0.0001*%
%ADD20R,0.0705X0.0001*%
%ADD21R,0.0710X0.0001*%
%ADD22R,0.0709X0.0001*%
%ADD23R,0.0713X0.0001*%
%ADD24R,0.0717X0.0001*%
%ADD25R,0.0717X0.0001*%
%ADD26R,0.0720X0.0001*%
%ADD27R,0.0723X0.0001*%
%ADD28R,0.0726X0.0001*%
%ADD29R,0.0725X0.0001*%
%ADD30R,0.0729X0.0001*%
%ADD31R,0.0728X0.0001*%
%ADD32R,0.0731X0.0001*%
%ADD33R,0.0733X0.0001*%
%ADD34R,0.0735X0.0001*%
%ADD35R,0.0737X0.0001*%
%ADD36R,0.0737X0.0001*%
%ADD37R,0.0739X0.0001*%
%ADD38R,0.0741X0.0001*%
%ADD39R,0.0743X0.0001*%
%ADD40R,0.0745X0.0001*%
%ADD41R,0.0744X0.0001*%
%ADD42R,0.0746X0.0001*%
%ADD43R,0.0748X0.0001*%
%ADD44R,0.0747X0.0001*%
%ADD45R,0.0749X0.0001*%
%ADD46R,0.0751X0.0001*%
%ADD47R,0.0750X0.0001*%
%ADD48R,0.0753X0.0001*%
%ADD49R,0.0754X0.0001*%
%ADD50R,0.0755X0.0001*%
%ADD51R,0.0756X0.0001*%
%ADD52R,0.0757X0.0001*%
%ADD53R,0.0757X0.0001*%
%ADD54R,0.0758X0.0001*%
%ADD55R,0.0759X0.0001*%
%ADD56R,0.0761X0.0001*%
%ADD57R,0.0760X0.0001*%
%ADD58R,0.0762X0.0001*%
%ADD59R,0.0763X0.0001*%
%ADD60R,0.0764X0.0001*%
%ADD61R,0.0764X0.0001*%
%ADD62R,0.0765X0.0001*%
%ADD63R,0.0766X0.0001*%
%ADD64R,0.0752X0.0001*%
%ADD65R,0.0747X0.0001*%
%ADD66R,0.0742X0.0001*%
%ADD67R,0.0740X0.0001*%
%ADD68R,0.0738X0.0001*%
%ADD69R,0.0736X0.0001*%
%ADD70R,0.0734X0.0001*%
%ADD71R,0.0732X0.0001*%
%ADD72R,0.0727X0.0001*%
%ADD73R,0.0724X0.0001*%
%ADD74R,0.0721X0.0001*%
%ADD75R,0.0718X0.0001*%
%ADD76R,0.0714X0.0001*%
%ADD77R,0.0711X0.0001*%
%ADD78R,0.0730X0.0001*%
%ADD79R,0.0707X0.0001*%
%ADD80R,0.0702X0.0001*%
%ADD81R,0.0696X0.0001*%
%ADD82R,0.0690X0.0001*%
%ADD83R,0.0680X0.0001*%
%ADD84R,0.0516X0.0001*%
%ADD85R,0.0515X0.0001*%
%ADD86R,0.0514X0.0001*%
%ADD87R,0.0675X0.0001*%
%ADD88R,0.0479X0.0001*%
%ADD89R,0.0513X0.0001*%
%ADD90R,0.0478X0.0001*%
%ADD91R,0.0512X0.0001*%
%ADD92R,0.0511X0.0001*%
%ADD93R,0.0477X0.0001*%
%ADD94R,0.0510X0.0001*%
%ADD95R,0.0476X0.0001*%
%ADD96R,0.0509X0.0001*%
%ADD97R,0.0475X0.0001*%
%ADD98R,0.0508X0.0001*%
%ADD99R,0.0474X0.0001*%
%ADD100R,0.0507X0.0001*%
%ADD101R,0.0506X0.0001*%
%ADD102R,0.0473X0.0001*%
%ADD103R,0.0505X0.0001*%
%ADD104R,0.0472X0.0001*%
%ADD105R,0.0504X0.0001*%
%ADD106R,0.0471X0.0001*%
%ADD107R,0.0503X0.0001*%
%ADD108R,0.0470X0.0001*%
%ADD109R,0.0502X0.0001*%
%ADD110R,0.0469X0.0001*%
%ADD111R,0.0501X0.0001*%
%ADD112R,0.0500X0.0001*%
%ADD113R,0.0468X0.0001*%
%ADD114R,0.0499X0.0001*%
%ADD115R,0.0467X0.0001*%
%ADD116R,0.0498X0.0001*%
%ADD117R,0.0466X0.0001*%
%ADD118R,0.0497X0.0001*%
%ADD119R,0.0465X0.0001*%
%ADD120R,0.0496X0.0001*%
%ADD121R,0.0495X0.0001*%
%ADD122R,0.0464X0.0001*%
%ADD123R,0.0494X0.0001*%
%ADD124R,0.0463X0.0001*%
%ADD125R,0.0493X0.0001*%
%ADD126R,0.0462X0.0001*%
%ADD127R,0.0492X0.0001*%
%ADD128R,0.0461X0.0001*%
%ADD129R,0.0491X0.0001*%
%ADD130R,0.0490X0.0001*%
%ADD131R,0.0460X0.0001*%
%ADD132R,0.0489X0.0001*%
%ADD133R,0.0459X0.0001*%
%ADD134R,0.0488X0.0001*%
%ADD135R,0.0458X0.0001*%
%ADD136R,0.0487X0.0001*%
%ADD137R,0.0457X0.0001*%
%ADD138R,0.0486X0.0001*%
%ADD139R,0.0485X0.0001*%
%ADD140R,0.0456X0.0001*%
%ADD141R,0.0484X0.0001*%
%ADD142R,0.0455X0.0001*%
%ADD143R,0.0483X0.0001*%
%ADD144R,0.0454X0.0001*%
%ADD145R,0.0482X0.0001*%
%ADD146R,0.0453X0.0001*%
%ADD147R,0.0481X0.0001*%
%ADD148R,0.0452X0.0001*%
%ADD149R,0.0480X0.0001*%
%ADD150R,0.0451X0.0001*%
%ADD151R,0.0450X0.0001*%
%ADD152R,0.0449X0.0001*%
%ADD153R,0.0448X0.0001*%
%ADD154R,0.0447X0.0001*%
%ADD155R,0.0446X0.0001*%
%ADD156R,0.0445X0.0001*%
%ADD157R,0.0444X0.0001*%
%ADD158R,0.0443X0.0001*%
%ADD159R,0.0442X0.0001*%
%ADD160R,0.0441X0.0001*%
%ADD161R,0.0440X0.0001*%
%ADD162R,0.0439X0.0001*%
%ADD163R,0.0438X0.0001*%
%ADD164R,0.0437X0.0001*%
%ADD165R,0.0436X0.0001*%
%ADD166R,0.0435X0.0001*%
%ADD167R,0.0434X0.0001*%
%ADD168R,0.0433X0.0001*%
%ADD169R,0.0432X0.0001*%
%ADD170R,0.0431X0.0001*%
%ADD171R,0.0430X0.0001*%
%ADD172R,0.0429X0.0001*%
%ADD173R,0.0428X0.0001*%
%ADD174R,0.0427X0.0001*%
%ADD175R,0.0426X0.0001*%
%ADD176R,0.0425X0.0001*%
%ADD177R,0.0424X0.0001*%
%ADD178R,0.0423X0.0001*%
%ADD179R,0.0422X0.0001*%
%ADD180R,0.0421X0.0001*%
%ADD181R,0.0420X0.0001*%
%ADD182R,0.0419X0.0001*%
%ADD183R,0.0418X0.0001*%
%ADD184R,0.0417X0.0001*%
%ADD185R,0.0416X0.0001*%
%ADD186R,0.0415X0.0001*%
%ADD187R,0.0414X0.0001*%
%ADD188R,0.0413X0.0001*%
%ADD189R,0.0412X0.0001*%
%ADD190R,0.0411X0.0001*%
%ADD191R,0.0410X0.0001*%
%ADD192R,0.0409X0.0001*%
%ADD193R,0.0408X0.0001*%
%ADD194R,0.0407X0.0001*%
%ADD195R,0.0406X0.0001*%
%ADD196R,0.0405X0.0001*%
%ADD197R,0.0404X0.0001*%
%ADD198R,0.0403X0.0001*%
%ADD199R,0.0402X0.0001*%
%ADD200R,0.0401X0.0001*%
%ADD201R,0.0400X0.0001*%
%ADD202R,0.0399X0.0001*%
%ADD203R,0.0398X0.0001*%
%ADD204R,0.0397X0.0001*%
%ADD205R,0.0396X0.0001*%
%ADD206R,0.0395X0.0001*%
%ADD207R,0.0394X0.0001*%
%ADD208R,0.0393X0.0001*%
%ADD209R,0.0392X0.0001*%
%ADD210R,0.0391X0.0001*%
%ADD211R,0.0390X0.0001*%
%ADD212R,0.0389X0.0001*%
%ADD213R,0.0388X0.0001*%
%ADD214R,0.0387X0.0001*%
%ADD215R,0.0386X0.0001*%
%ADD216R,0.0385X0.0001*%
%ADD217R,0.0384X0.0001*%
%ADD218R,0.0383X0.0001*%
%ADD219R,0.0382X0.0001*%
%ADD220R,0.0381X0.0001*%
%ADD221R,0.0380X0.0001*%
%ADD222R,0.0379X0.0001*%
%ADD223R,0.0378X0.0001*%
%ADD224R,0.0377X0.0001*%
%ADD225R,0.0376X0.0001*%
%ADD226R,0.0375X0.0001*%
%ADD227R,0.0374X0.0001*%
%ADD228R,0.0373X0.0001*%
%ADD229R,0.0372X0.0001*%
%ADD230R,0.0371X0.0001*%
%ADD231R,0.0370X0.0001*%
%ADD232R,0.0369X0.0001*%
%ADD233R,0.0368X0.0001*%
%ADD234R,0.0367X0.0001*%
%ADD235R,0.0366X0.0001*%
%ADD236R,0.0365X0.0001*%
%ADD237R,0.0364X0.0001*%
%ADD238R,0.0363X0.0001*%
%ADD239R,0.0362X0.0001*%
%ADD240R,0.0361X0.0001*%
%ADD241R,0.0360X0.0001*%
%ADD242R,0.0359X0.0001*%
%ADD243R,0.0358X0.0001*%
%ADD244R,0.0357X0.0001*%
%ADD245R,0.0356X0.0001*%
%ADD246R,0.0355X0.0001*%
%ADD247R,0.0354X0.0001*%
%ADD248R,0.0353X0.0001*%
%ADD249R,0.0352X0.0001*%
%ADD250R,0.0351X0.0001*%
%ADD251R,0.0350X0.0001*%
%ADD252R,0.0349X0.0001*%
%ADD253R,0.0348X0.0001*%
%ADD254R,0.0347X0.0001*%
%ADD255R,0.0346X0.0001*%
%ADD256R,0.0345X0.0001*%
%ADD257R,0.0344X0.0001*%
%ADD258R,0.0343X0.0001*%
%ADD259R,0.0342X0.0001*%
%ADD260R,0.0341X0.0001*%
%ADD261R,0.0340X0.0001*%
%ADD262R,0.0339X0.0001*%
%ADD263R,0.0338X0.0001*%
%ADD264R,0.0337X0.0001*%
%ADD265R,0.0336X0.0001*%
%ADD266R,0.0335X0.0001*%
%ADD267R,0.0334X0.0001*%
%ADD268R,0.0333X0.0001*%
%ADD269R,0.0332X0.0001*%
%ADD270R,0.0331X0.0001*%
%ADD271R,0.0330X0.0001*%
%ADD272R,0.0329X0.0001*%
%ADD273R,0.0328X0.0001*%
%ADD274R,0.0327X0.0001*%
%ADD275R,0.0326X0.0001*%
%ADD276R,0.0325X0.0001*%
%ADD277R,0.0324X0.0001*%
%ADD278R,0.0323X0.0001*%
%ADD279R,0.0322X0.0001*%
%ADD280R,0.0321X0.0001*%
%ADD281R,0.0320X0.0001*%
%ADD282R,0.0319X0.0001*%
%ADD283R,0.0318X0.0001*%
%ADD284R,0.0317X0.0001*%
%ADD285R,0.0316X0.0001*%
%ADD286R,0.0315X0.0001*%
%ADD287R,0.0314X0.0001*%
%ADD288R,0.0313X0.0001*%
%ADD289R,0.0312X0.0001*%
%ADD290R,0.0311X0.0001*%
%ADD291R,0.0310X0.0001*%
%ADD292R,0.0309X0.0001*%
%ADD293R,0.0308X0.0001*%
%ADD294R,0.0307X0.0001*%
%ADD295R,0.0306X0.0001*%
%ADD296R,0.0305X0.0001*%
%ADD297R,0.0304X0.0001*%
%ADD298R,0.0303X0.0001*%
%ADD299R,0.0302X0.0001*%
%ADD300R,0.0301X0.0001*%
%ADD301R,0.0300X0.0001*%
%ADD302R,0.0299X0.0001*%
%ADD303R,0.0298X0.0001*%
%ADD304R,0.0297X0.0001*%
%ADD305R,0.0296X0.0001*%
%ADD306R,0.0519X0.0001*%
%ADD307R,0.1736X0.0001*%
%ADD308R,0.0643X0.0001*%
%ADD309R,0.0611X0.0001*%
%ADD310R,0.1735X0.0001*%
%ADD311R,0.1734X0.0001*%
%ADD312R,0.1733X0.0001*%
%ADD313R,0.1732X0.0001*%
%ADD314R,0.1731X0.0001*%
%ADD315R,0.1730X0.0001*%
%ADD316R,0.1729X0.0001*%
%ADD317R,0.1728X0.0001*%
%ADD318R,0.1727X0.0001*%
%ADD319R,0.1726X0.0001*%
%ADD320R,0.1725X0.0001*%
%ADD321R,0.1724X0.0001*%
%ADD322R,0.1723X0.0001*%
%ADD323R,0.1722X0.0001*%
%ADD324R,0.1720X0.0001*%
%ADD325R,0.1718X0.0001*%
%ADD326R,0.1716X0.0001*%
%ADD327R,0.1714X0.0001*%
%ADD328R,0.1712X0.0001*%
%ADD329R,0.1711X0.0001*%
%ADD330R,0.1710X0.0001*%
%ADD331R,0.1709X0.0001*%
%ADD332R,0.1708X0.0001*%
%ADD333R,0.1707X0.0001*%
%ADD334R,0.1706X0.0001*%
%ADD335R,0.1705X0.0001*%
%ADD336R,0.1704X0.0001*%
%ADD337R,0.1703X0.0001*%
%ADD338R,0.1702X0.0001*%
%ADD339R,0.1701X0.0001*%
%ADD340R,0.1700X0.0001*%
%ADD341R,0.1699X0.0001*%
%ADD342R,0.1698X0.0001*%
%ADD343R,0.1697X0.0001*%
%ADD344R,0.1696X0.0001*%
%ADD345R,0.1695X0.0001*%
%ADD346R,0.1694X0.0001*%
%ADD347R,0.1693X0.0001*%
%ADD348R,0.1692X0.0001*%
%ADD349R,0.1691X0.0001*%
%ADD350R,0.1690X0.0001*%
%ADD351R,0.1689X0.0001*%
%ADD352R,0.1687X0.0001*%
%ADD353R,0.1685X0.0001*%
%ADD354R,0.1682X0.0001*%
%ADD355R,0.1680X0.0001*%
%ADD356R,0.1678X0.0001*%
%ADD357R,0.1676X0.0001*%
%ADD358R,0.1674X0.0001*%
%ADD359R,0.1672X0.0001*%
%ADD360R,0.1670X0.0001*%
%ADD361R,0.1668X0.0001*%
%ADD362R,0.1666X0.0001*%
%ADD363R,0.1664X0.0001*%
%ADD364R,0.1662X0.0001*%
%ADD365R,0.1660X0.0001*%
%ADD366R,0.1658X0.0001*%
%ADD367R,0.1656X0.0001*%
%ADD368R,0.1654X0.0001*%
%ADD369R,0.1652X0.0001*%
%ADD370R,0.1650X0.0001*%
%ADD371R,0.1648X0.0001*%
%ADD372R,0.1646X0.0001*%
%ADD373R,0.1644X0.0001*%
%ADD374R,0.1642X0.0001*%
%ADD375R,0.1640X0.0001*%
%ADD376R,0.1638X0.0001*%
%ADD377R,0.1636X0.0001*%
%ADD378R,0.1634X0.0001*%
%ADD379R,0.1632X0.0001*%
%ADD380R,0.1630X0.0001*%
%ADD381R,0.1628X0.0001*%
%ADD382R,0.1626X0.0001*%
%ADD383R,0.1624X0.0001*%
%ADD384R,0.1622X0.0001*%
%ADD385R,0.1620X0.0001*%
%ADD386R,0.1617X0.0001*%
%ADD387R,0.1615X0.0001*%
%ADD388R,0.1613X0.0001*%
%ADD389R,0.1611X0.0001*%
%ADD390R,0.1609X0.0001*%
%ADD391R,0.1607X0.0001*%
%ADD392R,0.1605X0.0001*%
%ADD393R,0.1603X0.0001*%
%ADD394R,0.1601X0.0001*%
%ADD395R,0.1599X0.0001*%
%ADD396R,0.1597X0.0001*%
%ADD397R,0.1595X0.0001*%
%ADD398R,0.1593X0.0001*%
%ADD399R,0.1591X0.0001*%
%ADD400R,0.1589X0.0001*%
%ADD401R,0.1587X0.0001*%
%ADD402R,0.1585X0.0001*%
%ADD403R,0.1582X0.0001*%
%ADD404R,0.1580X0.0001*%
%ADD405R,0.1578X0.0001*%
%ADD406R,0.1576X0.0001*%
%ADD407R,0.1574X0.0001*%
%ADD408R,0.1572X0.0001*%
%ADD409R,0.1570X0.0001*%
%ADD410R,0.1568X0.0001*%
%ADD411R,0.1566X0.0001*%
%ADD412R,0.1564X0.0001*%
%ADD413R,0.1562X0.0001*%
%ADD414R,0.1560X0.0001*%
%ADD415R,0.1558X0.0001*%
%ADD416R,0.1556X0.0001*%
%ADD417R,0.1554X0.0001*%
%ADD418R,0.1552X0.0001*%
%ADD419R,0.1550X0.0001*%
%ADD420R,0.1548X0.0001*%
%ADD421R,0.1546X0.0001*%
%ADD422R,0.1544X0.0001*%
%ADD423R,0.1542X0.0001*%
%ADD424R,0.1540X0.0001*%
%ADD425R,0.1538X0.0001*%
%ADD426R,0.1536X0.0001*%
%ADD427R,0.1534X0.0001*%
%ADD428R,0.1532X0.0001*%
%ADD429R,0.1530X0.0001*%
%ADD430R,0.1528X0.0001*%
%ADD431R,0.1526X0.0001*%
%ADD432R,0.1524X0.0001*%
%ADD433R,0.1522X0.0001*%
%ADD434R,0.1520X0.0001*%
%ADD435R,0.1517X0.0001*%
%ADD436R,0.1515X0.0001*%
%ADD437R,0.1513X0.0001*%
%ADD438R,0.1511X0.0001*%
%ADD439R,0.1509X0.0001*%
%ADD440R,0.1507X0.0001*%
%ADD441R,0.1505X0.0001*%
%ADD442R,0.1503X0.0001*%
%ADD443R,0.1501X0.0001*%
%ADD444R,0.1499X0.0001*%
%ADD445R,0.1497X0.0001*%
%ADD446R,0.1495X0.0001*%
%ADD447R,0.1493X0.0001*%
%ADD448R,0.1491X0.0001*%
%ADD449R,0.1489X0.0001*%
%ADD450R,0.1487X0.0001*%
%ADD451R,0.1485X0.0001*%
%ADD452R,0.1482X0.0001*%
%ADD453R,0.1480X0.0001*%
%ADD454R,0.1478X0.0001*%
%ADD455R,0.1476X0.0001*%
%ADD456R,0.1474X0.0001*%
%ADD457R,0.1472X0.0001*%
%ADD458R,0.1470X0.0001*%
%ADD459R,0.1468X0.0001*%
%ADD460R,0.1466X0.0001*%
%ADD461R,0.1464X0.0001*%
%ADD462R,0.1462X0.0001*%
%ADD463R,0.1460X0.0001*%
%ADD464R,0.1458X0.0001*%
%ADD465R,0.1456X0.0001*%
%ADD466R,0.1454X0.0001*%
%ADD467R,0.1452X0.0001*%
%ADD468R,0.1450X0.0001*%
%ADD469R,0.1448X0.0001*%
%ADD470R,0.1446X0.0001*%
%ADD471R,0.1444X0.0001*%
%ADD472R,0.1442X0.0001*%
%ADD473R,0.1440X0.0001*%
%ADD474R,0.1438X0.0001*%
%ADD475R,0.1436X0.0001*%
%ADD476R,0.1434X0.0001*%
%ADD477R,0.1432X0.0001*%
%ADD478R,0.1430X0.0001*%
%ADD479R,0.1428X0.0001*%
%ADD480R,0.1426X0.0001*%
%ADD481R,0.1424X0.0001*%
%ADD482R,0.1422X0.0001*%
%ADD483R,0.1420X0.0001*%
%ADD484R,0.1418X0.0001*%
%ADD485R,0.1415X0.0001*%
%ADD486R,0.1413X0.0001*%
%ADD487R,0.1411X0.0001*%
%ADD488R,0.1409X0.0001*%
%ADD489R,0.1407X0.0001*%
%ADD490R,0.1405X0.0001*%
%ADD491R,0.1403X0.0001*%
%ADD492R,0.1401X0.0001*%
%ADD493R,0.1399X0.0001*%
%ADD494R,0.1397X0.0001*%
%ADD495R,0.1395X0.0001*%
%ADD496R,0.1393X0.0001*%
%ADD497R,0.1391X0.0001*%
%ADD498R,0.1389X0.0001*%
%ADD499R,0.1387X0.0001*%
%ADD500R,0.1384X0.0001*%
%ADD501R,0.1382X0.0001*%
%ADD502R,0.1380X0.0001*%
%ADD503R,0.1378X0.0001*%
%ADD504R,0.1376X0.0001*%
%ADD505R,0.1374X0.0001*%
%ADD506R,0.1372X0.0001*%
%ADD507R,0.1370X0.0001*%
%ADD508R,0.1368X0.0001*%
%ADD509R,0.1366X0.0001*%
%ADD510R,0.1364X0.0001*%
%ADD511R,0.1362X0.0001*%
%ADD512R,0.1360X0.0001*%
%ADD513R,0.1358X0.0001*%
%ADD514R,0.1356X0.0001*%
%ADD515R,0.1354X0.0001*%
%ADD516R,0.1352X0.0001*%
%ADD517R,0.1350X0.0001*%
%ADD518R,0.1348X0.0001*%
%ADD519R,0.1346X0.0001*%
%ADD520R,0.1344X0.0001*%
%ADD521R,0.1342X0.0001*%
%ADD522R,0.1340X0.0001*%
%ADD523R,0.1338X0.0001*%
%ADD524R,0.1336X0.0001*%
%ADD525R,0.1334X0.0001*%
%ADD526R,0.1332X0.0001*%
%ADD527R,0.1330X0.0001*%
%ADD528R,0.1328X0.0001*%
%ADD529R,0.1326X0.0001*%
%ADD530R,0.1324X0.0001*%
%ADD531R,0.1322X0.0001*%
%ADD532R,0.1320X0.0001*%
%ADD533R,0.1318X0.0001*%
%ADD534R,0.1315X0.0001*%
%ADD535R,0.1313X0.0001*%
%ADD536R,0.1311X0.0001*%
%ADD537R,0.1309X0.0001*%
%ADD538R,0.1307X0.0001*%
%ADD539R,0.1305X0.0001*%
%ADD540R,0.1303X0.0001*%
%ADD541R,0.1301X0.0001*%
%ADD542R,0.1299X0.0001*%
%ADD543R,0.1297X0.0001*%
%ADD544R,0.1295X0.0001*%
%ADD545R,0.1293X0.0001*%
%ADD546R,0.1291X0.0001*%
%ADD547R,0.1289X0.0001*%
%ADD548R,0.1287X0.0001*%
%ADD549R,0.1284X0.0001*%
%ADD550R,0.1282X0.0001*%
%ADD551R,0.1280X0.0001*%
%ADD552R,0.1278X0.0001*%
%ADD553R,0.1276X0.0001*%
%ADD554R,0.1274X0.0001*%
%ADD555R,0.1272X0.0001*%
%ADD556R,0.1270X0.0001*%
%ADD557R,0.1268X0.0001*%
%ADD558R,0.1266X0.0001*%
%ADD559R,0.1264X0.0001*%
%ADD560R,0.1262X0.0001*%
%ADD561R,0.1260X0.0001*%
%ADD562R,0.1258X0.0001*%
%ADD563R,0.1256X0.0001*%
%ADD564R,0.1254X0.0001*%
%ADD565R,0.1252X0.0001*%
%ADD566R,0.1250X0.0001*%
%ADD567R,0.1248X0.0001*%
%ADD568R,0.1246X0.0001*%
%ADD569R,0.1244X0.0001*%
%ADD570R,0.1242X0.0001*%
%ADD571R,0.1240X0.0001*%
%ADD572R,0.1238X0.0001*%
%ADD573R,0.1236X0.0001*%
%ADD574R,0.1234X0.0001*%
%ADD575R,0.1232X0.0001*%
%ADD576R,0.1230X0.0001*%
%ADD577R,0.1228X0.0001*%
%ADD578R,0.1226X0.0001*%
%ADD579R,0.1224X0.0001*%
%ADD580R,0.1222X0.0001*%
%ADD581R,0.1220X0.0001*%
%ADD582R,0.1218X0.0001*%
%ADD583R,0.1215X0.0001*%
%ADD584R,0.1213X0.0001*%
%ADD585R,0.1211X0.0001*%
%ADD586R,0.1209X0.0001*%
%ADD587R,0.1207X0.0001*%
%ADD588R,0.1205X0.0001*%
%ADD589R,0.1203X0.0001*%
%ADD590R,0.1201X0.0001*%
%ADD591R,0.1199X0.0001*%
%ADD592R,0.1197X0.0001*%
%ADD593R,0.1195X0.0001*%
%ADD594R,0.1193X0.0001*%
%ADD595R,0.1191X0.0001*%
%ADD596R,0.1189X0.0001*%
%ADD597R,0.1187X0.0001*%
%ADD598R,0.1184X0.0001*%
%ADD599R,0.1182X0.0001*%
%ADD600R,0.1180X0.0001*%
%ADD601R,0.1178X0.0001*%
%ADD602R,0.1176X0.0001*%
%ADD603R,0.1174X0.0001*%
%ADD604R,0.1172X0.0001*%
%ADD605R,0.1170X0.0001*%
%ADD606R,0.1168X0.0001*%
%ADD607R,0.1166X0.0001*%
%ADD608R,0.1164X0.0001*%
%ADD609R,0.1162X0.0001*%
%ADD610R,0.1160X0.0001*%
%ADD611R,0.1158X0.0001*%
%ADD612R,0.1156X0.0001*%
%ADD613R,0.1154X0.0001*%
%ADD614R,0.1152X0.0001*%
%ADD615R,0.1150X0.0001*%
%ADD616R,0.1148X0.0001*%
%ADD617R,0.1146X0.0001*%
%ADD618R,0.1142X0.0001*%
%ADD619R,0.1136X0.0001*%
%ADD620R,0.1131X0.0001*%
%ADD621R,0.1126X0.0001*%
%ADD622R,0.1120X0.0001*%
%ADD623R,0.1114X0.0001*%
%ADD624R,0.1108X0.0001*%
%ADD625R,0.1102X0.0001*%
%ADD626R,0.1095X0.0001*%
%ADD627R,0.1089X0.0001*%
%ADD628R,0.1083X0.0001*%
%ADD629R,0.1075X0.0001*%
%ADD630R,0.1067X0.0001*%
%ADD631R,0.1060X0.0001*%
%ADD632R,0.1052X0.0001*%
%ADD633R,0.1044X0.0001*%
%ADD634R,0.1036X0.0001*%
%ADD635R,0.1026X0.0001*%
%ADD636R,0.1016X0.0001*%
%ADD637R,0.1005X0.0001*%
%ADD638R,0.0993X0.0001*%
%ADD639R,0.0977X0.0001*%
%ADD640R,0.0954X0.0001*%
%ADD641C,0.0000*%
D10*
X000359Y000375D02*
X000443Y000375D01*
X000484Y000417D01*
X000318Y000584D01*
X000318Y000417D01*
X000359Y000375D01*
X000484Y000417D02*
X000484Y000584D01*
X000443Y000625D01*
X000359Y000625D01*
X000318Y000584D01*
X000581Y000417D02*
X000581Y000375D01*
X000623Y000375D01*
X000623Y000417D01*
X000581Y000417D01*
X000732Y000375D02*
X000899Y000375D01*
X000815Y000375D02*
X000815Y000625D01*
X000899Y000542D01*
X001008Y000542D02*
X001092Y000375D01*
X001175Y000542D01*
X001425Y000758D02*
X001375Y000808D01*
X001375Y000908D01*
X001425Y000958D01*
X001525Y000958D01*
X001525Y000858D01*
X001625Y000758D02*
X001425Y000758D01*
X001625Y000758D02*
X001675Y000808D01*
X001675Y000908D01*
X001625Y000958D01*
X001675Y001080D02*
X001375Y001281D01*
X001675Y001281D01*
X001675Y001403D02*
X001675Y001553D01*
X001625Y001603D01*
X001425Y001603D01*
X001375Y001553D01*
X001375Y001403D01*
X001675Y001403D01*
X001941Y001150D02*
X002041Y001150D01*
X002091Y001100D01*
X001941Y001150D02*
X001891Y001100D01*
X001891Y001050D01*
X002091Y000850D01*
X001891Y000850D01*
X001675Y001080D02*
X001375Y001080D01*
X001826Y000575D02*
X001826Y000375D01*
X001776Y000325D01*
X001999Y000325D02*
X001999Y000525D01*
X001877Y000525D02*
X001776Y000525D01*
X001999Y000325D02*
X002149Y000325D01*
X002199Y000375D01*
X002199Y000525D01*
X002321Y000475D02*
X002321Y000375D01*
X002371Y000325D01*
X002471Y000325D01*
X002521Y000375D01*
X002521Y000475D01*
X002471Y000525D01*
X002371Y000525D01*
X002321Y000475D01*
X002639Y000525D02*
X002790Y000425D01*
X002639Y000325D01*
X002790Y000325D02*
X002790Y000625D01*
X002912Y000475D02*
X002962Y000525D01*
X003062Y000525D01*
X003062Y000425D02*
X002912Y000425D01*
X002912Y000475D02*
X002912Y000325D01*
X003062Y000325D01*
X003112Y000375D01*
X003062Y000425D01*
X003234Y000425D02*
X003434Y000425D01*
X003434Y000375D02*
X003434Y000475D01*
X003384Y000525D01*
X003284Y000525D01*
X003234Y000475D01*
X003234Y000425D01*
X003284Y000325D02*
X003384Y000325D01*
X003434Y000375D01*
X003553Y000525D02*
X003603Y000525D01*
X003703Y000425D01*
X003703Y000325D02*
X003703Y000525D01*
X003825Y000525D02*
X003875Y000475D01*
X004025Y000475D01*
X003875Y000475D02*
X003825Y000425D01*
X003825Y000375D01*
X003875Y000325D01*
X004025Y000325D01*
X004025Y000625D01*
X003875Y000625D01*
X003825Y000575D01*
X003825Y000525D01*
X004125Y000808D02*
X004175Y000758D01*
X004375Y000758D01*
X004425Y000808D01*
X004425Y000908D01*
X004375Y000958D01*
X004275Y000958D02*
X004275Y000858D01*
X004175Y000958D02*
X004125Y000908D01*
X004125Y000808D01*
X004175Y000958D02*
X004275Y000958D01*
X004125Y001080D02*
X004425Y001080D01*
X004125Y001281D01*
X004425Y001281D01*
X004425Y001403D02*
X004425Y001553D01*
X004375Y001603D01*
X004175Y001603D01*
X004125Y001553D01*
X004125Y001403D01*
X004425Y001403D01*
X003703Y001150D02*
X003703Y000850D01*
X003603Y000950D01*
X003503Y000850D01*
X003503Y001150D01*
X003380Y001100D02*
X003380Y001050D01*
X003330Y001000D01*
X003230Y001000D01*
X003180Y000950D01*
X003180Y000900D01*
X003230Y000850D01*
X003330Y000850D01*
X003380Y000900D01*
X003380Y001100D02*
X003330Y001150D01*
X003230Y001150D01*
X003180Y001100D01*
X003058Y001100D02*
X003008Y001150D01*
X002908Y001150D01*
X002858Y001100D01*
X002858Y001050D01*
X003058Y000850D01*
X002858Y000850D01*
X002736Y000900D02*
X002736Y000950D01*
X002686Y001000D01*
X002586Y001000D01*
X002536Y000950D01*
X002536Y000900D01*
X002586Y000850D01*
X002686Y000850D01*
X002736Y000900D01*
X002686Y001000D02*
X002736Y001050D01*
X002736Y001100D01*
X002686Y001150D01*
X002586Y001150D01*
X002536Y001100D01*
X002536Y001050D01*
X002586Y001000D01*
X002414Y001050D02*
X002314Y001150D01*
X002314Y000850D01*
X002414Y000850D02*
X002213Y000850D01*
X001675Y001988D02*
X001375Y001988D01*
X001375Y002138D01*
X001425Y002188D01*
X001625Y002188D01*
X001675Y002138D01*
X001675Y001988D01*
X001675Y002310D02*
X001675Y002410D01*
X001675Y002360D02*
X001375Y002360D01*
X001375Y002310D02*
X001375Y002410D01*
X001475Y002808D02*
X001375Y002908D01*
X001475Y003008D01*
X001675Y003008D01*
X001625Y003130D02*
X001425Y003130D01*
X001375Y003180D01*
X001375Y003281D01*
X001425Y003331D01*
X001425Y003453D02*
X001375Y003503D01*
X001375Y003603D01*
X001425Y003653D01*
X001625Y003653D02*
X001675Y003603D01*
X001675Y003503D01*
X001625Y003453D01*
X001425Y003453D01*
X001625Y003331D02*
X001675Y003281D01*
X001675Y003180D01*
X001625Y003130D01*
X001675Y002808D02*
X001475Y002808D01*
X004125Y002908D02*
X004225Y003008D01*
X004425Y003008D01*
X004375Y003130D02*
X004175Y003130D01*
X004125Y003180D01*
X004125Y003281D01*
X004175Y003331D01*
X004175Y003453D02*
X004125Y003503D01*
X004125Y003603D01*
X004175Y003653D01*
X004375Y003653D02*
X004425Y003603D01*
X004425Y003503D01*
X004375Y003453D01*
X004175Y003453D01*
X004375Y003331D02*
X004425Y003281D01*
X004425Y003180D01*
X004375Y003130D01*
X004125Y002908D02*
X004225Y002808D01*
X004425Y002808D01*
X004375Y002503D02*
X004175Y002503D01*
X004125Y002453D01*
X004125Y002353D01*
X004175Y002303D01*
X004375Y002303D01*
X004425Y002353D01*
X004425Y002453D01*
X004375Y002503D01*
X004375Y002181D02*
X004175Y002181D01*
X004125Y002131D01*
X004125Y001980D01*
X004425Y001980D01*
X004425Y002131D01*
X004375Y002181D01*
D11*
X004005Y003708D02*
X004005Y003878D01*
X003920Y003878D01*
X003892Y003850D01*
X003892Y003793D01*
X003920Y003765D01*
X004005Y003765D01*
X004071Y003765D02*
X004100Y003793D01*
X004100Y003907D01*
X004128Y003878D02*
X004071Y003878D01*
X004194Y003878D02*
X004251Y003878D01*
X004222Y003907D02*
X004222Y003793D01*
X004194Y003765D01*
X004322Y003765D02*
X004322Y003850D01*
X004350Y003878D01*
X004407Y003878D01*
X004435Y003850D01*
X004435Y003935D02*
X004435Y003765D01*
X003821Y003765D02*
X003821Y003793D01*
X003793Y003793D01*
X003793Y003765D01*
X003821Y003765D01*
X003729Y003765D02*
X003616Y003935D01*
X003545Y003765D02*
X003431Y003935D01*
X003332Y003878D02*
X003276Y003878D01*
X003247Y003850D01*
X003247Y003765D01*
X003332Y003765D01*
X003361Y003793D01*
X003332Y003822D01*
X003247Y003822D01*
X003177Y003850D02*
X003177Y003793D01*
X003148Y003765D01*
X003063Y003765D01*
X002992Y003765D02*
X002992Y003878D01*
X002992Y003822D02*
X002936Y003878D01*
X002907Y003878D01*
X002839Y003850D02*
X002839Y003793D01*
X002811Y003765D01*
X002754Y003765D01*
X002726Y003793D01*
X002726Y003850D01*
X002754Y003878D01*
X002811Y003878D01*
X002839Y003850D01*
X002655Y003878D02*
X002570Y003878D01*
X002541Y003850D01*
X002541Y003793D01*
X002570Y003765D01*
X002655Y003765D01*
X002655Y003935D01*
X002471Y003850D02*
X002471Y003793D01*
X002442Y003765D01*
X002386Y003765D01*
X002357Y003793D01*
X002357Y003850D01*
X002386Y003878D01*
X002442Y003878D01*
X002471Y003850D01*
X002287Y003878D02*
X002230Y003878D01*
X002258Y003907D02*
X002258Y003793D01*
X002230Y003765D01*
X002164Y003765D02*
X002107Y003765D01*
X002135Y003765D02*
X002135Y003878D01*
X002164Y003878D01*
X002135Y003935D02*
X002135Y003964D01*
X002041Y003850D02*
X002013Y003878D01*
X001928Y003878D01*
X001857Y003793D02*
X001828Y003793D01*
X001828Y003765D01*
X001857Y003765D01*
X001857Y003793D01*
X001928Y003765D02*
X002013Y003765D01*
X002041Y003793D01*
X002041Y003850D01*
X001765Y003850D02*
X001765Y003793D01*
X001736Y003765D01*
X001651Y003765D01*
X001581Y003793D02*
X001552Y003765D01*
X001495Y003765D01*
X001467Y003793D01*
X001467Y003850D01*
X001495Y003878D01*
X001552Y003878D01*
X001581Y003850D01*
X001581Y003793D01*
X001651Y003878D02*
X001736Y003878D01*
X001765Y003850D01*
X001396Y003878D02*
X001396Y003765D01*
X001340Y003765D02*
X001340Y003850D01*
X001311Y003878D01*
X001283Y003850D01*
X001283Y003765D01*
X001340Y003850D02*
X001368Y003878D01*
X001396Y003878D01*
X003063Y003878D02*
X003148Y003878D01*
X003177Y003850D01*
X003793Y003850D02*
X003821Y003850D01*
X003821Y003878D01*
X003793Y003878D01*
X003793Y003850D01*
D12*
X003539Y001255D03*
D13*
X002305Y001255D03*
D14*
X003539Y001256D03*
D15*
X002306Y001256D03*
X002306Y001760D03*
D16*
X003539Y001257D03*
D17*
X002305Y001257D03*
X002305Y001759D03*
D18*
X003539Y001258D03*
D19*
X002305Y001258D03*
X002305Y001758D03*
D20*
X002306Y001757D03*
X002306Y001259D03*
X003539Y001259D03*
D21*
X003539Y001260D03*
D22*
X002306Y001260D03*
X002306Y001756D03*
D23*
X002306Y001755D03*
X002306Y001261D03*
X003539Y001261D03*
D24*
X003539Y001262D03*
D25*
X002306Y001262D03*
X002306Y001754D03*
D26*
X002305Y001753D03*
X002305Y001263D03*
X003539Y001263D03*
D27*
X003539Y001264D03*
X002306Y001264D03*
X002306Y001752D03*
D28*
X002305Y001751D03*
X003539Y001265D03*
D29*
X002306Y001265D03*
D30*
X003539Y001266D03*
X003539Y001743D03*
D31*
X002305Y001750D03*
X002305Y001266D03*
D32*
X002306Y001267D03*
X003539Y001267D03*
D33*
X003539Y001268D03*
X002306Y001268D03*
X002306Y001748D03*
D34*
X002306Y001747D03*
X002306Y001269D03*
X003539Y001269D03*
D35*
X003539Y001270D03*
D36*
X002306Y001270D03*
X002306Y001746D03*
D37*
X002306Y001745D03*
X002306Y001271D03*
X003539Y001271D03*
D38*
X003539Y001272D03*
X002306Y001272D03*
X002306Y001744D03*
D39*
X002306Y001273D03*
X003539Y001273D03*
X003539Y001736D03*
D40*
X003539Y001735D03*
X003539Y001274D03*
D41*
X002305Y001274D03*
X002305Y001742D03*
D42*
X002305Y001741D03*
X002305Y001275D03*
X003539Y001275D03*
D43*
X003539Y001276D03*
X003539Y001733D03*
D44*
X002306Y001740D03*
X002306Y001276D03*
D45*
X002306Y001277D03*
X002306Y001739D03*
X003539Y001732D03*
X003539Y001277D03*
D46*
X003539Y001278D03*
X003539Y001279D03*
X003539Y001731D03*
X002306Y001737D03*
X002306Y001279D03*
D47*
X002305Y001278D03*
X002305Y001738D03*
D48*
X002306Y001735D03*
X002306Y001281D03*
X002306Y001280D03*
X003539Y001280D03*
X003539Y001729D03*
D49*
X003539Y001728D03*
X003539Y001281D03*
D50*
X003539Y001282D03*
X003539Y001727D03*
X002306Y001734D03*
X002306Y001282D03*
D51*
X002305Y001283D03*
X002305Y001733D03*
X003539Y001726D03*
X003539Y001283D03*
D52*
X003539Y001284D03*
X003539Y001725D03*
D53*
X002306Y001731D03*
X002306Y001732D03*
X002306Y001285D03*
X002306Y001284D03*
D54*
X003539Y001285D03*
X003539Y001724D03*
D55*
X003539Y001723D03*
X003539Y001287D03*
X003539Y001286D03*
X002306Y001286D03*
X002306Y001287D03*
X002306Y001729D03*
X002306Y001730D03*
D56*
X002306Y001727D03*
X002306Y001726D03*
X002306Y001290D03*
X002306Y001289D03*
X003539Y001290D03*
X003539Y001289D03*
X003539Y001288D03*
X003539Y001720D03*
X003539Y001721D03*
D57*
X003539Y001722D03*
X002305Y001728D03*
X002305Y001288D03*
D58*
X002305Y001291D03*
X002305Y001725D03*
X003539Y001719D03*
X003539Y001291D03*
D59*
X003539Y001292D03*
X003539Y001293D03*
X003539Y001716D03*
X003539Y001717D03*
X003539Y001718D03*
X002306Y001722D03*
X002306Y001723D03*
X002306Y001724D03*
X002306Y001294D03*
X002306Y001293D03*
X002306Y001292D03*
D60*
X003539Y001294D03*
X003539Y001295D03*
X003539Y001715D03*
D61*
X002305Y001721D03*
X002305Y001295D03*
D62*
X002306Y001296D03*
X002306Y001297D03*
X002306Y001298D03*
X002306Y001299D03*
X002306Y001300D03*
X002306Y001716D03*
X002306Y001717D03*
X002306Y001718D03*
X002306Y001719D03*
X002306Y001720D03*
X003539Y001714D03*
X003539Y001713D03*
X003539Y001712D03*
X003539Y001711D03*
X003539Y001710D03*
X003539Y001299D03*
X003539Y001298D03*
X003539Y001297D03*
X003539Y001296D03*
D63*
X003539Y001300D03*
X003539Y001301D03*
X003539Y001302D03*
X003539Y001303D03*
X003539Y001304D03*
X003539Y001305D03*
X003539Y001306D03*
X003539Y001307D03*
X003539Y001308D03*
X003539Y001309D03*
X003539Y001310D03*
X003539Y001311D03*
X003539Y001312D03*
X003539Y001313D03*
X003539Y001314D03*
X003539Y001315D03*
X003539Y001316D03*
X003539Y001317D03*
X003539Y001318D03*
X003539Y001319D03*
X003539Y001320D03*
X003539Y001321D03*
X003539Y001322D03*
X003539Y001323D03*
X003539Y001324D03*
X003539Y001325D03*
X003539Y001326D03*
X003539Y001327D03*
X003539Y001328D03*
X003539Y001329D03*
X003539Y001330D03*
X003539Y001331D03*
X003539Y001332D03*
X003539Y001333D03*
X003539Y001334D03*
X003539Y001335D03*
X003539Y001336D03*
X003539Y001337D03*
X003539Y001338D03*
X003539Y001339D03*
X003539Y001340D03*
X003539Y001341D03*
X003539Y001342D03*
X003539Y001343D03*
X003539Y001344D03*
X003539Y001345D03*
X003539Y001346D03*
X003539Y001347D03*
X003539Y001348D03*
X003539Y001349D03*
X003539Y001350D03*
X003539Y001351D03*
X003539Y001352D03*
X003539Y001353D03*
X003539Y001354D03*
X003539Y001355D03*
X003539Y001356D03*
X003539Y001357D03*
X003539Y001358D03*
X003539Y001359D03*
X003539Y001360D03*
X003539Y001361D03*
X003539Y001362D03*
X003539Y001363D03*
X003539Y001364D03*
X003539Y001365D03*
X003539Y001366D03*
X003539Y001367D03*
X003539Y001368D03*
X003539Y001369D03*
X003539Y001370D03*
X003539Y001371D03*
X003539Y001372D03*
X003539Y001373D03*
X003539Y001374D03*
X003539Y001375D03*
X003539Y001376D03*
X003539Y001377D03*
X003539Y001378D03*
X003539Y001379D03*
X003539Y001380D03*
X003539Y001381D03*
X003539Y001382D03*
X003539Y001383D03*
X003539Y001384D03*
X003539Y001385D03*
X003539Y001386D03*
X003539Y001387D03*
X003539Y001388D03*
X003539Y001389D03*
X003539Y001390D03*
X003539Y001391D03*
X003539Y001392D03*
X003539Y001393D03*
X003539Y001394D03*
X003539Y001395D03*
X003539Y001396D03*
X003539Y001397D03*
X003539Y001398D03*
X003539Y001399D03*
X003539Y001400D03*
X003539Y001401D03*
X003539Y001402D03*
X003539Y001403D03*
X003539Y001404D03*
X003539Y001405D03*
X003539Y001406D03*
X003539Y001407D03*
X003539Y001408D03*
X003539Y001409D03*
X003539Y001410D03*
X003539Y001411D03*
X003539Y001412D03*
X003539Y001413D03*
X003539Y001414D03*
X003539Y001415D03*
X003539Y001416D03*
X003539Y001417D03*
X003539Y001418D03*
X003539Y001419D03*
X003539Y001420D03*
X003539Y001421D03*
X003539Y001422D03*
X003539Y001423D03*
X003539Y001424D03*
X003539Y001425D03*
X003539Y001426D03*
X003539Y001427D03*
X003539Y001428D03*
X003539Y001429D03*
X003539Y001430D03*
X003539Y001431D03*
X003539Y001432D03*
X003539Y001433D03*
X003539Y001434D03*
X003539Y001435D03*
X003539Y001436D03*
X003539Y001437D03*
X003539Y001438D03*
X003539Y001439D03*
X003539Y001440D03*
X003539Y001441D03*
X003539Y001442D03*
X003539Y001443D03*
X003539Y001444D03*
X003539Y001445D03*
X003539Y001446D03*
X003539Y001447D03*
X003539Y001448D03*
X003539Y001449D03*
X003539Y001450D03*
X003539Y001451D03*
X003539Y001452D03*
X003539Y001453D03*
X003539Y001454D03*
X003539Y001455D03*
X003539Y001456D03*
X003539Y001457D03*
X003539Y001458D03*
X003539Y001459D03*
X003539Y001460D03*
X003539Y001461D03*
X003539Y001462D03*
X003539Y001463D03*
X003539Y001464D03*
X003539Y001465D03*
X003539Y001466D03*
X003539Y001467D03*
X003539Y001468D03*
X003539Y001469D03*
X003539Y001470D03*
X003539Y001471D03*
X003539Y001472D03*
X003539Y001473D03*
X003539Y001474D03*
X003539Y001475D03*
X003539Y001476D03*
X003539Y001477D03*
X003539Y001478D03*
X003539Y001479D03*
X003539Y001480D03*
X003539Y001481D03*
X003539Y001482D03*
X003539Y001483D03*
X003539Y001484D03*
X003539Y001485D03*
X003539Y001486D03*
X003539Y001487D03*
X003539Y001488D03*
X003539Y001489D03*
X003539Y001490D03*
X003539Y001491D03*
X003539Y001492D03*
X003539Y001493D03*
X003539Y001494D03*
X003539Y001495D03*
X003539Y001496D03*
X003539Y001497D03*
X003539Y001498D03*
X003539Y001499D03*
X003539Y001500D03*
X003539Y001501D03*
X003539Y001502D03*
X003539Y001503D03*
X003539Y001504D03*
X003539Y001505D03*
X003539Y001506D03*
X003539Y001507D03*
X003539Y001508D03*
X003539Y001509D03*
X003539Y001510D03*
X003539Y001511D03*
X003539Y001512D03*
X003539Y001513D03*
X003539Y001514D03*
X003539Y001515D03*
X003539Y001516D03*
X003539Y001517D03*
X003539Y001518D03*
X003539Y001519D03*
X003539Y001520D03*
X003539Y001521D03*
X003539Y001522D03*
X003539Y001523D03*
X003539Y001524D03*
X003539Y001525D03*
X003539Y001526D03*
X003539Y001527D03*
X003539Y001528D03*
X003539Y001529D03*
X003539Y001530D03*
X003539Y001531D03*
X003539Y001532D03*
X003539Y001533D03*
X003539Y001534D03*
X003539Y001535D03*
X003539Y001536D03*
X003539Y001537D03*
X003539Y001538D03*
X003539Y001539D03*
X003539Y001540D03*
X003539Y001541D03*
X003539Y001542D03*
X003539Y001543D03*
X003539Y001544D03*
X003539Y001545D03*
X003539Y001546D03*
X003539Y001547D03*
X003539Y001548D03*
X003539Y001549D03*
X003539Y001550D03*
X003539Y001551D03*
X003539Y001552D03*
X003539Y001553D03*
X003539Y001554D03*
X003539Y001555D03*
X003539Y001556D03*
X003539Y001557D03*
X003539Y001558D03*
X003539Y001559D03*
X003539Y001560D03*
X003539Y001561D03*
X003539Y001562D03*
X003539Y001563D03*
X003539Y001564D03*
X003539Y001565D03*
X003539Y001566D03*
X003539Y001567D03*
X003539Y001568D03*
X003539Y001569D03*
X003539Y001570D03*
X003539Y001571D03*
X003539Y001572D03*
X003539Y001573D03*
X003539Y001574D03*
X003539Y001575D03*
X003539Y001576D03*
X003539Y001577D03*
X003539Y001578D03*
X003539Y001579D03*
X003539Y001580D03*
X003539Y001581D03*
X003539Y001582D03*
X003539Y001583D03*
X003539Y001584D03*
X003539Y001585D03*
X003539Y001586D03*
X003539Y001587D03*
X003539Y001588D03*
X003539Y001589D03*
X003539Y001590D03*
X003539Y001591D03*
X003539Y001592D03*
X003539Y001593D03*
X003539Y001594D03*
X003539Y001595D03*
X003539Y001596D03*
X003539Y001597D03*
X003539Y001598D03*
X003539Y001599D03*
X003539Y001600D03*
X003539Y001601D03*
X003539Y001602D03*
X003539Y001603D03*
X003539Y001604D03*
X003539Y001605D03*
X003539Y001606D03*
X003539Y001607D03*
X003539Y001608D03*
X003539Y001609D03*
X003539Y001610D03*
X003539Y001611D03*
X003539Y001612D03*
X003539Y001613D03*
X003539Y001614D03*
X003539Y001615D03*
X003539Y001616D03*
X003539Y001617D03*
X003539Y001618D03*
X003539Y001619D03*
X003539Y001620D03*
X003539Y001621D03*
X003539Y001622D03*
X003539Y001623D03*
X003539Y001624D03*
X003539Y001625D03*
X003539Y001626D03*
X003539Y001627D03*
X003539Y001628D03*
X003539Y001629D03*
X003539Y001630D03*
X003539Y001631D03*
X003539Y001632D03*
X003539Y001633D03*
X003539Y001634D03*
X003539Y001635D03*
X003539Y001636D03*
X003539Y001637D03*
X003539Y001638D03*
X003539Y001639D03*
X003539Y001640D03*
X003539Y001641D03*
X003539Y001642D03*
X003539Y001643D03*
X003539Y001644D03*
X003539Y001645D03*
X003539Y001646D03*
X003539Y001647D03*
X003539Y001648D03*
X003539Y001649D03*
X003539Y001650D03*
X003539Y001651D03*
X003539Y001652D03*
X003539Y001653D03*
X003539Y001654D03*
X003539Y001655D03*
X003539Y001656D03*
X003539Y001657D03*
X003539Y001658D03*
X003539Y001659D03*
X003539Y001660D03*
X003539Y001661D03*
X003539Y001662D03*
X003539Y001663D03*
X003539Y001664D03*
X003539Y001665D03*
X003539Y001666D03*
X003539Y001667D03*
X003539Y001668D03*
X003539Y001669D03*
X003539Y001670D03*
X003539Y001671D03*
X003539Y001672D03*
X003539Y001673D03*
X003539Y001674D03*
X003539Y001675D03*
X003539Y001676D03*
X003539Y001677D03*
X003539Y001678D03*
X003539Y001679D03*
X003539Y001680D03*
X003539Y001681D03*
X003539Y001682D03*
X003539Y001683D03*
X003539Y001684D03*
X003539Y001685D03*
X003539Y001686D03*
X003539Y001687D03*
X003539Y001688D03*
X003539Y001689D03*
X003539Y001690D03*
X003539Y001691D03*
X003539Y001692D03*
X003539Y001693D03*
X003539Y001694D03*
X003539Y001695D03*
X003539Y001696D03*
X003539Y001697D03*
X003539Y001698D03*
X003539Y001699D03*
X003539Y001700D03*
X003539Y001701D03*
X003539Y001702D03*
X003539Y001703D03*
X003539Y001704D03*
X003539Y001705D03*
X003539Y001706D03*
X003539Y001707D03*
X003539Y001708D03*
X003539Y001709D03*
X002305Y001710D03*
X002305Y001711D03*
X002305Y001712D03*
X002305Y001713D03*
X002305Y001714D03*
X002305Y001715D03*
X002305Y001709D03*
X002305Y001708D03*
X002305Y001707D03*
X002305Y001706D03*
X002305Y001705D03*
X002305Y001704D03*
X002305Y001703D03*
X002305Y001702D03*
X002305Y001701D03*
X002305Y001700D03*
X002305Y001699D03*
X002305Y001698D03*
X002305Y001697D03*
X002305Y001696D03*
X002305Y001695D03*
X002305Y001694D03*
X002305Y001693D03*
X002305Y001692D03*
X002305Y001691D03*
X002305Y001690D03*
X002305Y001689D03*
X002305Y001688D03*
X002305Y001687D03*
X002305Y001686D03*
X002305Y001685D03*
X002305Y001684D03*
X002305Y001683D03*
X002305Y001682D03*
X002305Y001681D03*
X002305Y001680D03*
X002305Y001679D03*
X002305Y001678D03*
X002305Y001677D03*
X002305Y001676D03*
X002305Y001675D03*
X002305Y001674D03*
X002305Y001673D03*
X002305Y001672D03*
X002305Y001671D03*
X002305Y001670D03*
X002305Y001669D03*
X002305Y001668D03*
X002305Y001667D03*
X002305Y001666D03*
X002305Y001665D03*
X002305Y001664D03*
X002305Y001663D03*
X002305Y001662D03*
X002305Y001661D03*
X002305Y001660D03*
X002305Y001659D03*
X002305Y001658D03*
X002305Y001657D03*
X002305Y001656D03*
X002305Y001655D03*
X002305Y001654D03*
X002305Y001653D03*
X002305Y001652D03*
X002305Y001651D03*
X002305Y001650D03*
X002305Y001649D03*
X002305Y001648D03*
X002305Y001647D03*
X002305Y001646D03*
X002305Y001645D03*
X002305Y001644D03*
X002305Y001643D03*
X002305Y001642D03*
X002305Y001641D03*
X002305Y001640D03*
X002305Y001639D03*
X002305Y001638D03*
X002305Y001637D03*
X002305Y001636D03*
X002305Y001635D03*
X002305Y001634D03*
X002305Y001633D03*
X002305Y001632D03*
X002305Y001631D03*
X002305Y001630D03*
X002305Y001629D03*
X002305Y001628D03*
X002305Y001627D03*
X002305Y001626D03*
X002305Y001625D03*
X002305Y001624D03*
X002305Y001623D03*
X002305Y001622D03*
X002305Y001621D03*
X002305Y001620D03*
X002305Y001619D03*
X002305Y001618D03*
X002305Y001617D03*
X002305Y001616D03*
X002305Y001615D03*
X002305Y001614D03*
X002305Y001613D03*
X002305Y001612D03*
X002305Y001611D03*
X002305Y001610D03*
X002305Y001609D03*
X002305Y001608D03*
X002305Y001607D03*
X002305Y001606D03*
X002305Y001605D03*
X002305Y001604D03*
X002305Y001603D03*
X002305Y001602D03*
X002305Y001601D03*
X002305Y001600D03*
X002305Y001599D03*
X002305Y001598D03*
X002305Y001597D03*
X002305Y001596D03*
X002305Y001595D03*
X002305Y001594D03*
X002305Y001593D03*
X002305Y001592D03*
X002305Y001591D03*
X002305Y001590D03*
X002305Y001589D03*
X002305Y001588D03*
X002305Y001587D03*
X002305Y001586D03*
X002305Y001585D03*
X002305Y001584D03*
X002305Y001583D03*
X002305Y001582D03*
X002305Y001581D03*
X002305Y001580D03*
X002305Y001579D03*
X002305Y001578D03*
X002305Y001577D03*
X002305Y001576D03*
X002305Y001575D03*
X002305Y001574D03*
X002305Y001573D03*
X002305Y001572D03*
X002305Y001571D03*
X002305Y001570D03*
X002305Y001569D03*
X002305Y001568D03*
X002305Y001567D03*
X002305Y001566D03*
X002305Y001565D03*
X002305Y001564D03*
X002305Y001563D03*
X002305Y001562D03*
X002305Y001561D03*
X002305Y001560D03*
X002305Y001559D03*
X002305Y001558D03*
X002305Y001557D03*
X002305Y001556D03*
X002305Y001555D03*
X002305Y001554D03*
X002305Y001553D03*
X002305Y001552D03*
X002305Y001551D03*
X002305Y001550D03*
X002305Y001549D03*
X002305Y001548D03*
X002305Y001547D03*
X002305Y001546D03*
X002305Y001545D03*
X002305Y001544D03*
X002305Y001543D03*
X002305Y001542D03*
X002305Y001541D03*
X002305Y001540D03*
X002305Y001539D03*
X002305Y001538D03*
X002305Y001537D03*
X002305Y001536D03*
X002305Y001535D03*
X002305Y001534D03*
X002305Y001533D03*
X002305Y001532D03*
X002305Y001531D03*
X002305Y001530D03*
X002305Y001529D03*
X002305Y001528D03*
X002305Y001527D03*
X002305Y001526D03*
X002305Y001525D03*
X002305Y001524D03*
X002305Y001523D03*
X002305Y001522D03*
X002305Y001521D03*
X002305Y001520D03*
X002305Y001519D03*
X002305Y001518D03*
X002305Y001517D03*
X002305Y001516D03*
X002305Y001515D03*
X002305Y001514D03*
X002305Y001513D03*
X002305Y001512D03*
X002305Y001511D03*
X002305Y001510D03*
X002305Y001509D03*
X002305Y001508D03*
X002305Y001507D03*
X002305Y001506D03*
X002305Y001505D03*
X002305Y001504D03*
X002305Y001503D03*
X002305Y001502D03*
X002305Y001501D03*
X002305Y001500D03*
X002305Y001499D03*
X002305Y001498D03*
X002305Y001497D03*
X002305Y001496D03*
X002305Y001495D03*
X002305Y001494D03*
X002305Y001493D03*
X002305Y001492D03*
X002305Y001491D03*
X002305Y001490D03*
X002305Y001489D03*
X002305Y001488D03*
X002305Y001487D03*
X002305Y001486D03*
X002305Y001485D03*
X002305Y001484D03*
X002305Y001483D03*
X002305Y001482D03*
X002305Y001481D03*
X002305Y001480D03*
X002305Y001479D03*
X002305Y001478D03*
X002305Y001477D03*
X002305Y001476D03*
X002305Y001475D03*
X002305Y001474D03*
X002305Y001473D03*
X002305Y001472D03*
X002305Y001471D03*
X002305Y001470D03*
X002305Y001469D03*
X002305Y001468D03*
X002305Y001467D03*
X002305Y001466D03*
X002305Y001465D03*
X002305Y001464D03*
X002305Y001463D03*
X002305Y001462D03*
X002305Y001461D03*
X002305Y001460D03*
X002305Y001459D03*
X002305Y001458D03*
X002305Y001457D03*
X002305Y001456D03*
X002305Y001455D03*
X002305Y001454D03*
X002305Y001453D03*
X002305Y001452D03*
X002305Y001451D03*
X002305Y001450D03*
X002305Y001449D03*
X002305Y001448D03*
X002305Y001447D03*
X002305Y001446D03*
X002305Y001445D03*
X002305Y001444D03*
X002305Y001443D03*
X002305Y001442D03*
X002305Y001441D03*
X002305Y001440D03*
X002305Y001439D03*
X002305Y001438D03*
X002305Y001437D03*
X002305Y001436D03*
X002305Y001435D03*
X002305Y001434D03*
X002305Y001433D03*
X002305Y001432D03*
X002305Y001431D03*
X002305Y001430D03*
X002305Y001429D03*
X002305Y001428D03*
X002305Y001427D03*
X002305Y001426D03*
X002305Y001425D03*
X002305Y001424D03*
X002305Y001423D03*
X002305Y001422D03*
X002305Y001421D03*
X002305Y001420D03*
X002305Y001419D03*
X002305Y001418D03*
X002305Y001417D03*
X002305Y001416D03*
X002305Y001415D03*
X002305Y001414D03*
X002305Y001413D03*
X002305Y001412D03*
X002305Y001411D03*
X002305Y001410D03*
X002305Y001409D03*
X002305Y001408D03*
X002305Y001407D03*
X002305Y001406D03*
X002305Y001405D03*
X002305Y001404D03*
X002305Y001403D03*
X002305Y001402D03*
X002305Y001401D03*
X002305Y001400D03*
X002305Y001399D03*
X002305Y001398D03*
X002305Y001397D03*
X002305Y001396D03*
X002305Y001395D03*
X002305Y001394D03*
X002305Y001393D03*
X002305Y001392D03*
X002305Y001391D03*
X002305Y001390D03*
X002305Y001389D03*
X002305Y001388D03*
X002305Y001387D03*
X002305Y001386D03*
X002305Y001385D03*
X002305Y001384D03*
X002305Y001383D03*
X002305Y001382D03*
X002305Y001381D03*
X002305Y001380D03*
X002305Y001379D03*
X002305Y001378D03*
X002305Y001377D03*
X002305Y001376D03*
X002305Y001375D03*
X002305Y001374D03*
X002305Y001373D03*
X002305Y001372D03*
X002305Y001371D03*
X002305Y001370D03*
X002305Y001369D03*
X002305Y001368D03*
X002305Y001367D03*
X002305Y001366D03*
X002305Y001365D03*
X002305Y001364D03*
X002305Y001363D03*
X002305Y001362D03*
X002305Y001361D03*
X002305Y001360D03*
X002305Y001359D03*
X002305Y001358D03*
X002305Y001357D03*
X002305Y001356D03*
X002305Y001355D03*
X002305Y001354D03*
X002305Y001353D03*
X002305Y001352D03*
X002305Y001351D03*
X002305Y001350D03*
X002305Y001349D03*
X002305Y001348D03*
X002305Y001347D03*
X002305Y001346D03*
X002305Y001345D03*
X002305Y001344D03*
X002305Y001343D03*
X002305Y001342D03*
X002305Y001341D03*
X002305Y001340D03*
X002305Y001339D03*
X002305Y001338D03*
X002305Y001337D03*
X002305Y001336D03*
X002305Y001335D03*
X002305Y001334D03*
X002305Y001333D03*
X002305Y001332D03*
X002305Y001331D03*
X002305Y001330D03*
X002305Y001329D03*
X002305Y001328D03*
X002305Y001327D03*
X002305Y001326D03*
X002305Y001325D03*
X002305Y001324D03*
X002305Y001323D03*
X002305Y001322D03*
X002305Y001321D03*
X002305Y001320D03*
X002305Y001319D03*
X002305Y001318D03*
X002305Y001317D03*
X002305Y001316D03*
X002305Y001315D03*
X002305Y001314D03*
X002305Y001313D03*
X002305Y001312D03*
X002305Y001311D03*
X002305Y001310D03*
X002305Y001309D03*
X002305Y001308D03*
X002305Y001307D03*
X002305Y001306D03*
X002305Y001305D03*
X002305Y001304D03*
X002305Y001303D03*
X002305Y001302D03*
X002305Y001301D03*
D64*
X002305Y001736D03*
X003539Y001730D03*
D65*
X003539Y001734D03*
D66*
X003539Y001737D03*
X002305Y001743D03*
D67*
X003539Y001738D03*
D68*
X003539Y001739D03*
D69*
X003539Y001740D03*
D70*
X003539Y001741D03*
D71*
X003539Y001742D03*
D72*
X003539Y001744D03*
D73*
X003539Y001745D03*
D74*
X003539Y001746D03*
D75*
X003539Y001747D03*
D76*
X003539Y001748D03*
D77*
X003539Y001749D03*
D78*
X002305Y001749D03*
D79*
X003539Y001750D03*
D80*
X003539Y001751D03*
D81*
X003539Y001752D03*
D82*
X003539Y001753D03*
D83*
X003539Y001754D03*
D84*
X003536Y001755D03*
D85*
X003537Y001756D03*
X003537Y001757D03*
X003537Y001758D03*
X003537Y001759D03*
D86*
X003538Y001760D03*
X003538Y001761D03*
X003538Y001762D03*
D87*
X002306Y001761D03*
D88*
X002298Y001762D03*
X002298Y001763D03*
X002298Y001764D03*
X002298Y001765D03*
X003555Y001879D03*
X003555Y001880D03*
X003555Y001881D03*
D89*
X003538Y001766D03*
X003538Y001765D03*
X003538Y001764D03*
X003538Y001763D03*
D90*
X003555Y001882D03*
X003555Y001883D03*
X003555Y001884D03*
X003555Y001885D03*
X002298Y001769D03*
X002298Y001768D03*
X002298Y001767D03*
X002298Y001766D03*
D91*
X003538Y001767D03*
X003538Y001768D03*
X003538Y001769D03*
D92*
X003539Y001770D03*
X003539Y001771D03*
X003539Y001772D03*
D93*
X003556Y001886D03*
X003556Y001887D03*
X003556Y001888D03*
X002297Y001773D03*
X002297Y001772D03*
X002297Y001771D03*
X002297Y001770D03*
D94*
X003539Y001773D03*
X003539Y001774D03*
X003539Y001775D03*
X003539Y001776D03*
D95*
X003556Y001889D03*
X003556Y001890D03*
X003556Y001891D03*
X002296Y001777D03*
X002296Y001776D03*
X002296Y001775D03*
X002296Y001774D03*
D96*
X003540Y001777D03*
X003540Y001778D03*
X003540Y001779D03*
D97*
X003557Y001892D03*
X003557Y001893D03*
X003557Y001894D03*
X003557Y001895D03*
X002296Y001782D03*
X002296Y001781D03*
X002296Y001780D03*
X002296Y001779D03*
X002296Y001778D03*
D98*
X003540Y001780D03*
X003540Y001781D03*
X003540Y001782D03*
X003540Y001783D03*
D99*
X003558Y001896D03*
X003558Y001897D03*
X003558Y001898D03*
X002295Y001786D03*
X002295Y001785D03*
X002295Y001784D03*
X002295Y001783D03*
D100*
X003541Y001784D03*
X003541Y001785D03*
X003541Y001786D03*
D101*
X003541Y001787D03*
X003541Y001788D03*
X003541Y001789D03*
D102*
X003558Y001899D03*
X003558Y001900D03*
X003558Y001901D03*
X003558Y001902D03*
X002295Y001790D03*
X002295Y001789D03*
X002295Y001788D03*
X002295Y001787D03*
D103*
X003542Y001790D03*
X003542Y001791D03*
X003542Y001792D03*
X003542Y001793D03*
D104*
X003558Y001903D03*
X003558Y001904D03*
X003558Y001905D03*
X002294Y001794D03*
X002294Y001793D03*
X002294Y001792D03*
X002294Y001791D03*
D105*
X003543Y001794D03*
X003543Y001795D03*
X003543Y001796D03*
D106*
X003559Y001906D03*
X003559Y001907D03*
X003559Y001908D03*
X002294Y001798D03*
X002294Y001797D03*
X002294Y001796D03*
X002294Y001795D03*
D107*
X003543Y001797D03*
X003543Y001798D03*
X003543Y001799D03*
X003543Y001800D03*
D108*
X003559Y001909D03*
X003559Y001910D03*
X003559Y001911D03*
X003559Y001912D03*
X002293Y001802D03*
X002293Y001801D03*
X002293Y001800D03*
X002293Y001799D03*
D109*
X003543Y001801D03*
X003543Y001802D03*
X003543Y001803D03*
D110*
X003560Y001913D03*
X003560Y001914D03*
X003560Y001915D03*
X002293Y001807D03*
X002293Y001806D03*
X002293Y001805D03*
X002293Y001804D03*
X002293Y001803D03*
D111*
X003544Y001804D03*
X003544Y001805D03*
X003544Y001806D03*
D112*
X003544Y001807D03*
X003544Y001808D03*
X003544Y001809D03*
X003544Y001810D03*
D113*
X003560Y001916D03*
X003560Y001917D03*
X003560Y001918D03*
X003560Y001919D03*
X002293Y001811D03*
X002293Y001810D03*
X002293Y001809D03*
X002293Y001808D03*
D114*
X003545Y001811D03*
X003545Y001812D03*
X003545Y001813D03*
D115*
X003561Y001920D03*
X003561Y001921D03*
X003561Y001922D03*
X002292Y001815D03*
X002292Y001814D03*
X002292Y001813D03*
X002292Y001812D03*
D116*
X003545Y001814D03*
X003545Y001815D03*
X003545Y001816D03*
X003545Y001817D03*
D117*
X003561Y001923D03*
X003561Y001924D03*
X003561Y001925D03*
X002291Y001819D03*
X002291Y001818D03*
X002291Y001817D03*
X002291Y001816D03*
D118*
X003546Y001818D03*
X003546Y001819D03*
X003546Y001820D03*
D119*
X003562Y001926D03*
X003562Y001927D03*
X003562Y001928D03*
X003562Y001929D03*
X002291Y001823D03*
X002291Y001822D03*
X002291Y001821D03*
X002291Y001820D03*
D120*
X003546Y001821D03*
X003546Y001822D03*
X003546Y001823D03*
D121*
X003547Y001824D03*
X003547Y001825D03*
X003547Y001826D03*
X003547Y001827D03*
D122*
X003563Y001930D03*
X003563Y001931D03*
X003563Y001932D03*
X002290Y001827D03*
X002290Y001826D03*
X002290Y001825D03*
X002290Y001824D03*
D123*
X003548Y001828D03*
X003548Y001829D03*
X003548Y001830D03*
D124*
X003563Y001933D03*
X003563Y001934D03*
X003563Y001935D03*
X003563Y001936D03*
X002290Y001832D03*
X002290Y001831D03*
X002290Y001830D03*
X002290Y001829D03*
X002290Y001828D03*
D125*
X003548Y001831D03*
X003548Y001832D03*
X003548Y001833D03*
X003548Y001834D03*
D126*
X003563Y001937D03*
X003563Y001938D03*
X003563Y001939D03*
X002289Y001836D03*
X002289Y001835D03*
X002289Y001834D03*
X002289Y001833D03*
D127*
X003548Y001835D03*
X003548Y001836D03*
X003548Y001837D03*
D128*
X003564Y001940D03*
X003564Y001941D03*
X003564Y001942D03*
X002289Y001840D03*
X002289Y001839D03*
X002289Y001838D03*
X002289Y001837D03*
D129*
X003549Y001838D03*
X003549Y001839D03*
X003549Y001840D03*
D130*
X003549Y001841D03*
X003549Y001842D03*
X003549Y001843D03*
X003549Y001844D03*
D131*
X003564Y001943D03*
X003564Y001944D03*
X003564Y001945D03*
X003564Y001946D03*
X002288Y001844D03*
X002288Y001843D03*
X002288Y001842D03*
X002288Y001841D03*
D132*
X003550Y001845D03*
X003550Y001846D03*
X003550Y001847D03*
D133*
X003565Y001947D03*
X003565Y001948D03*
X003565Y001949D03*
X002288Y001848D03*
X002288Y001847D03*
X002288Y001846D03*
X002288Y001845D03*
D134*
X003550Y001848D03*
X003550Y001849D03*
X003550Y001850D03*
X003550Y001851D03*
D135*
X003565Y001950D03*
X003565Y001951D03*
X003565Y001952D03*
X003565Y001953D03*
X002288Y001852D03*
X002288Y001851D03*
X002288Y001850D03*
X002288Y001849D03*
D136*
X003551Y001852D03*
X003551Y001853D03*
X003551Y001854D03*
D137*
X003566Y001954D03*
X003566Y001955D03*
X003566Y001956D03*
X002287Y001857D03*
X002287Y001856D03*
X002287Y001855D03*
X002287Y001854D03*
X002287Y001853D03*
D138*
X003551Y001855D03*
X003551Y001856D03*
X003551Y001857D03*
D139*
X003552Y001858D03*
X003552Y001859D03*
X003552Y001860D03*
X003552Y001861D03*
D140*
X003566Y001957D03*
X003566Y001958D03*
X003566Y001959D03*
X002286Y001861D03*
X002286Y001860D03*
X002286Y001859D03*
X002286Y001858D03*
D141*
X003553Y001862D03*
X003553Y001863D03*
X003553Y001864D03*
D142*
X003567Y001960D03*
X003567Y001961D03*
X003567Y001962D03*
X003567Y001963D03*
X002286Y001865D03*
X002286Y001864D03*
X002286Y001863D03*
X002286Y001862D03*
D143*
X003553Y001865D03*
X003553Y001866D03*
X003553Y001867D03*
X003553Y001868D03*
D144*
X003568Y001964D03*
X003568Y001965D03*
X003568Y001966D03*
X002285Y001869D03*
X002285Y001868D03*
X002285Y001867D03*
X002285Y001866D03*
D145*
X003553Y001869D03*
X003553Y001870D03*
X003553Y001871D03*
D146*
X003568Y001967D03*
X003568Y001968D03*
X003568Y001969D03*
X003568Y001970D03*
X002285Y001873D03*
X002285Y001872D03*
X002285Y001871D03*
X002285Y001870D03*
D147*
X003554Y001872D03*
X003554Y001873D03*
X003554Y001874D03*
D148*
X003568Y001971D03*
X003568Y001972D03*
X003568Y001973D03*
X002284Y001877D03*
X002284Y001876D03*
X002284Y001875D03*
X002284Y001874D03*
D149*
X003554Y001875D03*
X003554Y001876D03*
X003554Y001877D03*
X003554Y001878D03*
D150*
X003569Y001974D03*
X003569Y001975D03*
X003569Y001976D03*
X003569Y001977D03*
X002284Y001882D03*
X002284Y001881D03*
X002284Y001880D03*
X002284Y001879D03*
X002284Y001878D03*
D151*
X002283Y001883D03*
X002283Y001884D03*
X002283Y001885D03*
X002283Y001886D03*
X003569Y001978D03*
X003569Y001979D03*
X003569Y001980D03*
D152*
X003570Y001981D03*
X003570Y001982D03*
X003570Y001983D03*
X002283Y001890D03*
X002283Y001889D03*
X002283Y001888D03*
X002283Y001887D03*
D153*
X002283Y001891D03*
X002283Y001892D03*
X002283Y001893D03*
X002283Y001894D03*
X003570Y001984D03*
X003570Y001985D03*
X003570Y001986D03*
X003570Y001987D03*
D154*
X003571Y001988D03*
X003571Y001989D03*
X003571Y001990D03*
X002282Y001898D03*
X002282Y001897D03*
X002282Y001896D03*
X002282Y001895D03*
D155*
X002281Y001899D03*
X002281Y001900D03*
X002281Y001901D03*
X002281Y001902D03*
X003571Y001991D03*
X003571Y001992D03*
X003571Y001993D03*
X003571Y001994D03*
D156*
X003572Y001995D03*
X003572Y001996D03*
X003572Y001997D03*
X002281Y001907D03*
X002281Y001906D03*
X002281Y001905D03*
X002281Y001904D03*
X002281Y001903D03*
D157*
X002280Y001908D03*
X002280Y001909D03*
X002280Y001910D03*
X002280Y001911D03*
X003573Y001998D03*
X003573Y001999D03*
X003573Y002000D03*
D158*
X003573Y002001D03*
X003573Y002002D03*
X003573Y002003D03*
X003573Y002004D03*
X002280Y001915D03*
X002280Y001914D03*
X002280Y001913D03*
X002280Y001912D03*
D159*
X002279Y001916D03*
X002279Y001917D03*
X002279Y001918D03*
X002279Y001919D03*
X003573Y002005D03*
X003573Y002006D03*
X003573Y002007D03*
D160*
X003574Y002008D03*
X003574Y002009D03*
X003574Y002010D03*
X003574Y002011D03*
X002279Y001923D03*
X002279Y001922D03*
X002279Y001921D03*
X002279Y001920D03*
D161*
X002278Y001924D03*
X002278Y001925D03*
X002278Y001926D03*
X002278Y001927D03*
X003574Y002012D03*
X003574Y002013D03*
X003574Y002014D03*
D162*
X003575Y002015D03*
X003575Y002016D03*
X003575Y002017D03*
X002278Y001932D03*
X002278Y001931D03*
X002278Y001930D03*
X002278Y001929D03*
X002278Y001928D03*
D163*
X002278Y001933D03*
X002278Y001934D03*
X002278Y001935D03*
X002278Y001936D03*
X003575Y002018D03*
X003575Y002019D03*
X003575Y002020D03*
X003575Y002021D03*
D164*
X003576Y002022D03*
X003576Y002023D03*
X003576Y002024D03*
X002277Y001940D03*
X002277Y001939D03*
X002277Y001938D03*
X002277Y001937D03*
D165*
X002276Y001941D03*
X002276Y001942D03*
X002276Y001943D03*
X002276Y001944D03*
X003576Y002025D03*
X003576Y002026D03*
X003576Y002027D03*
X003576Y002028D03*
D166*
X003577Y002029D03*
X003577Y002030D03*
X003577Y002031D03*
X002276Y001948D03*
X002276Y001947D03*
X002276Y001946D03*
X002276Y001945D03*
D167*
X002275Y001949D03*
X002275Y001950D03*
X002275Y001951D03*
X002275Y001952D03*
X003578Y002032D03*
X003578Y002033D03*
X003578Y002034D03*
D168*
X003578Y002035D03*
X003578Y002036D03*
X003578Y002037D03*
X003578Y002038D03*
X002275Y001957D03*
X002275Y001956D03*
X002275Y001955D03*
X002275Y001954D03*
X002275Y001953D03*
D169*
X002274Y001958D03*
X002274Y001959D03*
X002274Y001960D03*
X002274Y001961D03*
X003578Y002039D03*
X003578Y002040D03*
X003578Y002041D03*
D170*
X003579Y002042D03*
X003579Y002043D03*
X003579Y002044D03*
X003579Y002045D03*
X002274Y001965D03*
X002274Y001964D03*
X002274Y001963D03*
X002274Y001962D03*
D171*
X002273Y001966D03*
X002273Y001967D03*
X002273Y001968D03*
X002273Y001969D03*
X003579Y002046D03*
X003579Y002047D03*
X003579Y002048D03*
D172*
X003580Y002049D03*
X003580Y002050D03*
X003580Y002051D03*
X002273Y001973D03*
X002273Y001972D03*
X002273Y001971D03*
X002273Y001970D03*
D173*
X002273Y001974D03*
X002273Y001975D03*
X002273Y001976D03*
X002273Y001977D03*
X003580Y002052D03*
X003580Y002053D03*
X003580Y002054D03*
X003580Y002055D03*
D174*
X003581Y002056D03*
X003581Y002057D03*
X003581Y002058D03*
X002272Y001982D03*
X002272Y001981D03*
X002272Y001980D03*
X002272Y001979D03*
X002272Y001978D03*
D175*
X002271Y001983D03*
X002271Y001984D03*
X002271Y001985D03*
X002271Y001986D03*
X003581Y002059D03*
X003581Y002060D03*
X003581Y002061D03*
X003581Y002062D03*
D176*
X003582Y002063D03*
X003582Y002064D03*
X003582Y002065D03*
X002271Y001990D03*
X002271Y001989D03*
X002271Y001988D03*
X002271Y001987D03*
D177*
X002270Y001991D03*
X002270Y001992D03*
X002270Y001993D03*
X002270Y001994D03*
X003583Y002066D03*
X003583Y002067D03*
X003583Y002068D03*
D178*
X003583Y002069D03*
X003583Y002070D03*
X003583Y002071D03*
X003583Y002072D03*
X002270Y001998D03*
X002270Y001997D03*
X002270Y001996D03*
X002270Y001995D03*
D179*
X002269Y001999D03*
X002269Y002000D03*
X002269Y002001D03*
X002269Y002002D03*
X003583Y002073D03*
X003583Y002074D03*
X003583Y002075D03*
D180*
X003584Y002076D03*
X003584Y002077D03*
X003584Y002078D03*
X003584Y002079D03*
X002269Y002007D03*
X002269Y002006D03*
X002269Y002005D03*
X002269Y002004D03*
X002269Y002003D03*
D181*
X002268Y002008D03*
X002268Y002009D03*
X002268Y002010D03*
X002268Y002011D03*
X003584Y002080D03*
X003584Y002081D03*
X003584Y002082D03*
D182*
X003585Y002083D03*
X003585Y002084D03*
X003585Y002085D03*
X002268Y002015D03*
X002268Y002014D03*
X002268Y002013D03*
X002268Y002012D03*
D183*
X002268Y002016D03*
X002268Y002017D03*
X002268Y002018D03*
X002268Y002019D03*
X003585Y002086D03*
X003585Y002087D03*
X003585Y002088D03*
X003585Y002089D03*
D184*
X003586Y002090D03*
X003586Y002091D03*
X003586Y002092D03*
X002267Y002023D03*
X002267Y002022D03*
X002267Y002021D03*
X002267Y002020D03*
D185*
X002266Y002024D03*
X002266Y002025D03*
X002266Y002026D03*
X002266Y002027D03*
X003586Y002093D03*
X003586Y002094D03*
X003586Y002095D03*
X003586Y002096D03*
D186*
X003587Y002097D03*
X003587Y002098D03*
X003587Y002099D03*
X002266Y002032D03*
X002266Y002031D03*
X002266Y002030D03*
X002266Y002029D03*
X002266Y002028D03*
D187*
X002265Y002033D03*
X002265Y002034D03*
X002265Y002035D03*
X002265Y002036D03*
X003588Y002100D03*
X003588Y002101D03*
X003588Y002102D03*
D188*
X003588Y002103D03*
X003588Y002104D03*
X003588Y002105D03*
X003588Y002106D03*
X002265Y002040D03*
X002265Y002039D03*
X002265Y002038D03*
X002265Y002037D03*
D189*
X002264Y002041D03*
X002264Y002042D03*
X002264Y002043D03*
X002264Y002044D03*
X003588Y002107D03*
X003588Y002108D03*
X003588Y002109D03*
D190*
X003589Y002110D03*
X003589Y002111D03*
X003589Y002112D03*
X003589Y002113D03*
X002264Y002048D03*
X002264Y002047D03*
X002264Y002046D03*
X002264Y002045D03*
D191*
X002263Y002049D03*
X002263Y002050D03*
X002263Y002051D03*
X002263Y002052D03*
X003589Y002114D03*
X003589Y002115D03*
X003589Y002116D03*
D192*
X003590Y002117D03*
X003590Y002118D03*
X003590Y002119D03*
X002263Y002057D03*
X002263Y002056D03*
X002263Y002055D03*
X002263Y002054D03*
X002263Y002053D03*
D193*
X002263Y002058D03*
X002263Y002059D03*
X002263Y002060D03*
X002263Y002061D03*
X003590Y002120D03*
X003590Y002121D03*
X003590Y002122D03*
X003590Y002123D03*
D194*
X003591Y002124D03*
X003591Y002125D03*
X003591Y002126D03*
X002262Y002065D03*
X002262Y002064D03*
X002262Y002063D03*
X002262Y002062D03*
D195*
X002261Y002066D03*
X002261Y002067D03*
X002261Y002068D03*
X002261Y002069D03*
X003591Y002127D03*
X003591Y002128D03*
X003591Y002129D03*
X003591Y002130D03*
D196*
X003592Y002131D03*
X003592Y002132D03*
X003592Y002133D03*
X002261Y002073D03*
X002261Y002072D03*
X002261Y002071D03*
X002261Y002070D03*
D197*
X002260Y002074D03*
X002260Y002075D03*
X002260Y002076D03*
X002260Y002077D03*
X003593Y002134D03*
X003593Y002135D03*
X003593Y002136D03*
D198*
X003593Y002137D03*
X003593Y002138D03*
X003593Y002139D03*
X003593Y002140D03*
X002260Y002082D03*
X002260Y002081D03*
X002260Y002080D03*
X002260Y002079D03*
X002260Y002078D03*
D199*
X002259Y002083D03*
X002259Y002084D03*
X002259Y002085D03*
X002259Y002086D03*
X003593Y002141D03*
X003593Y002142D03*
X003593Y002143D03*
D200*
X003594Y002144D03*
X003594Y002145D03*
X003594Y002146D03*
X003594Y002147D03*
X002259Y002090D03*
X002259Y002089D03*
X002259Y002088D03*
X002259Y002087D03*
D201*
X002258Y002091D03*
X002258Y002092D03*
X002258Y002093D03*
X002258Y002094D03*
X003594Y002148D03*
X003594Y002149D03*
X003594Y002150D03*
D202*
X003595Y002151D03*
X003595Y002152D03*
X003595Y002153D03*
X002258Y002098D03*
X002258Y002097D03*
X002258Y002096D03*
X002258Y002095D03*
D203*
X002258Y002099D03*
X002258Y002100D03*
X002258Y002101D03*
X002258Y002102D03*
X003595Y002154D03*
X003595Y002155D03*
X003595Y002156D03*
X003595Y002157D03*
D204*
X003596Y002158D03*
X003596Y002159D03*
X003596Y002160D03*
X002257Y002107D03*
X002257Y002106D03*
X002257Y002105D03*
X002257Y002104D03*
X002257Y002103D03*
D205*
X002256Y002108D03*
X002256Y002109D03*
X002256Y002110D03*
X002256Y002111D03*
X003596Y002161D03*
X003596Y002162D03*
X003596Y002163D03*
X003596Y002164D03*
D206*
X003597Y002165D03*
X003597Y002166D03*
X003597Y002167D03*
X002256Y002115D03*
X002256Y002114D03*
X002256Y002113D03*
X002256Y002112D03*
D207*
X002255Y002116D03*
X002255Y002117D03*
X002255Y002118D03*
X002255Y002119D03*
X003598Y002168D03*
X003598Y002169D03*
X003598Y002170D03*
D208*
X003598Y002171D03*
X003598Y002172D03*
X003598Y002173D03*
X003598Y002174D03*
X002255Y002123D03*
X002255Y002122D03*
X002255Y002121D03*
X002255Y002120D03*
D209*
X002254Y002124D03*
X002254Y002125D03*
X002254Y002126D03*
X002254Y002127D03*
X003598Y002175D03*
X003598Y002176D03*
X003598Y002177D03*
D210*
X003599Y002178D03*
X003599Y002179D03*
X003599Y002180D03*
X003599Y002181D03*
X002254Y002132D03*
X002254Y002131D03*
X002254Y002130D03*
X002254Y002129D03*
X002254Y002128D03*
D211*
X002253Y002133D03*
X002253Y002134D03*
X002253Y002135D03*
X002253Y002136D03*
X003599Y002182D03*
X003599Y002183D03*
X003599Y002184D03*
D212*
X003600Y002185D03*
X003600Y002186D03*
X003600Y002187D03*
X002253Y002140D03*
X002253Y002139D03*
X002253Y002138D03*
X002253Y002137D03*
D213*
X002253Y002141D03*
X002253Y002142D03*
X002253Y002143D03*
X002253Y002144D03*
X003600Y002188D03*
X003600Y002189D03*
X003600Y002190D03*
X003600Y002191D03*
D214*
X003601Y002192D03*
X003601Y002193D03*
X003601Y002194D03*
X002252Y002148D03*
X002252Y002147D03*
X002252Y002146D03*
X002252Y002145D03*
D215*
X002251Y002149D03*
X002251Y002150D03*
X002251Y002151D03*
X002251Y002152D03*
X003601Y002195D03*
X003601Y002196D03*
X003601Y002197D03*
X003601Y002198D03*
D216*
X003602Y002199D03*
X003602Y002200D03*
X003602Y002201D03*
X002251Y002157D03*
X002251Y002156D03*
X002251Y002155D03*
X002251Y002154D03*
X002251Y002153D03*
D217*
X002250Y002158D03*
X002250Y002159D03*
X002250Y002160D03*
X002250Y002161D03*
X003603Y002202D03*
X003603Y002203D03*
X003603Y002204D03*
D218*
X003603Y002205D03*
X003603Y002206D03*
X003603Y002207D03*
X003603Y002208D03*
X002250Y002165D03*
X002250Y002164D03*
X002250Y002163D03*
X002250Y002162D03*
D219*
X002249Y002166D03*
X002249Y002167D03*
X002249Y002168D03*
X002249Y002169D03*
X003603Y002209D03*
X003603Y002210D03*
X003603Y002211D03*
D220*
X003604Y002212D03*
X003604Y002213D03*
X003604Y002214D03*
X003604Y002215D03*
X002249Y002173D03*
X002249Y002172D03*
X002249Y002171D03*
X002249Y002170D03*
D221*
X002248Y002174D03*
X002248Y002175D03*
X002248Y002176D03*
X002248Y002177D03*
X003604Y002216D03*
X003604Y002217D03*
X003604Y002218D03*
D222*
X003605Y002219D03*
X003605Y002220D03*
X003605Y002221D03*
X002248Y002182D03*
X002248Y002181D03*
X002248Y002180D03*
X002248Y002179D03*
X002248Y002178D03*
D223*
X002248Y002183D03*
X002248Y002184D03*
X002248Y002185D03*
X002248Y002186D03*
X003605Y002222D03*
X003605Y002223D03*
X003605Y002224D03*
X003605Y002225D03*
D224*
X003606Y002226D03*
X003606Y002227D03*
X003606Y002228D03*
X002247Y002190D03*
X002247Y002189D03*
X002247Y002188D03*
X002247Y002187D03*
D225*
X002246Y002191D03*
X002246Y002192D03*
X002246Y002193D03*
X002246Y002194D03*
X003606Y002229D03*
X003606Y002230D03*
X003606Y002231D03*
X003606Y002232D03*
D226*
X003607Y002233D03*
X003607Y002234D03*
X003607Y002235D03*
X002246Y002198D03*
X002246Y002197D03*
X002246Y002196D03*
X002246Y002195D03*
D227*
X002245Y002199D03*
X002245Y002200D03*
X002245Y002201D03*
X002245Y002202D03*
X003608Y002236D03*
X003608Y002237D03*
X003608Y002238D03*
D228*
X003608Y002239D03*
X003608Y002240D03*
X003608Y002241D03*
X003608Y002242D03*
X002245Y002207D03*
X002245Y002206D03*
X002245Y002205D03*
X002245Y002204D03*
X002245Y002203D03*
D229*
X002244Y002208D03*
X002244Y002209D03*
X002244Y002210D03*
X002244Y002211D03*
X003608Y002243D03*
X003608Y002244D03*
X003608Y002245D03*
D230*
X003609Y002246D03*
X003609Y002247D03*
X003609Y002248D03*
X003609Y002249D03*
X002244Y002215D03*
X002244Y002214D03*
X002244Y002213D03*
X002244Y002212D03*
D231*
X002243Y002216D03*
X002243Y002217D03*
X002243Y002218D03*
X002243Y002219D03*
X003609Y002250D03*
X003609Y002251D03*
X003609Y002252D03*
D232*
X003610Y002253D03*
X003610Y002254D03*
X003610Y002255D03*
X002243Y002223D03*
X002243Y002222D03*
X002243Y002221D03*
X002243Y002220D03*
D233*
X002243Y002224D03*
X002243Y002225D03*
X002243Y002226D03*
X002243Y002227D03*
X003610Y002256D03*
X003610Y002257D03*
X003610Y002258D03*
X003610Y002259D03*
D234*
X003611Y002260D03*
X003611Y002261D03*
X003611Y002262D03*
X002242Y002232D03*
X002242Y002231D03*
X002242Y002230D03*
X002242Y002229D03*
X002242Y002228D03*
D235*
X002241Y002233D03*
X002241Y002234D03*
X002241Y002235D03*
X002241Y002236D03*
X003611Y002263D03*
X003611Y002264D03*
X003611Y002265D03*
X003611Y002266D03*
D236*
X003612Y002267D03*
X003612Y002268D03*
X003612Y002269D03*
X002241Y002240D03*
X002241Y002239D03*
X002241Y002238D03*
X002241Y002237D03*
D237*
X002240Y002241D03*
X002240Y002242D03*
X002240Y002243D03*
X002240Y002244D03*
X003613Y002270D03*
X003613Y002271D03*
X003613Y002272D03*
D238*
X003613Y002273D03*
X003613Y002274D03*
X003613Y002275D03*
X003613Y002276D03*
X002240Y002248D03*
X002240Y002247D03*
X002240Y002246D03*
X002240Y002245D03*
D239*
X002239Y002249D03*
X002239Y002250D03*
X002239Y002251D03*
X002239Y002252D03*
X003613Y002277D03*
X003613Y002278D03*
X003613Y002279D03*
D240*
X003614Y002280D03*
X003614Y002281D03*
X003614Y002282D03*
X003614Y002283D03*
X002239Y002257D03*
X002239Y002256D03*
X002239Y002255D03*
X002239Y002254D03*
X002239Y002253D03*
D241*
X002238Y002258D03*
X002238Y002259D03*
X002238Y002260D03*
X002238Y002261D03*
X003614Y002284D03*
X003614Y002285D03*
X003614Y002286D03*
D242*
X003615Y002287D03*
X003615Y002288D03*
X003615Y002289D03*
X002238Y002265D03*
X002238Y002264D03*
X002238Y002263D03*
X002238Y002262D03*
D243*
X002238Y002266D03*
X002238Y002267D03*
X002238Y002268D03*
X002238Y002269D03*
X003615Y002290D03*
X003615Y002291D03*
X003615Y002292D03*
X003615Y002293D03*
D244*
X003616Y002294D03*
X003616Y002295D03*
X003616Y002296D03*
X002237Y002273D03*
X002237Y002272D03*
X002237Y002271D03*
X002237Y002270D03*
D245*
X002236Y002274D03*
X002236Y002275D03*
X002236Y002276D03*
X002236Y002277D03*
X003616Y002297D03*
X003616Y002298D03*
X003616Y002299D03*
X003616Y002300D03*
D246*
X003617Y002301D03*
X003617Y002302D03*
X003617Y002303D03*
X002236Y002282D03*
X002236Y002281D03*
X002236Y002280D03*
X002236Y002279D03*
X002236Y002278D03*
D247*
X002235Y002283D03*
X002235Y002284D03*
X002235Y002285D03*
X002235Y002286D03*
X003618Y002304D03*
X003618Y002305D03*
X003618Y002306D03*
D248*
X003618Y002307D03*
X003618Y002308D03*
X003618Y002309D03*
X003618Y002310D03*
X002235Y002290D03*
X002235Y002289D03*
X002235Y002288D03*
X002235Y002287D03*
D249*
X002234Y002291D03*
X002234Y002292D03*
X002234Y002293D03*
X002234Y002294D03*
X003618Y002311D03*
X003618Y002312D03*
X003618Y002313D03*
D250*
X003619Y002314D03*
X003619Y002315D03*
X003619Y002316D03*
X003619Y002317D03*
X002234Y002298D03*
X002234Y002297D03*
X002234Y002296D03*
X002234Y002295D03*
D251*
X002233Y002299D03*
X002233Y002300D03*
X002233Y002301D03*
X002233Y002302D03*
X003619Y002318D03*
X003619Y002319D03*
X003619Y002320D03*
D252*
X003620Y002321D03*
X003620Y002322D03*
X003620Y002323D03*
X002233Y002307D03*
X002233Y002306D03*
X002233Y002305D03*
X002233Y002304D03*
X002233Y002303D03*
D253*
X002233Y002308D03*
X002233Y002309D03*
X002233Y002310D03*
X002233Y002311D03*
X003620Y002324D03*
X003620Y002325D03*
X003620Y002326D03*
X003620Y002327D03*
D254*
X003621Y002328D03*
X003621Y002329D03*
X003621Y002330D03*
X002232Y002315D03*
X002232Y002314D03*
X002232Y002313D03*
X002232Y002312D03*
D255*
X002231Y002316D03*
X002231Y002317D03*
X002231Y002318D03*
X002231Y002319D03*
X003621Y002331D03*
X003621Y002332D03*
X003621Y002333D03*
X003621Y002334D03*
D256*
X003622Y002335D03*
X003622Y002336D03*
X003622Y002337D03*
X002231Y002323D03*
X002231Y002322D03*
X002231Y002321D03*
X002231Y002320D03*
D257*
X002230Y002324D03*
X002230Y002325D03*
X002230Y002326D03*
X002230Y002327D03*
X003623Y002338D03*
X003623Y002339D03*
X003623Y002340D03*
D258*
X003623Y002341D03*
X003623Y002342D03*
X003623Y002343D03*
X003623Y002344D03*
X002230Y002332D03*
X002230Y002331D03*
X002230Y002330D03*
X002230Y002329D03*
X002230Y002328D03*
D259*
X002229Y002333D03*
X002229Y002334D03*
X002229Y002335D03*
X002229Y002336D03*
X003623Y002345D03*
X003623Y002346D03*
X003623Y002347D03*
D260*
X003624Y002348D03*
X003624Y002349D03*
X003624Y002350D03*
X003624Y002351D03*
X002229Y002340D03*
X002229Y002339D03*
X002229Y002338D03*
X002229Y002337D03*
D261*
X002228Y002341D03*
X002228Y002342D03*
X002228Y002343D03*
X002228Y002344D03*
X003624Y002352D03*
X003624Y002353D03*
X003624Y002354D03*
D262*
X003625Y002355D03*
X003625Y002356D03*
X003625Y002357D03*
X002228Y002348D03*
X002228Y002347D03*
X002228Y002346D03*
X002228Y002345D03*
D263*
X002228Y002349D03*
X002228Y002350D03*
X002228Y002351D03*
X002228Y002352D03*
X003625Y002358D03*
X003625Y002359D03*
X003625Y002360D03*
X003625Y002361D03*
D264*
X003626Y002362D03*
X003626Y002363D03*
X003626Y002364D03*
X002227Y002357D03*
X002227Y002356D03*
X002227Y002355D03*
X002227Y002354D03*
X002227Y002353D03*
D265*
X002226Y002358D03*
X002226Y002359D03*
X002226Y002360D03*
X002226Y002361D03*
X003626Y002365D03*
X003626Y002366D03*
X003626Y002367D03*
X003626Y002368D03*
D266*
X003627Y002369D03*
X003627Y002370D03*
X003627Y002371D03*
X002226Y002365D03*
X002226Y002364D03*
X002226Y002363D03*
X002226Y002362D03*
D267*
X002225Y002366D03*
X002225Y002367D03*
X002225Y002368D03*
X002225Y002369D03*
X003628Y002372D03*
X003628Y002373D03*
X003628Y002374D03*
D268*
X003628Y002375D03*
X003628Y002376D03*
X003628Y002377D03*
X003628Y002378D03*
X002225Y002373D03*
X002225Y002372D03*
X002225Y002371D03*
X002225Y002370D03*
D269*
X002224Y002374D03*
X002224Y002375D03*
X002224Y002376D03*
X002224Y002377D03*
X003628Y002379D03*
X003628Y002380D03*
X003628Y002381D03*
D270*
X003629Y002382D03*
X003629Y002383D03*
X003629Y002384D03*
X003629Y002385D03*
X002224Y002382D03*
X002224Y002381D03*
X002224Y002380D03*
X002224Y002379D03*
X002224Y002378D03*
D271*
X002223Y002383D03*
X002223Y002384D03*
X002223Y002385D03*
X002223Y002386D03*
X003629Y002387D03*
X003629Y002388D03*
X003629Y002386D03*
D272*
X003630Y002389D03*
X003630Y002390D03*
X003630Y002391D03*
X002223Y002390D03*
X002223Y002389D03*
X002223Y002388D03*
X002223Y002387D03*
D273*
X002223Y002391D03*
X002223Y002392D03*
X002223Y002393D03*
X002223Y002394D03*
X003630Y002395D03*
X003630Y002394D03*
X003630Y002393D03*
X003630Y002392D03*
D274*
X003631Y002396D03*
X003631Y002397D03*
X003631Y002398D03*
X002222Y002398D03*
X002222Y002397D03*
X002222Y002396D03*
X002222Y002395D03*
D275*
X002221Y002399D03*
X002221Y002400D03*
X002221Y002401D03*
X002221Y002402D03*
X003631Y002402D03*
X003631Y002401D03*
X003631Y002400D03*
X003631Y002399D03*
D276*
X003632Y002403D03*
X003632Y002404D03*
X003632Y002405D03*
X002221Y002406D03*
X002221Y002407D03*
X002221Y002405D03*
X002221Y002404D03*
X002221Y002403D03*
D277*
X002220Y002408D03*
X002220Y002409D03*
X002220Y002410D03*
X002220Y002411D03*
X003633Y002408D03*
X003633Y002407D03*
X003633Y002406D03*
D278*
X003633Y002409D03*
X003633Y002410D03*
X003633Y002411D03*
X003633Y002412D03*
X002220Y002413D03*
X002220Y002414D03*
X002220Y002415D03*
X002220Y002412D03*
D279*
X002219Y002416D03*
X002219Y002417D03*
X002219Y002418D03*
X002219Y002419D03*
X003633Y002415D03*
X003633Y002414D03*
X003633Y002413D03*
D280*
X003634Y002416D03*
X003634Y002417D03*
X003634Y002418D03*
X003634Y002419D03*
X002219Y002420D03*
X002219Y002421D03*
X002219Y002422D03*
X002219Y002423D03*
D281*
X002218Y002424D03*
X002218Y002425D03*
X002218Y002426D03*
X002218Y002427D03*
X003634Y002422D03*
X003634Y002421D03*
X003634Y002420D03*
D282*
X003635Y002423D03*
X003635Y002424D03*
X003635Y002425D03*
X002218Y002428D03*
X002218Y002429D03*
X002218Y002430D03*
X002218Y002431D03*
X002218Y002432D03*
D283*
X002218Y002433D03*
X002218Y002434D03*
X002218Y002435D03*
X002218Y002436D03*
X003635Y002429D03*
X003635Y002428D03*
X003635Y002427D03*
X003635Y002426D03*
D284*
X003636Y002430D03*
X003636Y002431D03*
X003636Y002432D03*
X002217Y002437D03*
X002217Y002438D03*
X002217Y002439D03*
X002217Y002440D03*
D285*
X002216Y002441D03*
X002216Y002442D03*
X002216Y002443D03*
X002216Y002444D03*
X003636Y002436D03*
X003636Y002435D03*
X003636Y002434D03*
X003636Y002433D03*
D286*
X003637Y002437D03*
X003637Y002438D03*
X003637Y002439D03*
X002216Y002445D03*
X002216Y002446D03*
X002216Y002447D03*
X002216Y002448D03*
D287*
X002215Y002449D03*
X002215Y002450D03*
X002215Y002451D03*
X002215Y002452D03*
X003638Y002442D03*
X003638Y002441D03*
X003638Y002440D03*
D288*
X003638Y002443D03*
X003638Y002444D03*
X003638Y002445D03*
X003638Y002446D03*
X002215Y002453D03*
X002215Y002454D03*
X002215Y002455D03*
X002215Y002456D03*
X002215Y002457D03*
D289*
X002214Y002458D03*
X002214Y002459D03*
X002214Y002460D03*
X002214Y002461D03*
X003638Y002449D03*
X003638Y002448D03*
X003638Y002447D03*
D290*
X003639Y002450D03*
X003639Y002451D03*
X003639Y002452D03*
X003639Y002453D03*
X002214Y002462D03*
X002214Y002463D03*
X002214Y002464D03*
X002214Y002465D03*
D291*
X002213Y002466D03*
X002213Y002467D03*
X002213Y002468D03*
X002213Y002469D03*
X003639Y002456D03*
X003639Y002455D03*
X003639Y002454D03*
D292*
X003640Y002457D03*
X003640Y002458D03*
X003640Y002459D03*
X002213Y002470D03*
X002213Y002471D03*
X002213Y002472D03*
X002213Y002473D03*
D293*
X002213Y002474D03*
X002213Y002475D03*
X002213Y002476D03*
X002213Y002477D03*
X003640Y002463D03*
X003640Y002462D03*
X003640Y002461D03*
X003640Y002460D03*
D294*
X003641Y002464D03*
X003641Y002465D03*
X003641Y002466D03*
X002212Y002478D03*
X002212Y002479D03*
X002212Y002480D03*
X002212Y002481D03*
X002212Y002482D03*
D295*
X002211Y002483D03*
X002211Y002484D03*
X002211Y002485D03*
X002211Y002486D03*
X003641Y002470D03*
X003641Y002469D03*
X003641Y002468D03*
X003641Y002467D03*
D296*
X003642Y002471D03*
X003642Y002472D03*
X003642Y002473D03*
X002211Y002487D03*
X002211Y002488D03*
X002211Y002489D03*
X002211Y002490D03*
D297*
X002210Y002491D03*
X002210Y002492D03*
X002210Y002493D03*
X002210Y002494D03*
X003643Y002476D03*
X003643Y002475D03*
X003643Y002474D03*
D298*
X003643Y002477D03*
X003643Y002478D03*
X003643Y002479D03*
X003643Y002480D03*
X002210Y002495D03*
X002210Y002496D03*
X002210Y002497D03*
X002210Y002498D03*
D299*
X002209Y002499D03*
X002209Y002500D03*
X002209Y002501D03*
X002209Y002502D03*
X003643Y002483D03*
X003643Y002482D03*
X003643Y002481D03*
D300*
X003644Y002484D03*
X003644Y002485D03*
X003644Y002486D03*
X003644Y002487D03*
X002209Y002503D03*
X002209Y002504D03*
D301*
X003644Y002490D03*
X003644Y002489D03*
X003644Y002488D03*
D302*
X003645Y002491D03*
X003645Y002492D03*
X003645Y002493D03*
X003645Y002494D03*
D303*
X003645Y002495D03*
X003645Y002496D03*
X003645Y002497D03*
D304*
X003646Y002498D03*
X003646Y002499D03*
X003646Y002500D03*
D305*
X003646Y002501D03*
X003646Y002502D03*
X003646Y002503D03*
X003646Y002504D03*
D306*
X003535Y002505D03*
X003535Y002506D03*
X003535Y002507D03*
X003535Y002508D03*
X003535Y002509D03*
X003535Y002510D03*
X003535Y002511D03*
X003535Y002512D03*
X003535Y002513D03*
X003535Y002514D03*
X003535Y002515D03*
X003535Y002516D03*
X003535Y002517D03*
X003535Y002518D03*
X003535Y002519D03*
X003535Y002520D03*
X003535Y002521D03*
X003535Y002522D03*
X003535Y002523D03*
X003535Y002524D03*
X003535Y002525D03*
X003535Y002526D03*
X003535Y002527D03*
X003535Y002528D03*
X003535Y002529D03*
X003535Y002530D03*
X003535Y002531D03*
X003535Y002532D03*
X003535Y002533D03*
X003535Y002534D03*
X003535Y002535D03*
X003535Y002536D03*
X003535Y002537D03*
X003535Y002538D03*
X003535Y002539D03*
X003535Y002540D03*
X003535Y002541D03*
X003535Y002542D03*
X003535Y002543D03*
X003535Y002544D03*
X003535Y002545D03*
X003535Y002546D03*
X003535Y002547D03*
X003535Y002548D03*
X003535Y002549D03*
X003535Y002550D03*
X003535Y002551D03*
X003535Y002552D03*
X003535Y002553D03*
X003535Y002554D03*
X003535Y002555D03*
X003535Y002556D03*
X002318Y002556D03*
X002318Y002555D03*
X002318Y002554D03*
X002318Y002553D03*
X002318Y002552D03*
X002318Y002551D03*
X002318Y002550D03*
X002318Y002549D03*
X002318Y002548D03*
X002318Y002547D03*
X002318Y002546D03*
X002318Y002545D03*
X002318Y002544D03*
X002318Y002543D03*
X002318Y002542D03*
X002318Y002541D03*
X002318Y002540D03*
X002318Y002539D03*
X002318Y002538D03*
X002318Y002537D03*
X002318Y002536D03*
X002318Y002535D03*
X002318Y002534D03*
X002318Y002533D03*
X002318Y002532D03*
X002318Y002531D03*
X002318Y002530D03*
X002318Y002529D03*
X002318Y002528D03*
X002318Y002527D03*
X002318Y002526D03*
X002318Y002525D03*
X002318Y002524D03*
X002318Y002523D03*
X002318Y002522D03*
X002318Y002521D03*
X002318Y002520D03*
X002318Y002519D03*
X002318Y002518D03*
X002318Y002517D03*
X002318Y002516D03*
X002318Y002515D03*
X002318Y002514D03*
X002318Y002513D03*
X002318Y002512D03*
X002318Y002511D03*
X002318Y002510D03*
X002318Y002509D03*
X002318Y002508D03*
X002318Y002507D03*
X002318Y002506D03*
X002318Y002505D03*
D307*
X002926Y002557D03*
X002926Y002558D03*
X002926Y002559D03*
X002926Y002560D03*
X002926Y002561D03*
X002926Y002562D03*
X002926Y002563D03*
X002926Y002564D03*
X002926Y002565D03*
X002926Y002566D03*
X002926Y002567D03*
X002926Y002568D03*
X002926Y002569D03*
X002926Y002570D03*
X002926Y002571D03*
X002926Y002572D03*
X002926Y002573D03*
X002926Y002574D03*
X002926Y002575D03*
X002926Y002576D03*
X002926Y002577D03*
X002926Y002578D03*
X002926Y002579D03*
X002926Y002580D03*
X002926Y002581D03*
X002926Y002582D03*
X002926Y002583D03*
X002926Y002584D03*
X002926Y002585D03*
X002926Y002586D03*
X002926Y002587D03*
X002926Y002588D03*
X002926Y002589D03*
X002926Y002590D03*
X002926Y002591D03*
X002926Y002592D03*
X002926Y002593D03*
X002926Y002594D03*
X002926Y002595D03*
X002926Y002596D03*
X002926Y002597D03*
X002926Y002855D03*
X002926Y002856D03*
X002926Y002857D03*
X002926Y002858D03*
X002926Y002859D03*
X002926Y002860D03*
X002926Y002861D03*
X002926Y002862D03*
X002926Y002863D03*
X002926Y002864D03*
X002926Y002865D03*
X002926Y002866D03*
X002926Y002867D03*
X002926Y002868D03*
X002926Y002869D03*
X002926Y002870D03*
X002926Y002871D03*
X002926Y002872D03*
X002926Y002873D03*
X002926Y002874D03*
X002926Y002875D03*
X002926Y002876D03*
X002926Y002877D03*
X002926Y002878D03*
X002926Y002879D03*
X002926Y002880D03*
X002926Y002881D03*
X002926Y002882D03*
X002926Y002883D03*
X002926Y002884D03*
X002926Y002885D03*
X002926Y002886D03*
X002926Y002887D03*
X002926Y002888D03*
X002926Y002889D03*
X002926Y002890D03*
X002926Y002891D03*
X002926Y002892D03*
X002926Y002893D03*
X002926Y002894D03*
X002926Y002895D03*
X002926Y002896D03*
X002926Y002897D03*
X002926Y002898D03*
X002926Y002899D03*
X002926Y002900D03*
X002926Y002901D03*
X002926Y002902D03*
X002926Y002903D03*
X002926Y002904D03*
X002926Y002905D03*
X002926Y002906D03*
X002926Y002907D03*
X002926Y002908D03*
X002926Y002909D03*
X002926Y002910D03*
X002926Y002911D03*
X002926Y002912D03*
X002926Y002913D03*
X002926Y002914D03*
X002926Y002915D03*
X002926Y002916D03*
X002926Y002917D03*
X002926Y002918D03*
X002926Y002919D03*
X002926Y002920D03*
X002926Y002921D03*
X002926Y002922D03*
X002926Y002923D03*
X002926Y002924D03*
X002926Y002925D03*
X002926Y002926D03*
X002926Y002927D03*
D308*
X003473Y002854D03*
X003473Y002853D03*
X003473Y002852D03*
X003473Y002851D03*
X003473Y002850D03*
X003473Y002849D03*
X003473Y002848D03*
X003473Y002847D03*
X003473Y002846D03*
X003473Y002845D03*
X003473Y002844D03*
X003473Y002843D03*
X003473Y002842D03*
X003473Y002841D03*
X003473Y002840D03*
X003473Y002839D03*
X003473Y002838D03*
X003473Y002837D03*
X003473Y002836D03*
X003473Y002835D03*
X003473Y002834D03*
X003473Y002833D03*
X003473Y002832D03*
X003473Y002831D03*
X003473Y002830D03*
X003473Y002829D03*
X003473Y002828D03*
X003473Y002827D03*
X003473Y002826D03*
X003473Y002825D03*
X003473Y002824D03*
X003473Y002823D03*
X003473Y002822D03*
X003473Y002821D03*
X003473Y002820D03*
X003473Y002819D03*
X003473Y002818D03*
X003473Y002817D03*
X003473Y002816D03*
X003473Y002815D03*
X003473Y002814D03*
X003473Y002813D03*
X003473Y002812D03*
X003473Y002811D03*
X003473Y002810D03*
X003473Y002809D03*
X003473Y002808D03*
X003473Y002807D03*
X003473Y002806D03*
X003473Y002805D03*
X003473Y002804D03*
X003473Y002803D03*
X003473Y002802D03*
X003473Y002801D03*
X003473Y002800D03*
X003473Y002799D03*
X003473Y002798D03*
X003473Y002797D03*
X003473Y002796D03*
X003473Y002795D03*
X003473Y002794D03*
X003473Y002793D03*
X003473Y002792D03*
X003473Y002791D03*
X003473Y002790D03*
X003473Y002789D03*
X003473Y002788D03*
X003473Y002787D03*
X003473Y002786D03*
X003473Y002785D03*
X003473Y002784D03*
X003473Y002783D03*
X003473Y002782D03*
X003473Y002781D03*
X003473Y002780D03*
X003473Y002779D03*
X003473Y002778D03*
X003473Y002777D03*
X003473Y002776D03*
X003473Y002775D03*
X003473Y002774D03*
X003473Y002773D03*
X003473Y002772D03*
X003473Y002771D03*
X003473Y002770D03*
X003473Y002769D03*
X003473Y002768D03*
X003473Y002767D03*
X003473Y002766D03*
X003473Y002765D03*
X003473Y002764D03*
X003473Y002763D03*
X003473Y002762D03*
X003473Y002761D03*
X003473Y002760D03*
X003473Y002759D03*
X003473Y002758D03*
X003473Y002757D03*
X003473Y002756D03*
X003473Y002755D03*
X003473Y002754D03*
X003473Y002753D03*
X003473Y002752D03*
X003473Y002751D03*
X003473Y002750D03*
X003473Y002749D03*
X003473Y002748D03*
X003473Y002747D03*
X003473Y002746D03*
X003473Y002745D03*
X003473Y002744D03*
X003473Y002743D03*
X003473Y002742D03*
X003473Y002741D03*
X003473Y002740D03*
X003473Y002739D03*
X003473Y002738D03*
X003473Y002737D03*
X003473Y002736D03*
X003473Y002735D03*
X003473Y002734D03*
X003473Y002733D03*
X003473Y002732D03*
X003473Y002731D03*
X003473Y002730D03*
X003473Y002729D03*
X003473Y002728D03*
X003473Y002727D03*
X003473Y002726D03*
X003473Y002725D03*
X003473Y002724D03*
X003473Y002723D03*
X003473Y002722D03*
X003473Y002721D03*
X003473Y002720D03*
X003473Y002719D03*
X003473Y002718D03*
X003473Y002717D03*
X003473Y002716D03*
X003473Y002715D03*
X003473Y002714D03*
X003473Y002713D03*
X003473Y002712D03*
X003473Y002711D03*
X003473Y002710D03*
X003473Y002709D03*
X003473Y002708D03*
X003473Y002707D03*
X003473Y002706D03*
X003473Y002705D03*
X003473Y002704D03*
X003473Y002703D03*
X003473Y002702D03*
X003473Y002701D03*
X003473Y002700D03*
X003473Y002699D03*
X003473Y002698D03*
X003473Y002697D03*
X003473Y002696D03*
X003473Y002695D03*
X003473Y002694D03*
X003473Y002693D03*
X003473Y002692D03*
X003473Y002691D03*
X003473Y002690D03*
X003473Y002689D03*
X003473Y002688D03*
X003473Y002687D03*
X003473Y002686D03*
X003473Y002685D03*
X003473Y002684D03*
X003473Y002683D03*
X003473Y002682D03*
X003473Y002681D03*
X003473Y002680D03*
X003473Y002679D03*
X003473Y002678D03*
X003473Y002677D03*
X003473Y002676D03*
X003473Y002675D03*
X003473Y002674D03*
X003473Y002673D03*
X003473Y002672D03*
X003473Y002671D03*
X003473Y002670D03*
X003473Y002669D03*
X003473Y002668D03*
X003473Y002667D03*
X003473Y002666D03*
X003473Y002665D03*
X003473Y002664D03*
X003473Y002663D03*
X003473Y002662D03*
X003473Y002661D03*
X003473Y002660D03*
X003473Y002659D03*
X003473Y002658D03*
X003473Y002657D03*
X003473Y002656D03*
X003473Y002655D03*
X003473Y002654D03*
X003473Y002653D03*
X003473Y002652D03*
X003473Y002651D03*
X003473Y002650D03*
X003473Y002649D03*
X003473Y002648D03*
X003473Y002647D03*
X003473Y002646D03*
X003473Y002645D03*
X003473Y002644D03*
X003473Y002643D03*
X003473Y002642D03*
X003473Y002641D03*
X003473Y002640D03*
X003473Y002639D03*
X003473Y002638D03*
X003473Y002637D03*
X003473Y002636D03*
X003473Y002635D03*
X003473Y002634D03*
X003473Y002633D03*
X003473Y002632D03*
X003473Y002631D03*
X003473Y002630D03*
X003473Y002629D03*
X003473Y002628D03*
X003473Y002627D03*
X003473Y002626D03*
X003473Y002625D03*
X003473Y002624D03*
X003473Y002623D03*
X003473Y002622D03*
X003473Y002621D03*
X003473Y002620D03*
X003473Y002619D03*
X003473Y002618D03*
X003473Y002617D03*
X003473Y002616D03*
X003473Y002615D03*
X003473Y002614D03*
X003473Y002613D03*
X003473Y002612D03*
X003473Y002611D03*
X003473Y002610D03*
X003473Y002609D03*
X003473Y002608D03*
X003473Y002607D03*
X003473Y002606D03*
X003473Y002605D03*
X003473Y002604D03*
X003473Y002603D03*
X003473Y002602D03*
X003473Y002601D03*
X003473Y002600D03*
X003473Y002599D03*
X003473Y002598D03*
D309*
X002364Y002599D03*
X002364Y002600D03*
X002364Y002601D03*
X002364Y002602D03*
X002364Y002603D03*
X002364Y002604D03*
X002364Y002605D03*
X002364Y002606D03*
X002364Y002607D03*
X002364Y002608D03*
X002364Y002609D03*
X002364Y002610D03*
X002364Y002611D03*
X002364Y002612D03*
X002364Y002613D03*
X002364Y002614D03*
X002364Y002615D03*
X002364Y002616D03*
X002364Y002617D03*
X002364Y002618D03*
X002364Y002619D03*
X002364Y002620D03*
X002364Y002621D03*
X002364Y002622D03*
X002364Y002623D03*
X002364Y002624D03*
X002364Y002625D03*
X002364Y002626D03*
X002364Y002627D03*
X002364Y002628D03*
X002364Y002629D03*
X002364Y002630D03*
X002364Y002631D03*
X002364Y002632D03*
X002364Y002633D03*
X002364Y002634D03*
X002364Y002635D03*
X002364Y002636D03*
X002364Y002637D03*
X002364Y002638D03*
X002364Y002639D03*
X002364Y002640D03*
X002364Y002641D03*
X002364Y002642D03*
X002364Y002643D03*
X002364Y002644D03*
X002364Y002645D03*
X002364Y002646D03*
X002364Y002647D03*
X002364Y002648D03*
X002364Y002649D03*
X002364Y002650D03*
X002364Y002651D03*
X002364Y002652D03*
X002364Y002653D03*
X002364Y002654D03*
X002364Y002655D03*
X002364Y002656D03*
X002364Y002657D03*
X002364Y002658D03*
X002364Y002659D03*
X002364Y002660D03*
X002364Y002661D03*
X002364Y002662D03*
X002364Y002663D03*
X002364Y002664D03*
X002364Y002665D03*
X002364Y002666D03*
X002364Y002667D03*
X002364Y002668D03*
X002364Y002669D03*
X002364Y002670D03*
X002364Y002671D03*
X002364Y002672D03*
X002364Y002673D03*
X002364Y002674D03*
X002364Y002675D03*
X002364Y002676D03*
X002364Y002677D03*
X002364Y002678D03*
X002364Y002679D03*
X002364Y002680D03*
X002364Y002681D03*
X002364Y002682D03*
X002364Y002683D03*
X002364Y002684D03*
X002364Y002685D03*
X002364Y002686D03*
X002364Y002687D03*
X002364Y002688D03*
X002364Y002689D03*
X002364Y002690D03*
X002364Y002691D03*
X002364Y002692D03*
X002364Y002693D03*
X002364Y002694D03*
X002364Y002695D03*
X002364Y002696D03*
X002364Y002697D03*
X002364Y002698D03*
X002364Y002699D03*
X002364Y002700D03*
X002364Y002701D03*
X002364Y002702D03*
X002364Y002703D03*
X002364Y002704D03*
X002364Y002705D03*
X002364Y002706D03*
X002364Y002707D03*
X002364Y002708D03*
X002364Y002709D03*
X002364Y002710D03*
X002364Y002711D03*
X002364Y002712D03*
X002364Y002713D03*
X002364Y002714D03*
X002364Y002715D03*
X002364Y002716D03*
X002364Y002717D03*
X002364Y002718D03*
X002364Y002719D03*
X002364Y002720D03*
X002364Y002721D03*
X002364Y002722D03*
X002364Y002723D03*
X002364Y002724D03*
X002364Y002725D03*
X002364Y002726D03*
X002364Y002727D03*
X002364Y002728D03*
X002364Y002729D03*
X002364Y002730D03*
X002364Y002731D03*
X002364Y002732D03*
X002364Y002733D03*
X002364Y002734D03*
X002364Y002735D03*
X002364Y002736D03*
X002364Y002737D03*
X002364Y002738D03*
X002364Y002739D03*
X002364Y002740D03*
X002364Y002741D03*
X002364Y002742D03*
X002364Y002743D03*
X002364Y002744D03*
X002364Y002745D03*
X002364Y002746D03*
X002364Y002747D03*
X002364Y002748D03*
X002364Y002749D03*
X002364Y002750D03*
X002364Y002751D03*
X002364Y002752D03*
X002364Y002753D03*
X002364Y002754D03*
X002364Y002755D03*
X002364Y002756D03*
X002364Y002757D03*
X002364Y002758D03*
X002364Y002759D03*
X002364Y002760D03*
X002364Y002761D03*
X002364Y002762D03*
X002364Y002763D03*
X002364Y002764D03*
X002364Y002765D03*
X002364Y002766D03*
X002364Y002767D03*
X002364Y002768D03*
X002364Y002769D03*
X002364Y002770D03*
X002364Y002771D03*
X002364Y002772D03*
X002364Y002773D03*
X002364Y002774D03*
X002364Y002775D03*
X002364Y002776D03*
X002364Y002777D03*
X002364Y002778D03*
X002364Y002779D03*
X002364Y002780D03*
X002364Y002781D03*
X002364Y002782D03*
X002364Y002783D03*
X002364Y002784D03*
X002364Y002785D03*
X002364Y002786D03*
X002364Y002787D03*
X002364Y002788D03*
X002364Y002789D03*
X002364Y002790D03*
X002364Y002791D03*
X002364Y002792D03*
X002364Y002793D03*
X002364Y002794D03*
X002364Y002795D03*
X002364Y002796D03*
X002364Y002797D03*
X002364Y002798D03*
X002364Y002799D03*
X002364Y002800D03*
X002364Y002801D03*
X002364Y002802D03*
X002364Y002803D03*
X002364Y002804D03*
X002364Y002805D03*
X002364Y002806D03*
X002364Y002807D03*
X002364Y002808D03*
X002364Y002809D03*
X002364Y002810D03*
X002364Y002811D03*
X002364Y002812D03*
X002364Y002813D03*
X002364Y002814D03*
X002364Y002815D03*
X002364Y002816D03*
X002364Y002817D03*
X002364Y002818D03*
X002364Y002819D03*
X002364Y002820D03*
X002364Y002821D03*
X002364Y002822D03*
X002364Y002823D03*
X002364Y002824D03*
X002364Y002825D03*
X002364Y002826D03*
X002364Y002827D03*
X002364Y002828D03*
X002364Y002829D03*
X002364Y002830D03*
X002364Y002831D03*
X002364Y002832D03*
X002364Y002833D03*
X002364Y002834D03*
X002364Y002835D03*
X002364Y002836D03*
X002364Y002837D03*
X002364Y002838D03*
X002364Y002839D03*
X002364Y002840D03*
X002364Y002841D03*
X002364Y002842D03*
X002364Y002843D03*
X002364Y002844D03*
X002364Y002845D03*
X002364Y002846D03*
X002364Y002847D03*
X002364Y002848D03*
X002364Y002849D03*
X002364Y002850D03*
X002364Y002851D03*
X002364Y002852D03*
X002364Y002853D03*
X002364Y002854D03*
X002364Y002598D03*
D310*
X002927Y002928D03*
X002927Y002929D03*
D311*
X002926Y002930D03*
X002926Y002931D03*
X002926Y002932D03*
X002926Y002933D03*
X002926Y002934D03*
X002926Y002935D03*
X002926Y002936D03*
D312*
X002926Y002937D03*
D313*
X002926Y002938D03*
X002926Y002939D03*
X002926Y002940D03*
X002926Y002941D03*
X002926Y002942D03*
D314*
X002926Y002943D03*
X002926Y002944D03*
D315*
X002926Y002945D03*
X002926Y002946D03*
X002926Y002947D03*
X002926Y002948D03*
D316*
X002926Y002949D03*
X002926Y002950D03*
D317*
X002926Y002951D03*
X002926Y002952D03*
X002926Y002953D03*
D318*
X002926Y002954D03*
X002926Y002955D03*
D319*
X002926Y002956D03*
X002926Y002957D03*
X002926Y002958D03*
D320*
X002926Y002959D03*
X002926Y002960D03*
D321*
X002926Y002961D03*
X002926Y002962D03*
X002926Y002963D03*
D322*
X002926Y002964D03*
D323*
X002926Y002965D03*
X002926Y002966D03*
X002926Y002967D03*
X002926Y002968D03*
D324*
X002926Y002969D03*
X002926Y002970D03*
X002926Y002971D03*
X002926Y002972D03*
D325*
X002926Y002973D03*
X002926Y002974D03*
X002926Y002975D03*
X002926Y002976D03*
D326*
X002926Y002977D03*
X002926Y002978D03*
X002926Y002979D03*
X002926Y002980D03*
D327*
X002926Y002981D03*
X002926Y002982D03*
X002926Y002983D03*
X002926Y002984D03*
D328*
X002926Y002985D03*
X002926Y002986D03*
X002926Y002987D03*
D329*
X002927Y002988D03*
D330*
X002926Y002989D03*
X002926Y002990D03*
D331*
X002927Y002991D03*
D332*
X002926Y002992D03*
X002926Y002993D03*
X002926Y002994D03*
D333*
X002927Y002995D03*
D334*
X002926Y002996D03*
X002926Y002997D03*
D335*
X002927Y002998D03*
D336*
X002926Y002999D03*
X002926Y003000D03*
D337*
X002927Y003001D03*
D338*
X002926Y003002D03*
X002926Y003003D03*
D339*
X002927Y003004D03*
D340*
X002926Y003005D03*
D341*
X002927Y003006D03*
D342*
X002926Y003007D03*
X002926Y003008D03*
D343*
X002927Y003009D03*
D344*
X002926Y003010D03*
X002926Y003011D03*
D345*
X002927Y003012D03*
D346*
X002926Y003013D03*
D347*
X002927Y003014D03*
D348*
X002926Y003015D03*
X002926Y003016D03*
D349*
X002927Y003017D03*
D350*
X002926Y003018D03*
D351*
X002927Y003019D03*
D352*
X002927Y003020D03*
D353*
X002927Y003021D03*
D354*
X002926Y003022D03*
D355*
X002926Y003023D03*
D356*
X002926Y003024D03*
D357*
X002926Y003025D03*
D358*
X002926Y003026D03*
D359*
X002926Y003027D03*
D360*
X002926Y003028D03*
D361*
X002926Y003029D03*
D362*
X002926Y003030D03*
D363*
X002926Y003031D03*
D364*
X002926Y003032D03*
D365*
X002926Y003033D03*
D366*
X002926Y003034D03*
D367*
X002926Y003035D03*
D368*
X002926Y003036D03*
D369*
X002926Y003037D03*
D370*
X002926Y003038D03*
D371*
X002926Y003039D03*
D372*
X002926Y003040D03*
D373*
X002926Y003041D03*
D374*
X002926Y003042D03*
D375*
X002926Y003043D03*
D376*
X002926Y003044D03*
D377*
X002926Y003045D03*
D378*
X002926Y003046D03*
D379*
X002926Y003047D03*
D380*
X002926Y003048D03*
D381*
X002926Y003049D03*
D382*
X002926Y003050D03*
D383*
X002926Y003051D03*
D384*
X002926Y003052D03*
D385*
X002926Y003053D03*
D386*
X002927Y003054D03*
D387*
X002927Y003055D03*
D388*
X002927Y003056D03*
D389*
X002927Y003057D03*
D390*
X002927Y003058D03*
D391*
X002927Y003059D03*
D392*
X002927Y003060D03*
D393*
X002927Y003061D03*
D394*
X002927Y003062D03*
D395*
X002927Y003063D03*
D396*
X002927Y003064D03*
D397*
X002927Y003065D03*
D398*
X002927Y003066D03*
D399*
X002927Y003067D03*
D400*
X002927Y003068D03*
D401*
X002927Y003069D03*
D402*
X002927Y003070D03*
D403*
X002926Y003071D03*
D404*
X002926Y003072D03*
D405*
X002926Y003073D03*
D406*
X002926Y003074D03*
D407*
X002926Y003075D03*
D408*
X002926Y003076D03*
D409*
X002926Y003077D03*
D410*
X002926Y003078D03*
D411*
X002926Y003079D03*
D412*
X002926Y003080D03*
D413*
X002926Y003081D03*
D414*
X002926Y003082D03*
D415*
X002926Y003083D03*
D416*
X002926Y003084D03*
D417*
X002926Y003085D03*
D418*
X002926Y003086D03*
D419*
X002926Y003087D03*
D420*
X002926Y003088D03*
D421*
X002926Y003089D03*
D422*
X002926Y003090D03*
D423*
X002926Y003091D03*
D424*
X002926Y003092D03*
D425*
X002926Y003093D03*
D426*
X002926Y003094D03*
D427*
X002926Y003095D03*
D428*
X002926Y003096D03*
D429*
X002926Y003097D03*
D430*
X002926Y003098D03*
D431*
X002926Y003099D03*
D432*
X002926Y003100D03*
D433*
X002926Y003101D03*
D434*
X002926Y003102D03*
D435*
X002927Y003103D03*
D436*
X002927Y003104D03*
D437*
X002927Y003105D03*
D438*
X002927Y003106D03*
D439*
X002927Y003107D03*
D440*
X002927Y003108D03*
D441*
X002927Y003109D03*
D442*
X002927Y003110D03*
D443*
X002927Y003111D03*
D444*
X002927Y003112D03*
D445*
X002927Y003113D03*
D446*
X002927Y003114D03*
D447*
X002927Y003115D03*
D448*
X002927Y003116D03*
D449*
X002927Y003117D03*
D450*
X002927Y003118D03*
D451*
X002927Y003119D03*
D452*
X002926Y003120D03*
D453*
X002926Y003121D03*
D454*
X002926Y003122D03*
D455*
X002926Y003123D03*
D456*
X002926Y003124D03*
D457*
X002926Y003125D03*
D458*
X002926Y003126D03*
D459*
X002926Y003127D03*
D460*
X002926Y003128D03*
D461*
X002926Y003129D03*
D462*
X002926Y003130D03*
D463*
X002926Y003131D03*
D464*
X002926Y003132D03*
D465*
X002926Y003133D03*
D466*
X002926Y003134D03*
D467*
X002926Y003135D03*
D468*
X002926Y003136D03*
D469*
X002926Y003137D03*
D470*
X002926Y003138D03*
D471*
X002926Y003139D03*
D472*
X002926Y003140D03*
D473*
X002926Y003141D03*
D474*
X002926Y003142D03*
D475*
X002926Y003143D03*
D476*
X002926Y003144D03*
D477*
X002926Y003145D03*
D478*
X002926Y003146D03*
D479*
X002926Y003147D03*
D480*
X002926Y003148D03*
D481*
X002926Y003149D03*
D482*
X002926Y003150D03*
D483*
X002926Y003151D03*
D484*
X002926Y003152D03*
D485*
X002927Y003153D03*
D486*
X002927Y003154D03*
D487*
X002927Y003155D03*
D488*
X002927Y003156D03*
D489*
X002927Y003157D03*
D490*
X002927Y003158D03*
D491*
X002927Y003159D03*
D492*
X002927Y003160D03*
D493*
X002927Y003161D03*
D494*
X002927Y003162D03*
D495*
X002927Y003163D03*
D496*
X002927Y003164D03*
D497*
X002927Y003165D03*
D498*
X002927Y003166D03*
D499*
X002927Y003167D03*
D500*
X002926Y003168D03*
D501*
X002926Y003169D03*
D502*
X002926Y003170D03*
D503*
X002926Y003171D03*
D504*
X002926Y003172D03*
D505*
X002926Y003173D03*
D506*
X002926Y003174D03*
D507*
X002926Y003175D03*
D508*
X002926Y003176D03*
D509*
X002926Y003177D03*
D510*
X002926Y003178D03*
D511*
X002926Y003179D03*
D512*
X002926Y003180D03*
D513*
X002926Y003181D03*
D514*
X002926Y003182D03*
D515*
X002926Y003183D03*
D516*
X002926Y003184D03*
D517*
X002926Y003185D03*
D518*
X002926Y003186D03*
D519*
X002926Y003187D03*
D520*
X002926Y003188D03*
D521*
X002926Y003189D03*
D522*
X002926Y003190D03*
D523*
X002926Y003191D03*
D524*
X002926Y003192D03*
D525*
X002926Y003193D03*
D526*
X002926Y003194D03*
D527*
X002926Y003195D03*
D528*
X002926Y003196D03*
D529*
X002926Y003197D03*
D530*
X002926Y003198D03*
D531*
X002926Y003199D03*
D532*
X002926Y003200D03*
D533*
X002926Y003201D03*
D534*
X002927Y003202D03*
D535*
X002927Y003203D03*
D536*
X002927Y003204D03*
D537*
X002927Y003205D03*
D538*
X002927Y003206D03*
D539*
X002927Y003207D03*
D540*
X002927Y003208D03*
D541*
X002927Y003209D03*
D542*
X002927Y003210D03*
D543*
X002927Y003211D03*
D544*
X002927Y003212D03*
D545*
X002927Y003213D03*
D546*
X002927Y003214D03*
D547*
X002927Y003215D03*
D548*
X002927Y003216D03*
D549*
X002926Y003217D03*
D550*
X002926Y003218D03*
D551*
X002926Y003219D03*
D552*
X002926Y003220D03*
D553*
X002926Y003221D03*
D554*
X002926Y003222D03*
D555*
X002926Y003223D03*
D556*
X002926Y003224D03*
D557*
X002926Y003225D03*
D558*
X002926Y003226D03*
D559*
X002926Y003227D03*
D560*
X002926Y003228D03*
D561*
X002926Y003229D03*
D562*
X002926Y003230D03*
D563*
X002926Y003231D03*
D564*
X002926Y003232D03*
D565*
X002926Y003233D03*
D566*
X002926Y003234D03*
D567*
X002926Y003235D03*
D568*
X002926Y003236D03*
D569*
X002926Y003237D03*
D570*
X002926Y003238D03*
D571*
X002926Y003239D03*
D572*
X002926Y003240D03*
D573*
X002926Y003241D03*
D574*
X002926Y003242D03*
D575*
X002926Y003243D03*
D576*
X002926Y003244D03*
D577*
X002926Y003245D03*
D578*
X002926Y003246D03*
D579*
X002926Y003247D03*
D580*
X002926Y003248D03*
D581*
X002926Y003249D03*
D582*
X002926Y003250D03*
D583*
X002927Y003251D03*
D584*
X002927Y003252D03*
D585*
X002927Y003253D03*
D586*
X002927Y003254D03*
D587*
X002927Y003255D03*
D588*
X002927Y003256D03*
D589*
X002927Y003257D03*
D590*
X002927Y003258D03*
D591*
X002927Y003259D03*
D592*
X002927Y003260D03*
D593*
X002927Y003261D03*
D594*
X002927Y003262D03*
D595*
X002927Y003263D03*
D596*
X002927Y003264D03*
D597*
X002927Y003265D03*
D598*
X002926Y003266D03*
D599*
X002926Y003267D03*
D600*
X002926Y003268D03*
D601*
X002926Y003269D03*
D602*
X002926Y003270D03*
D603*
X002926Y003271D03*
D604*
X002926Y003272D03*
D605*
X002926Y003273D03*
D606*
X002926Y003274D03*
D607*
X002926Y003275D03*
D608*
X002926Y003276D03*
D609*
X002926Y003277D03*
D610*
X002926Y003278D03*
D611*
X002926Y003279D03*
D612*
X002926Y003280D03*
D613*
X002926Y003281D03*
D614*
X002926Y003282D03*
D615*
X002926Y003283D03*
D616*
X002926Y003284D03*
D617*
X002926Y003285D03*
D618*
X002926Y003286D03*
D619*
X002926Y003287D03*
D620*
X002927Y003288D03*
D621*
X002926Y003289D03*
D622*
X002926Y003290D03*
D623*
X002926Y003291D03*
D624*
X002926Y003292D03*
D625*
X002926Y003293D03*
D626*
X002927Y003294D03*
D627*
X002927Y003295D03*
D628*
X002927Y003296D03*
D629*
X002927Y003297D03*
D630*
X002927Y003298D03*
D631*
X002927Y003299D03*
D632*
X002928Y003300D03*
D633*
X002928Y003301D03*
D634*
X002928Y003302D03*
D635*
X002928Y003303D03*
D636*
X002928Y003304D03*
D637*
X002928Y003305D03*
D638*
X002928Y003306D03*
D639*
X002928Y003307D03*
D640*
X002929Y003308D03*
D641*
X003933Y001201D02*
X003933Y001201D01*
X003933Y001200D01*
X003934Y001200D01*
X003934Y001199D02*
X003934Y001201D01*
X003933Y001201D01*
X003933Y001200D02*
X003933Y001200D01*
X003935Y001201D02*
X003935Y001200D01*
X003935Y001201D01*
X003935Y001201D01*
X003935Y001201D01*
X003936Y001201D01*
X003936Y001201D01*
X003936Y001200D01*
X003937Y001200D02*
X003937Y001201D01*
X003938Y001201D01*
X003939Y001200D02*
X003939Y001200D01*
X003939Y001200D01*
X003939Y001200D01*
X003939Y001200D01*
X003939Y001201D01*
X003940Y001201D01*
X003940Y001201D01*
X003941Y001201D01*
X003941Y001200D01*
X003942Y001200D01*
X003943Y001200D01*
X003943Y001201D01*
X003943Y001201D01*
X003943Y001200D01*
X003943Y001200D01*
X003944Y001200D01*
X003944Y001200D01*
X003944Y001201D01*
X003944Y001201D01*
X003943Y001201D01*
X003942Y001201D01*
X003941Y001201D01*
X003941Y001200D01*
X003942Y001199D01*
X003942Y001199D01*
X003941Y001200D02*
X003940Y001200D01*
X003939Y001200D01*
X003940Y001200D02*
X003940Y001200D01*
X003938Y001200D02*
X003937Y001200D01*
X003937Y001200D01*
X003938Y001200D02*
X003938Y001202D01*
X003937Y001201D02*
X003937Y001201D01*
X003945Y001200D02*
X003946Y001200D01*
X003947Y001200D01*
X003948Y001200D02*
X003949Y001200D01*
X003950Y001200D01*
X003951Y001200D01*
X003950Y001201D01*
X003949Y001201D01*
X003949Y001200D01*
X003948Y001201D02*
X003948Y001200D01*
X003949Y001201D02*
X003948Y001201D01*
X003948Y001202D02*
X003948Y001202D01*
X003949Y001201D02*
X003950Y001201D01*
X003950Y001201D01*
X003951Y001202D02*
X003952Y001200D01*
X003953Y001200D02*
X003953Y001201D01*
X003953Y001201D01*
X003954Y001201D01*
X003954Y001200D01*
X003954Y001200D01*
X003953Y001200D01*
X003953Y001200D01*
X003954Y001201D02*
X003954Y001201D01*
X003955Y001201D02*
X003956Y001201D01*
X003956Y001200D01*
X003955Y001200D01*
X003956Y001200D02*
X003956Y001200D01*
X003957Y001200D02*
X003957Y001201D01*
X003958Y001201D01*
X003958Y001201D01*
X003958Y001201D01*
X003957Y001201D01*
X003957Y001200D02*
X003957Y001200D01*
X003958Y001200D01*
X003959Y001200D01*
X003959Y001201D01*
X003959Y001201D01*
X003960Y001201D02*
X003961Y001200D01*
X003961Y001201D02*
X003960Y001200D01*
X003959Y001202D02*
X003959Y001202D01*
X003961Y001202D02*
X003963Y001200D01*
X003964Y001200D02*
X003964Y001200D01*
X003965Y001200D01*
X003965Y001201D01*
X003965Y001201D01*
X003964Y001201D01*
X003964Y001201D01*
X003963Y001201D01*
X003963Y001201D01*
X003965Y001201D01*
X003965Y001200D01*
X003966Y001201D02*
X003966Y001200D01*
X003966Y001201D01*
X003965Y001201D01*
X003966Y001201D02*
X003966Y001201D01*
X003966Y001201D01*
X003967Y001201D02*
X003967Y001201D01*
X003967Y001200D01*
X003967Y001200D01*
X003968Y001200D01*
X003968Y001200D01*
X003968Y001201D01*
X003968Y001201D01*
X003967Y001201D01*
X003969Y001201D02*
X003969Y001200D01*
X003969Y001201D02*
X003969Y001201D01*
X003970Y001201D01*
X003970Y001201D01*
X003970Y001202D02*
X003970Y001200D01*
X003972Y001200D02*
X003971Y001202D01*
X003956Y001201D02*
X003956Y001201D01*
X003946Y001202D02*
X003945Y001202D01*
X003945Y001200D01*
M02*
