G75*
%MOIN*%
%OFA0B0*%
%FSLAX24Y24*%
%IPPOS*%
%LPD*%
%AMOC8*
5,1,8,0,0,1.08239X$1,22.5*
%
%ADD10R,0.0740X0.0740*%
%ADD11C,0.0740*%
%ADD12C,0.0320*%
%ADD13C,0.0100*%
D10*
X000900Y001125D03*
X004900Y001125D03*
D11*
X004900Y002125D03*
X004900Y003125D03*
X000900Y003125D03*
X000900Y002125D03*
D12*
X000900Y003125D02*
X004900Y003125D01*
D13*
X000305Y003845D02*
X000305Y000405D01*
X005495Y000405D01*
X005495Y003845D01*
X000305Y003845D01*
X000305Y003796D02*
X005495Y003796D01*
X005495Y003698D02*
X000305Y003698D01*
X000305Y003599D02*
X000738Y003599D01*
X000801Y003625D02*
X000617Y003549D01*
X000476Y003408D01*
X000400Y003224D01*
X000400Y003026D01*
X000476Y002842D01*
X000617Y002701D01*
X000801Y002625D01*
X000617Y002549D01*
X000476Y002408D01*
X000400Y002224D01*
X000400Y002026D01*
X000476Y001842D01*
X000617Y001701D01*
X000752Y001645D01*
X000510Y001645D01*
X000472Y001635D01*
X000438Y001615D01*
X000410Y001587D01*
X000390Y001553D01*
X000380Y001515D01*
X000380Y001175D01*
X000850Y001175D01*
X000850Y001075D01*
X000380Y001075D01*
X000380Y000735D01*
X000390Y000697D01*
X000410Y000663D01*
X000438Y000635D01*
X000472Y000615D01*
X000510Y000605D01*
X000850Y000605D01*
X000850Y001075D01*
X000950Y001075D01*
X000950Y001175D01*
X001420Y001175D01*
X001420Y001515D01*
X001410Y001553D01*
X001390Y001587D01*
X001362Y001615D01*
X001328Y001635D01*
X001290Y001645D01*
X001048Y001645D01*
X001183Y001701D01*
X001324Y001842D01*
X001400Y002026D01*
X001400Y002224D01*
X001324Y002408D01*
X001183Y002549D01*
X000999Y002625D01*
X000801Y002625D01*
X000999Y002625D01*
X001183Y002701D01*
X001317Y002835D01*
X004483Y002835D01*
X004617Y002701D01*
X004801Y002625D01*
X004617Y002549D01*
X004476Y002408D01*
X004400Y002224D01*
X004400Y002026D01*
X004476Y001842D01*
X004617Y001701D01*
X004752Y001645D01*
X004510Y001645D01*
X004472Y001635D01*
X004438Y001615D01*
X004410Y001587D01*
X004390Y001553D01*
X004380Y001515D01*
X004380Y001175D01*
X004850Y001175D01*
X004850Y001075D01*
X004380Y001075D01*
X004380Y000735D01*
X004390Y000697D01*
X004410Y000663D01*
X004438Y000635D01*
X004472Y000615D01*
X004510Y000605D01*
X004850Y000605D01*
X004850Y001075D01*
X004950Y001075D01*
X004950Y001175D01*
X005420Y001175D01*
X005420Y001515D01*
X005410Y001553D01*
X005390Y001587D01*
X005362Y001615D01*
X005328Y001635D01*
X005290Y001645D01*
X005048Y001645D01*
X005183Y001701D01*
X005324Y001842D01*
X005400Y002026D01*
X005400Y002224D01*
X005324Y002408D01*
X005183Y002549D01*
X004999Y002625D01*
X004801Y002625D01*
X004999Y002625D01*
X005183Y002701D01*
X005324Y002842D01*
X005400Y003026D01*
X005400Y003224D01*
X005324Y003408D01*
X005183Y003549D01*
X004999Y003625D01*
X004801Y003625D01*
X004617Y003549D01*
X004483Y003415D01*
X001317Y003415D01*
X001183Y003549D01*
X000999Y003625D01*
X000801Y003625D01*
X000568Y003501D02*
X000305Y003501D01*
X000305Y003402D02*
X000474Y003402D01*
X000433Y003304D02*
X000305Y003304D01*
X000305Y003205D02*
X000400Y003205D01*
X000400Y003107D02*
X000305Y003107D01*
X000305Y003008D02*
X000407Y003008D01*
X000448Y002910D02*
X000305Y002910D01*
X000305Y002811D02*
X000507Y002811D01*
X000605Y002713D02*
X000305Y002713D01*
X000305Y002614D02*
X000774Y002614D01*
X000583Y002516D02*
X000305Y002516D01*
X000305Y002417D02*
X000485Y002417D01*
X000439Y002319D02*
X000305Y002319D01*
X000305Y002220D02*
X000400Y002220D01*
X000400Y002122D02*
X000305Y002122D01*
X000305Y002023D02*
X000401Y002023D01*
X000442Y001925D02*
X000305Y001925D01*
X000305Y001826D02*
X000492Y001826D01*
X000590Y001728D02*
X000305Y001728D01*
X000305Y001629D02*
X000462Y001629D01*
X000384Y001531D02*
X000305Y001531D01*
X000305Y001432D02*
X000380Y001432D01*
X000380Y001334D02*
X000305Y001334D01*
X000305Y001235D02*
X000380Y001235D01*
X000305Y001137D02*
X000850Y001137D01*
X000850Y001038D02*
X000950Y001038D01*
X000950Y001075D02*
X000950Y000605D01*
X001290Y000605D01*
X001328Y000615D01*
X001362Y000635D01*
X001390Y000663D01*
X001410Y000697D01*
X001420Y000735D01*
X001420Y001075D01*
X000950Y001075D01*
X000950Y001137D02*
X004850Y001137D01*
X004850Y001038D02*
X004950Y001038D01*
X004950Y001075D02*
X004950Y000605D01*
X005290Y000605D01*
X005328Y000615D01*
X005362Y000635D01*
X005390Y000663D01*
X005410Y000697D01*
X005420Y000735D01*
X005420Y001075D01*
X004950Y001075D01*
X004950Y001137D02*
X005495Y001137D01*
X005495Y001235D02*
X005420Y001235D01*
X005420Y001334D02*
X005495Y001334D01*
X005495Y001432D02*
X005420Y001432D01*
X005416Y001531D02*
X005495Y001531D01*
X005495Y001629D02*
X005338Y001629D01*
X005210Y001728D02*
X005495Y001728D01*
X005495Y001826D02*
X005308Y001826D01*
X005358Y001925D02*
X005495Y001925D01*
X005495Y002023D02*
X005399Y002023D01*
X005400Y002122D02*
X005495Y002122D01*
X005495Y002220D02*
X005400Y002220D01*
X005361Y002319D02*
X005495Y002319D01*
X005495Y002417D02*
X005315Y002417D01*
X005217Y002516D02*
X005495Y002516D01*
X005495Y002614D02*
X005026Y002614D01*
X005195Y002713D02*
X005495Y002713D01*
X005495Y002811D02*
X005293Y002811D01*
X005352Y002910D02*
X005495Y002910D01*
X005495Y003008D02*
X005393Y003008D01*
X005400Y003107D02*
X005495Y003107D01*
X005495Y003205D02*
X005400Y003205D01*
X005367Y003304D02*
X005495Y003304D01*
X005495Y003402D02*
X005326Y003402D01*
X005232Y003501D02*
X005495Y003501D01*
X005495Y003599D02*
X005062Y003599D01*
X004738Y003599D02*
X001062Y003599D01*
X001232Y003501D02*
X004568Y003501D01*
X004507Y002811D02*
X001293Y002811D01*
X001195Y002713D02*
X004605Y002713D01*
X004774Y002614D02*
X001026Y002614D01*
X001217Y002516D02*
X004583Y002516D01*
X004485Y002417D02*
X001315Y002417D01*
X001361Y002319D02*
X004439Y002319D01*
X004400Y002220D02*
X001400Y002220D01*
X001400Y002122D02*
X004400Y002122D01*
X004401Y002023D02*
X001399Y002023D01*
X001358Y001925D02*
X004442Y001925D01*
X004492Y001826D02*
X001308Y001826D01*
X001210Y001728D02*
X004590Y001728D01*
X004462Y001629D02*
X001338Y001629D01*
X001416Y001531D02*
X004384Y001531D01*
X004380Y001432D02*
X001420Y001432D01*
X001420Y001334D02*
X004380Y001334D01*
X004380Y001235D02*
X001420Y001235D01*
X001420Y001038D02*
X004380Y001038D01*
X004380Y000940D02*
X001420Y000940D01*
X001420Y000841D02*
X004380Y000841D01*
X004380Y000743D02*
X001420Y000743D01*
X001371Y000644D02*
X004429Y000644D01*
X004850Y000644D02*
X004950Y000644D01*
X004950Y000743D02*
X004850Y000743D01*
X004850Y000841D02*
X004950Y000841D01*
X004950Y000940D02*
X004850Y000940D01*
X005371Y000644D02*
X005495Y000644D01*
X005495Y000546D02*
X000305Y000546D01*
X000305Y000644D02*
X000429Y000644D01*
X000380Y000743D02*
X000305Y000743D01*
X000305Y000841D02*
X000380Y000841D01*
X000380Y000940D02*
X000305Y000940D01*
X000305Y001038D02*
X000380Y001038D01*
X000850Y000940D02*
X000950Y000940D01*
X000950Y000841D02*
X000850Y000841D01*
X000850Y000743D02*
X000950Y000743D01*
X000950Y000644D02*
X000850Y000644D01*
X000305Y000447D02*
X005495Y000447D01*
X005495Y000743D02*
X005420Y000743D01*
X005420Y000841D02*
X005495Y000841D01*
X005495Y000940D02*
X005420Y000940D01*
X005420Y001038D02*
X005495Y001038D01*
M02*
